<svg id="Capa_1" enable-background="new 0 0 512 512" height="512" viewBox="0 0 512 512" width="512" xmlns="http://www.w3.org/2000/svg"><g><path d="m359.425 512h-70c-8.284 0-15-6.716-15-15v-150c0-8.284 6.716-15 15-15h90c4.324 0 8.438 1.866 11.286 5.119s1.318 20.595.747 24.881l-17.164 136.982c-.994 7.453-7.351 13.018-14.869 13.018z" fill="#0d8ebc"/><path d="m379.425 332h-20v180c7.518 0 13.875-5.565 14.869-13.018l17.163-136.982c.571-4.286 2.101-21.628-.747-24.881s-6.961-5.119-11.285-5.119z" fill="#0a617d"/><path d="m497 512c-8.284 0-15-6.716-15-15v-180c0-8.271-6.729-15-15-15s-15 6.729-15 15v10c0 8.284-6.716 15-15 15s-15-6.716-15-15v-10c0-24.813 20.187-45 45-45s45 20.187 45 45v180c0 8.284-6.716 15-15 15z" fill="#6b5c59"/><g><path d="m111.973 292-52.988 197.757c-4.288 16.004-20.738 25.501-36.742 21.213-16.004-4.288-25.502-20.738-21.213-36.742l46.684-174.228z" fill="#d5d3ea"/><path d="m64.124 292 52.988 197.757c4.288 16.004 20.738 25.501 36.742 21.213 16.004-4.288 25.501-20.738 21.213-36.742l-46.684-174.228z" fill="#e2dff4"/><path d="m128.383 300-13.383-1.666v183.541l2.112 7.882c4.288 16.004 20.738 25.501 36.742 21.213 16.004-4.288 25.501-20.738 21.213-36.742z" fill="#d5d3ea"/></g><path d="m503.213 229.576-133.182-133.182c-2.813-2.814-6.628-4.394-10.606-4.394-30.459 0-59.164 11.79-80.826 33.198-21.642 21.389-33.772 49.914-34.157 80.323 0 .062-.001.123-.001.186l-.016 55.598v85.695c0 8.284 6.716 15 15 15h132.032l28.969-130.359 40.362 40.362c5.848 5.848 13.53 8.771 21.212 8.771s15.364-2.924 21.212-8.771c5.667-5.666 8.788-13.2 8.788-21.214s-3.121-15.548-8.787-21.213z" fill="#acceff"/><path d="m391.457 362 28.969-130.359 40.362 40.362c5.848 5.848 13.53 8.771 21.212 8.771s15.364-2.924 21.212-8.771c5.667-5.666 8.788-13.2 8.788-21.214s-3.121-15.548-8.787-21.213l-133.182-133.182c-2.813-2.814-6.628-4.394-10.606-4.394v270z" fill="#989dec"/><path d="m339.425 171.849c-5.858 5.858-5.858 15.355 0 21.213l73.288 73.288 7.713-34.708.001-.004-59.789-59.789c-5.858-5.858-15.355-5.858-21.213 0z" fill="#989dec"/><path d="m359.425 107c-29.5 0-53.5-24-53.5-53.5s24-53.5 53.5-53.5 53.5 24 53.5 53.5-24 53.5-53.5 53.5z" fill="#ffddce"/><g><path d="m359.425 170.765v42.297l53.288 53.288 7.713-34.708.001-.004-59.789-59.789c-.389-.389-.795-.747-1.213-1.084z" fill="#6e75e2"/><path d="m359.425 0v107c29.5 0 53.5-24 53.5-53.5s-24-53.5-53.5-53.5z" fill="#ffbca7"/></g><path d="m292.629 208.095c-3.976-6.957-10.423-11.95-18.154-14.059l-109.535-29.874-36.917-64.604c-2.67-4.674-7.64-7.558-13.023-7.558-63.411 0-115 51.589-115 115v140c0 8.284 6.716 15 15 15h130c8.284 0 15-6.716 15-15v-109.325l2.038-12.113 96.648 26.359c2.626.717 5.293 1.071 7.944 1.071 5.152 0 10.241-1.34 14.835-3.965 6.958-3.977 11.951-10.424 14.059-18.154 2.109-7.73 1.081-15.82-2.895-22.778z" fill="#f9f9f9"/><path d="m145 362c8.284 0 15-6.716 15-15v-109.325l2.038-12.113 96.648 26.359c2.626.717 5.293 1.071 7.944 1.071 5.152 0 10.241-1.34 14.835-3.965 6.958-3.977 11.951-10.424 14.059-18.154 2.109-7.73 1.081-15.82-2.895-22.778-3.976-6.957-10.423-11.95-18.154-14.059l-109.535-29.874-36.917-64.604c-2.67-4.674-7.64-7.558-13.023-7.558v270z" fill="#e2dff4"/><path d="m125.857 215.696c-6.717-1.832-12.408-6.427-15.613-12.607l-5.022-9.68c-3.814-7.355-12.868-10.224-20.222-6.409-7.354 3.815-10.223 12.868-6.408 20.222l5.022 9.681c7.053 13.597 19.574 23.706 34.351 27.736l42.035 11.465v-18.429l2.038-12.111z" fill="#e2dff4"/><path d="m115 209.479v34.255c.978.328 1.965.633 2.964.906l42.036 11.464v-18.429l2.038-12.111-36.181-9.867c-4.118-1.124-7.847-3.289-10.857-6.218z" fill="#d5d3ea"/><path d="m115 107c-29.5 0-53.5-24-53.5-53.5s24-53.5 53.5-53.5 53.5 24 53.5 53.5-24 53.5-53.5 53.5z" fill="#ffddce"/><path d="m115 0v107c29.5 0 53.5-24 53.5-53.5s-24-53.5-53.5-53.5z" fill="#ffbca7"/></g></svg>