<?xml version="1.0" encoding="iso-8859-1"?>
<!-- Generator: Adobe Illustrator 19.0.0, SVG Export Plug-In . SVG Version: 6.00 Build 0)  -->
<svg version="1.1" id="Layer_1" xmlns="http://www.w3.org/2000/svg" xmlns:xlink="http://www.w3.org/1999/xlink" x="0px" y="0px"
	 viewBox="0 0 492.8 492.8" style="enable-background:new 0 0 492.8 492.8;" xml:space="preserve">
<path style="fill:#B52815;" d="M246.4,94.4c-24-41.6-66.4-68-116-68C58.4,26.4,0,83.2,0,152.8c0,25.6,8,49.6,22.4,70.4l0,0
	c0.8,0.8,0.8,0.8,0.8,1.6l223.2,241.6V94.4z"/>
<path style="fill:#8C160A;" d="M246.4,94.4c24-41.6,66.4-68,116-68c72,0,130.4,56.8,130.4,126.4c0,25.6-7.2,49.6-22.4,70.4l0,0
	c-0.8,0.8-0.8,0.8-1.6,1.6L246.4,466.4V94.4z"/>
<path style="fill:#D8462A;" d="M143.2,44c8,12.8-11.2,39.2-43.2,60s-64.8,27.2-72.8,14.4s1.6-39.2,34.4-60
	C92.8,37.6,135.2,31.2,143.2,44z"/>
<path style="fill:#B52815;" d="M379.2,44c8,12.8-11.2,39.2-43.2,60s-64.8,27.2-72.8,14.4s1.6-39.2,34.4-60
	C328.8,37.6,371.2,31.2,379.2,44z"/>
<path style="fill:#D8462A;" d="M50.4,158.4c0,8.8-7.2,16-16,16s-16-7.2-16-16s7.2-16,16-16C43.2,141.6,50.4,148.8,50.4,158.4z"/>
<path style="fill:#1DD8A7;" d="M178.4,430.4c-4,0-7.2-4-8-8l-24-193.6l-13.6,102.4c-0.8,4-4,6.4-8,6.4s-7.2-2.4-8-6.4l-16-78.4
	l-11.2,14.4c-1.6,2.4-4,2.4-6.4,2.4H16.8c-4.8,0-8-3.2-8-8s3.2-8,8-8h61.6l20-25.6c1.6-2.4,4.8-3.2,8-2.4s5.6,3.2,6.4,6.4l10.4,50.4
	l16-117.6c0.8-4,4-6.4,8-6.4l0,0c4,0,7.2,2.4,8,6.4L177.6,340l6.4-79.2c0-4,4-6.4,8-6.4h283.2c4.8,0,8,3.2,8,8s-3.2,8-8,8H198.4
	l-11.2,152.8C186.4,427.2,183.2,430.4,178.4,430.4C179.2,430.4,179.2,430.4,178.4,430.4z"/>
<g>
</g>
<g>
</g>
<g>
</g>
<g>
</g>
<g>
</g>
<g>
</g>
<g>
</g>
<g>
</g>
<g>
</g>
<g>
</g>
<g>
</g>
<g>
</g>
<g>
</g>
<g>
</g>
<g>
</g>
</svg>
