<?xml version="1.0" encoding="iso-8859-1"?>
<!-- Generator: Adobe Illustrator 19.0.0, SVG Export Plug-In . SVG Version: 6.00 Build 0)  -->
<svg version="1.1" id="Capa_1" xmlns="http://www.w3.org/2000/svg" xmlns:xlink="http://www.w3.org/1999/xlink" x="0px" y="0px"
	 viewBox="0 0 512 512" style="enable-background:new 0 0 512 512;" xml:space="preserve">
<path style="fill:#F28B74;" d="M390.416,196.164c-6.413,0-12.786-2.691-17.295-7.935c-37.652-43.8-30.073-112.007-26.837-141.132
	c1.39-12.511,12.662-21.523,25.17-20.137c12.512,1.39,21.527,12.659,20.137,25.17c-2.581,23.228-8.625,77.621,16.099,106.381
	c8.206,9.546,7.12,23.937-2.426,32.143C400.962,194.352,395.676,196.164,390.416,196.164z"/>
<path style="opacity:0.1;enable-background:new    ;" d="M390.416,196.164c-6.413,0-12.786-2.691-17.295-7.935
	c-37.652-43.8-30.073-112.007-26.837-141.132c1.39-12.511,12.662-21.523,25.17-20.137c12.512,1.39,21.527,12.659,20.137,25.17
	c-2.581,23.228-8.625,77.621,16.099,106.381c8.206,9.546,7.12,23.937-2.426,32.143C400.962,194.352,395.676,196.164,390.416,196.164
	z"/>
<path style="fill:#F28B74;" d="M58.783,485.18c-5.833,0-11.667-2.225-16.117-6.676C15.152,450.991,0,414.41,0,375.5v-21.967
	c0-22.578,9.286-44.638,25.479-60.523c16.052-15.748,37.06-24.216,59.245-23.764c21.863,0.418,42.35,9.247,57.685,24.861
	c15.356,15.635,23.813,36.317,23.813,58.234c0,12.588-10.205,22.793-22.793,22.793s-22.793-10.205-22.793-22.793
	c0-20.299-16.501-37.13-36.784-37.518c-9.782-0.197-19.206,3.622-26.448,10.727c-7.51,7.368-11.817,17.567-11.817,27.982V375.5
	c0,26.734,10.41,51.867,29.314,70.771c8.901,8.901,8.901,23.333,0,32.234C70.45,482.955,64.617,485.18,58.783,485.18z"/>
<path style="opacity:0.1;enable-background:new    ;" d="M58.783,485.18c-5.833,0-11.667-2.225-16.117-6.676
	C15.152,450.991,0,414.41,0,375.5v-21.967c0-22.578,9.286-44.638,25.479-60.523c16.052-15.748,37.06-24.216,59.245-23.764
	c21.863,0.418,42.35,9.247,57.685,24.861c15.356,15.635,23.813,36.317,23.813,58.234c0,12.588-10.205,22.793-22.793,22.793
	s-22.793-10.205-22.793-22.793c0-20.299-16.501-37.13-36.784-37.518c-9.782-0.197-19.206,3.622-26.448,10.727
	c-7.51,7.368-11.817,17.567-11.817,27.982V375.5c0,26.734,10.41,51.867,29.314,70.771c8.901,8.901,8.901,23.333,0,32.234
	C70.45,482.955,64.617,485.18,58.783,485.18z"/>
<path style="fill:#F28B74;" d="M402.133,141.548c-60.678,0-109.867,49.189-109.867,109.867c0,66.474-55.217,95.04-102.639,47.619
	c-21.298-21.298-55.828-21.298-77.125,0c-21.298,21.298-21.298,55.828,0,77.125c36.423,36.423,88.85,87.662,175.554,87.662
	C393.806,463.822,512,387.307,512,251.415C512,190.737,462.811,141.548,402.133,141.548z"/>
<g>
	
		<ellipse transform="matrix(-0.3333 -0.9428 0.9428 -0.3333 162.2423 721.0276)" style="fill:#FFFFFF;" cx="336.051" cy="303.151" rx="18.287" ry="22.963"/>
	
		<ellipse transform="matrix(0.3333 0.9428 -0.9428 0.3333 549.0003 -253.0203)" style="fill:#FFFFFF;" cx="453.407" cy="261.68" rx="18.287" ry="22.963"/>
</g>
<g>
	<path style="fill:#495059;" d="M332.479,289.024c-3.09,0-5.983-1.924-7.071-5.002l-3.285-9.293c-1.38-3.905,0.667-8.19,4.572-9.571
		c3.907-1.38,8.19,0.667,9.571,4.572l3.285,9.293c1.38,3.905-0.667,8.191-4.572,9.571
		C334.152,288.886,333.308,289.024,332.479,289.024z"/>
	
		<ellipse transform="matrix(-0.3333 -0.9428 0.9428 -0.3333 266.2784 726.6132)" style="fill:#495059;" cx="390.043" cy="269.16" rx="20.717" ry="18.514"/>
	<path style="fill:#495059;" d="M442.591,250.099c-3.09,0-5.983-1.923-7.071-5.002l-3.285-9.293c-1.38-3.905,0.667-8.19,4.572-9.571
		s8.19,0.666,9.571,4.572l3.285,9.293c1.38,3.905-0.667,8.19-4.572,9.571C444.265,249.96,443.42,250.099,442.591,250.099z"/>
</g>
<path style="opacity:0.05;enable-background:new    ;" d="M294.371,425.823c-121.962,0-157.31-96.552-152.979-141.89
	c-10.582,1.897-20.713,6.922-28.891,15.1c-21.298,21.298-21.298,55.828,0,77.125c36.423,36.423,88.85,87.662,175.554,87.662
	c86.923,0,182.236-51.705,213.426-145.578C470.161,364.936,407.062,425.823,294.371,425.823z"/>
<path style="fill:#F5D7B7;" d="M344.367,427.833c7.738-2.194,13.994-8.206,16.033-15.987c5.738-21.903-21.57-49.081-80.324-51.325
	c-40.878-1.561-62.897,13.447-71.374,28.923c-6.696,12.224-0.975,27.494,11.873,32.898c19.503,8.205,41.766,13.425,67.481,13.425
	C307.016,435.767,326.038,433.028,344.367,427.833z"/>
<path style="fill:#38648C;" d="M220.574,422.342c19.503,8.205,41.766,13.425,67.481,13.425c17.928,0,35.909-2.452,53.308-7.11
	c-3.283-9.452-10.943-16.856-20.57-19.754c-3.32-0.999-6.063-3.265-7.658-6.343c-5.22-10.076-15.742-16.962-27.873-16.962
	c-11.703,0-21.904,6.41-27.295,15.909c-1.933,3.405-5.929,5.19-9.74,4.293c-2.972-0.7-6.107-0.977-9.341-0.76
	c-9.951,0.667-18.68,6.083-23.95,13.966C216.616,420.337,218.501,421.47,220.574,422.342z"/>
<g>
</g>
<g>
</g>
<g>
</g>
<g>
</g>
<g>
</g>
<g>
</g>
<g>
</g>
<g>
</g>
<g>
</g>
<g>
</g>
<g>
</g>
<g>
</g>
<g>
</g>
<g>
</g>
<g>
</g>
</svg>
