<svg height="512" viewBox="0 0 64 64" width="512" xmlns="http://www.w3.org/2000/svg"><g id="flat"><path d="m47.111 22c-4-5-3-19-3-19h-24.222s1 14-3 19-13.889 7-13.889 7v32h58v-32s-9.889-2-13.889-7z" fill="#ffd782"/><path d="m38 23h-2l-1 4a3.366 3.366 0 0 1 -3 2 3.366 3.366 0 0 1 -3-2l-1-4h-2v38h12z" fill="#f4f4e6"/><path d="m34 13-2 4-2-4a4.333 4.333 0 0 0 -4-2c-3 0-2 2-2 2l2 4v6h12v-6l2-4s1-2-2-2a4.333 4.333 0 0 0 -4 2z" fill="#fff"/><path d="m38 31a2 2 0 0 1 -2 2h-8a2 2 0 0 1 -2-2v-2a3.205 3.205 0 0 0 -3.488-1.961 3.033 3.033 0 0 0 -2.1 1.5 2.784 2.784 0 0 0 -.226 2.475c-.064 0-.125-.019-.19-.019a3 3 0 0 0 -1.655 5.5 3 3 0 0 0 1.659 5.505 3 3 0 0 0 3 3 3.225 3.225 0 0 0 3-2v-2a2 2 0 0 1 2-2h8a2 2 0 0 1 2 2v2a3.225 3.225 0 0 0 3 2 3 3 0 0 0 3-3 3 3 0 0 0 1.655-5.5 13.887 13.887 0 0 0 .345-3.5 1.759 1.759 0 0 0 -2-2c-.065 0-.126.015-.19.019a2.784 2.784 0 0 0 -.226-2.475 3.033 3.033 0 0 0 -2.1-1.5 3.205 3.205 0 0 0 -3.484 1.956z" fill="#db527d"/><g fill="#9b1e5a"><path d="m18 34h-2a4 4 0 0 1 7.772-1.333l-1.886.666a2 2 0 0 0 -3.886.667z"/><path d="m23 46a4 4 0 0 1 0-8v2a2 2 0 0 0 0 4z"/><path d="m44 43a4.006 4.006 0 0 1 -2.981-1.333l1.49-1.334a2 2 0 0 0 3.491-1.333h2a4 4 0 0 1 -4 4z"/><path d="m42.981 38a4.006 4.006 0 0 1 -2.981-1.333l1.49-1.334a2 2 0 1 0 1.491-3.333v-2a4 4 0 0 1 0 8z"/></g><path d="m26 44h12v4h-12z" fill="#d3d2ba"/><path d="m26 52h12v4h-12z" fill="#d3d2ba"/></g></svg>