<svg height="512" viewBox="0 0 60 60" width="512" xmlns="http://www.w3.org/2000/svg"><g id="001---System-Prefs"><path id="Shape" d="m58.438 25.854-4.42-.986c-.3514045-.0706075-.6336852-.3320357-.731-.677-.5757809-2.310582-1.4925055-4.5225171-2.72-6.563-.1715363-.3043347-.1576231-.6792176.036-.97l2.437-3.825c.5087143-.7902579.3948567-1.8287397-.273-2.49l-3.11-3.11c-.6612603-.66785665-1.6997421-.7817143-2.49-.273l-3.825 2.44c-.2907824.19362315-.6656653.20753633-.97.036-2.0404829-1.22749447-4.252418-2.14421907-6.563-2.72-.3452397-.0974786-.6067297-.38021229-.677-.732l-.986-4.422c-.1990599-.9144807-1.0101113-1.56548907-1.946-1.562h-4.4c-.936745-.00414343-1.7490173.64684143-1.949 1.562l-.986 4.42c-.0706075.35140449-.3320357.63368521-.677.731-2.310582.57578093-4.5225171 1.49250553-6.563 2.72-.304221.17200412-.6793656.15808122-.97-.036l-3.831-2.44c-.7863785-.50754796-1.8208528-.39446102-2.479.271l-3.12 3.12c-.66525319.6586531-.77830429 1.6932166-.271 2.48l2.44 3.83c.19362315.2907824.20753633.6656653.036.97-1.22749447 2.0404829-2.14421907 4.252418-2.72 6.563-.0974786.3452397-.38021229.6067297-.732.677l-4.422.986c-.91209483.2014976-1.56010126 1.0119221-1.556 1.946v4.4c-.00379433.9349825.64571223 1.74572 1.559 1.946l4.423.986c.35140449.0706075.63368521.3320357.731.677.57578093 2.310582 1.49250553 4.5225171 2.72 6.563.17153633.3043347.15762315.6792176-.036.97l-2.437 3.825c-.5087143.7902579-.39485665 1.8287397.273 2.49l3.11 3.11c.661613.6671258 1.6995562.7809244 2.49.273l3.825-2.44c.2907824-.1936231.6656653-.2075363.97-.036 2.0404829 1.2274945 4.252418 2.1442191 6.563 2.72.3452397.0974786.6067297.3802123.677.732l.986 4.419c.1985265.9152479 1.0094715 1.5674211 1.946 1.565h4.4c.936745.0041434 1.7490173-.6468414 1.949-1.562l.986-4.438c.278-1.247 2.068-.394 7.031-3.338l5.553 5.549c1.5007334 1.585867 3.7444866 2.2313203 5.8584949 1.6852946 2.1140082-.5460258 3.7645335-2.1973296 4.3095623-4.3115951.5450287-2.1142656-.1014827-4.3577141-1.6880572-5.8576995l-5.546-5.544c2.979-5.032 2.1-6.771 3.349-7.05l4.439-.989c.9125525-.2001223 1.5618502-1.0097662 1.559-1.944v-4.4c.0027262-.9356218-.6479449-1.746253-1.562-1.946zm-2.48 26.117c-.0011514 1.6164488-.9750944 3.0733271-2.4683446 3.6922875-1.4932501.6189604-3.2122703.2783302-4.3566554-.8632875-15.9-15.89-15.147-15.3-15.71-15.32-.0710131.0000213-.1417961.0080724-.211.024-.0469976.0018712-.0937921.0072192-.14.016-3.2806774 1.0656028-6.8789929.3630093-9.5178566-1.8584208-2.6388638-2.2214302-3.9447353-5.6472457-3.4541434-9.0615792l5.516 5.507c.2411283.2407088.5882206.3420854.921.269l5.79-1.27c.3805638-.0835567.6779436-.3805463.762-.761l1.281-5.8c.0731931-.3332699-.0285951-.6808575-.27-.922l-5.51-5.51c3.4158394-.4851556 6.8405038.8247529 9.0606576 3.4656338 2.2201539 2.6408809 2.9221751 6.2396797 1.8573424 9.5213662-.272.844-.406.37 15.278 16.041.753413.7486367 1.1755211 1.7678909 1.172 2.83zm-11.236-15.714-3.14-3.139c1.1350004-4.2456892-.1416753-8.7721821-3.3278788-11.7990963-3.1862036-3.0269141-7.7721687-4.0699685-11.9541212-2.7189037-.3311421.1070869-.5827912.378638-.6644125.7169584-.0816213.3383203.0185261.6947439.2644125.9410416l6.4 6.392-1.024 4.64-4.636 1.016-6.4-6.393c-.2462977-.2458864-.6027213-.3460338-.9410416-.2644125-.3383204.0816213-.6098715.3332704-.7169584.6644125-1.3569927 4.1794187-.318015 8.7663262 2.7074826 11.9530696 3.0254976 3.1867435 7.5523293 4.4622787 11.7965174 3.3239304l3.144 3.142c-7.0536273 2.9829256-15.2319142.5492234-19.5070096-5.804914-4.2750955-6.3541374-3.44804-14.8466789 1.9727087-20.256576 5.4207488-5.409897 13.9149306-6.2199327 20.2604884-1.9321128 6.3455578 4.2878198 8.7628668 12.4709671 5.7658125 19.5186028zm8.845-3.074c-1.1067285.2535869-1.9739908 1.1127114-2.238 2.217-.4709894 1.8645373-1.1868822 3.6584725-2.129 5.335l-2.968-2.967c3.7888918-7.90525 1.3317949-17.3904145-5.8186636-22.4618661s-16.9145609-4.2541538-23.1224202 1.9354472c-6.2078594 6.189601-7.0539139 15.9512537-2.003546 23.1166191 5.0503679 7.1653655 14.5282539 9.6503903 22.4446298 5.8847998 1.87 1.865 1.186 1.183 2.976 2.971-1.6681686.9363141-3.4530295 1.6475011-5.308 2.115-1.1037513.2639659-1.962456 1.1308081-2.216 2.237l-.984 4.434h-4.394l-.986-4.418c-.2381218-1.0891351-1.0666923-1.9528571-2.145-2.236-2.1179142-.5274473-4.1452469-1.3680405-6.015-2.494-.9558622-.5594665-2.1448389-.5351228-3.077.063l-3.826 2.437-3.11-3.111 2.437-3.825c.5985818-.9320214.6229308-2.1212587.063-3.077-1.1259595-1.8697531-1.96655266-3.8970858-2.494-6.015-.28346725-1.0779205-1.14712726-1.9060453-2.236-2.144l-4.417-.98v-4.393l4.42-.987c1.08913511-.2381218 1.95285713-1.0666923 2.236-2.145.52744734-2.1179142 1.3680405-4.1452469 2.494-6.015.5599308-.9557413.5355818-2.1449786-.063-3.077l-2.445-3.821 3.11-3.119 3.831 2.441c.9318813.5990415 2.1213798.6233959 3.077.063 1.8697531-1.1259595 3.8970858-1.96655266 6.015-2.494 1.0783077-.28314287 1.9068782-1.14686489 2.145-2.236l.98-4.417h4.39l.987 4.42c.2381218 1.08913511 1.0666923 1.95285713 2.145 2.236 2.1179142.52744734 4.1452469 1.3680405 6.015 2.494.9556202.5603959 2.1451187.5360415 3.077-.063l3.826-2.437 3.11 3.111-2.437 3.825c-.5985818.9320214-.6229308 2.1212587-.063 3.077 1.1259595 1.8697531 1.9665527 3.8970858 2.494 6.015.2831429 1.0783077 1.1468649 1.9068782 2.236 2.145l4.42.977v4.39z"/><path id="Shape" d="m31 7h-2c-.5522847 0-1 .44771525-1 1s.4477153 1 1 1h2c.5522847 0 1-.44771525 1-1s-.4477153-1-1-1z"/><path id="Shape" d="m29 53h2c.5522847 0 1-.4477153 1-1s-.4477153-1-1-1h-2c-.5522847 0-1 .4477153-1 1s.4477153 1 1 1z"/><path id="Shape" d="m14.444 13.029-1.415 1.415c-.3789722.3923789-.3735524 1.0160848.0121814 1.4018186s1.0094397.3911536 1.4018186.0121814l1.415-1.415c.3789722-.3923789.3735524-1.0160848-.0121814-1.4018186s-1.0094397-.3911536-1.4018186-.0121814z"/><path id="Shape" d="m8 28c-.55228475 0-1 .4477153-1 1v2c0 .5522847.44771525 1 1 1s1-.4477153 1-1v-2c0-.5522847-.44771525-1-1-1z"/><path id="Shape" d="m52 28c-.5522847 0-1 .4477153-1 1v2c0 .5522847.4477153 1 1 1s1-.4477153 1-1v-2c0-.5522847-.4477153-1-1-1z"/><path id="Shape" d="m14.444 46.971c.3923789.3789722 1.0160848.3735524 1.4018186-.0121814s.3911536-1.0094397.0121814-1.4018186l-1.415-1.415c-.3923789-.3789722-1.0160848-.3735524-1.4018186.0121814s-.3911536 1.0094397-.0121814 1.4018186z"/><path id="Shape" d="m45.556 13.029c-.3923789-.3789722-1.0160848-.3735524-1.4018186.0121814s-.3911536 1.0094397-.0121814 1.4018186c1.538 1.538 1.595 1.708 2.122 1.708.4043959-.0000863.7689341-.2437275.923678-.6173454.1547439-.373618.0692299-.8036603-.216678-1.0896546z"/><path id="Shape" d="m52 55c1.6568542 0 3-1.3431458 3-3s-1.3431458-3-3-3-3 1.3431458-3 3 1.3431458 3 3 3zm0-4c.5522847 0 1 .4477153 1 1s-.4477153 1-1 1-1-.4477153-1-1 .4477153-1 1-1z"/><path id="Shape" d="m37.707 36.293c-.3923789-.3789722-1.0160848-.3735524-1.4018186.0121814s-.3911536 1.0094397-.0121814 1.4018186l11 11c.2510745.2599566.6228779.3642126.9725073.2726972.3496295-.0915155.6226744-.3645604.7141899-.7141899.0915154-.3496294-.0127406-.7214328-.2726972-.9725073z"/></g></svg>