<svg id="Layer_1" enable-background="new 0 0 256 256" height="512" viewBox="0 0 256 256" width="512" xmlns="http://www.w3.org/2000/svg"><g><circle cx="128.005" cy="163.84" fill="#4671c6" r="88.289"/><path d="m215.264 177.363c-.555-.127-1.13-.201-1.723-.201h-25.336c-4.257 0-7.708 3.451-7.708 7.708s-3.451 7.708-7.708 7.708c-13.588 0-12.852 22.375 1.454 22.375h25.759c7.783-10.943 13.132-23.736 15.262-37.59z" fill="#6bdddd"/><path d="m128.005 75.552c-19.51 0-37.539 6.333-52.152 17.049v6.894c0 3.759 3.047 6.806 6.806 6.806h33.18c3.759 0 6.806 3.047 6.806 6.806v9.536c0 3.759 3.047 6.806 6.806 6.806h14.888c3.759 0 6.806 3.047 6.806 6.806v6.593c0 6.226 5.047 11.273 11.273 11.273h19.935c3.759 0 6.806-3.047 6.806-6.806s3.047-6.806 6.806-6.806h17.205c-10.231-37.437-44.481-64.957-85.165-64.957z" fill="#6bdddd"/><path d="m127.937 235.087h-23.912c-3.734 0-6.761-3.027-6.761-6.761 0-3.769 3.082-6.811 6.851-6.76l7.567.101c3.769.05 6.851-2.991 6.851-6.76v-18.717c0-3.734-3.027-6.761-6.761-6.761h-3.21c-3.734 0-6.761-3.027-6.761-6.761v-4.912c0-3.734-3.027-6.761-6.761-6.761h-13.398c-3.734 0-6.761-3.027-6.761-6.761v-6.046c0-3.734-3.027-6.761-6.761-6.761h-27.531c-.571 4.056-.873 8.199-.873 12.412 0 48.761 39.528 88.289 88.289 88.289 2.252 0 4.483-.086 6.693-.251v-10.03c0-3.733-3.027-6.76-6.761-6.76z" fill="#6bdddd"/><g fill="#f9a7a7"><circle cx="147.473" cy="97.706" r="5.327"/><circle cx="135.943" cy="116.206" r="5.327"/><circle cx="171.693" cy="103.033" r="5.327"/><circle cx="166.02" cy="137.033" r="5.327"/><circle cx="97.77" cy="93.533" r="5.327"/><circle cx="179.455" cy="121.206" r="5.327"/><circle cx="158.128" cy="116.206" r="5.327"/><circle cx="194.479" cy="130.033" r="5.327"/></g><path d="m131.455 73.624c-20.117-.759-40.049 5.091-56.785 17.365-.087.063-.159.142-.233.217-19.026 14.069-32.35 35.423-35.82 59.906-.002.013-.007.024-.009.037-.01.068-.016.136-.025.204-7.768 55.908 37.093 105.032 93.207 102.691 28.206-1.173 53.609-15.395 69.598-37.664.087-.084.173-.168.244-.269 10.369-14.58 16.66-32.734 16.66-52.271.002-48.327-38.24-88.3-86.837-90.216zm-53.602 20.066c15.69-11.249 34.592-16.94 54.169-16.036 35.098 1.635 65.209 24.438 76.996 56.468.015.042.031.083.047.124.514 1.404.987 2.827 1.429 4.264h-14.527c-4.855 0-8.806 3.95-8.806 8.806 0 2.65-2.156 4.807-4.807 4.807h-19.936c-5.113 0-9.272-4.159-9.272-9.272v-6.594c0-4.856-3.95-8.807-8.806-8.807h-14.889c-2.65 0-4.807-2.156-4.807-4.806v-9.536c0-4.856-3.95-8.807-8.806-8.807h-33.178c-2.65 0-4.807-2.156-4.807-4.806zm54.845 156.307c-52.486 3.118-96.869-42.451-90.331-96.569h25.754c2.625 0 4.761 2.136 4.761 4.761v6.046c0 4.831 3.93 8.761 8.761 8.761h13.398c2.625 0 4.761 2.136 4.761 4.762v4.911c0 4.831 3.93 8.761 8.761 8.761h3.211c2.625 0 4.761 2.136 4.761 4.761v18.717c0 1.283-.503 2.487-1.417 3.389-.898.887-2.083 1.373-3.343 1.373-.021 0-.043-.001-.065-.001l-7.567-.102c-4.958-.021-8.877 3.904-8.877 8.761 0 4.831 3.93 8.761 8.761 8.761h23.912c2.625 0 4.761 2.136 4.761 4.761v8.147zm66.198-37.045h-24.651c-6.323 0-9.203-5.104-9.203-9.846 0-2.335.698-4.467 1.968-6.003 1.386-1.676 3.331-2.526 5.781-2.526 5.353 0 9.707-4.354 9.707-9.707 0-3.147 2.561-5.708 5.708-5.708h24.698c-2.213 12.292-6.878 23.529-14.008 33.79zm14.631-37.79h-25.321c-5.353 0-9.708 4.355-9.708 9.708 0 3.146-2.561 5.707-5.707 5.707-3.647 0-6.713 1.376-8.864 3.979-1.86 2.251-2.885 5.288-2.885 8.551 0 6.881 4.535 13.846 13.203 13.846h21.691c-14.126 18.027-35.238 30.327-59.238 32.739v-7.844c0-4.831-3.93-8.761-8.761-8.761h-23.912c-2.625 0-4.761-2.136-4.761-4.761 0-2.652 2.151-4.762 4.759-4.762.021 0 .043.001.065.001l7.567.102c2.362-.011 4.59-.865 6.271-2.525 1.682-1.658 2.607-3.873 2.607-6.235v-18.717c0-4.831-3.93-8.761-8.761-8.761h-3.211c-2.625 0-4.761-2.136-4.761-4.761v-4.911c0-4.831-3.93-8.762-8.761-8.762h-13.397c-2.625 0-4.761-2.136-4.761-4.761v-6.046c0-4.831-3.93-8.761-8.761-8.761h-25.177c3.576-21.17 14.879-39.74 30.91-52.701v2.768c0 4.855 3.95 8.806 8.807 8.806h33.18c2.649 0 4.806 2.156 4.806 4.807v9.536c0 4.855 3.95 8.806 8.807 8.806h14.889c2.649 0 4.806 2.156 4.806 4.807v6.594c0 7.318 5.954 13.272 13.272 13.272h19.936c4.856 0 8.807-3.95 8.807-8.807 0-2.649 2.156-4.806 4.806-4.806h15.654c1.742 6.825 2.673 13.97 2.673 21.33-.002 3.841-.28 7.615-.769 11.323z" fill="#3762cc"/><path d="m127.954 3.876c-21.735 0-39.354 17.619-39.354 39.354 0 18.501 12.77 34.011 29.973 38.22l7.551 13.41c.803 1.425 2.855 1.425 3.658 0l7.551-13.41c17.204-4.209 29.973-19.719 29.973-38.22.001-21.735-17.618-39.354-39.352-39.354z" fill="#e0ebfc"/><g><path d="m154.767 38.969c-1.066 0-1.933.816-2.034 1.857h-3.223c-.418-4.438-2.172-8.488-4.86-11.738l2.278-2.278c.378.311.836.476 1.299.476.525 0 1.051-.201 1.452-.601.802-.802.802-2.102 0-2.904l-1.312-1.313-1.312-1.312c-.802-.802-2.102-.802-2.904 0-.754.754-.79 1.944-.126 2.751l-2.278 2.278c-3.251-2.688-7.3-4.442-11.738-4.86v-3.223c1.04-.101 1.856-.967 1.856-2.034 0-1.134-.919-2.053-2.053-2.053h-3.713c-1.134 0-2.053.919-2.053 2.053 0 1.067.816 1.933 1.857 2.034v3.223c-4.438.418-8.488 2.172-11.738 4.86l-2.278-2.278c.664-.807.629-1.996-.125-2.75-.802-.802-2.102-.802-2.904 0l-1.312 1.312s0 0-.001.001c0 0 0 0-.001.001l-1.312 1.312c-.802.802-.802 2.102 0 2.904.401.401.926.602 1.452.602.463 0 .921-.165 1.299-.476l2.278 2.278c-2.688 3.251-4.442 7.3-4.86 11.738h-3.223c-.101-1.04-.967-1.857-2.034-1.857-1.134 0-2.053.919-2.053 2.053v3.713c0 1.134.919 2.053 2.053 2.053 1.067 0 1.933-.816 2.034-1.857h3.223c.418 4.438 2.172 8.488 4.86 11.738l-2.278 2.278c-.806-.665-1.997-.629-2.751.125-.802.802-.802 2.102 0 2.904l1.312 1.312s0 0 .001.001c0 0 0 0 .001.001l1.312 1.312c.401.401.927.601 1.452.601s1.051-.201 1.452-.601c.754-.754.79-1.944.125-2.75l2.278-2.278c3.251 2.688 7.3 4.442 11.738 4.86v3.223c-1.04.101-1.857.967-1.857 2.034 0 1.134.919 2.053 2.053 2.053h3.713c1.134 0 2.053-.919 2.053-2.053 0-1.067-.816-1.933-1.856-2.034v-3.223c4.438-.418 8.488-2.172 11.738-4.86l2.278 2.278c-.664.807-.629 1.997.126 2.751.401.401.927.601 1.452.601s1.051-.201 1.452-.601l1.312-1.312 1.312-1.313c.802-.802.802-2.102 0-2.904-.754-.754-1.944-.79-2.751-.125l-2.278-2.278c2.688-3.251 4.442-7.3 4.86-11.738h3.223c.101 1.04.967 1.857 2.034 1.857 1.134 0 2.054-.919 2.054-2.053v-3.713c-.001-1.139-.921-2.058-2.054-2.058z" fill="#4671c6"/><circle cx="127.954" cy="42.879" fill="#e0ebfc" r="16.499"/><circle cx="127.954" cy="42.879" fill="#6bdddd" r="14.193"/><g fill="#e0ebfc"><circle cx="127.954" cy="35.616" r="4.481"/><circle cx="127.954" cy="50.142" r="3.809"/><circle cx="135.943" cy="42.879" r="3.809"/><circle cx="119.965" cy="42.879" r="4.044"/></g></g><g><path d="m127.954 97.928c-1.478 0-2.847-.8-3.571-2.087l-7.132-12.666c-18.092-4.825-30.651-21.127-30.651-39.946 0-22.803 18.551-41.354 41.354-41.354s41.354 18.551 41.354 41.354c0 18.818-12.559 35.12-30.65 39.945l-7.131 12.666c-.727 1.288-2.096 2.088-3.573 2.088zm0-92.052c-20.597 0-37.354 16.757-37.354 37.354 0 17.263 11.698 32.18 28.449 36.277.537.131.996.479 1.268.961l7.551 13.41c.027.049.144.049.173 0l7.55-13.41c.271-.481.73-.83 1.268-.961 16.751-4.098 28.449-19.015 28.449-36.277-.001-20.597-16.758-37.354-37.354-37.354z" fill="#3762cc"/></g></g></svg>