<?xml version="1.0" encoding="iso-8859-1"?>
<!-- Generator: Adobe Illustrator 19.0.0, SVG Export Plug-In . SVG Version: 6.00 Build 0)  -->
<svg version="1.1" id="Layer_1" xmlns="http://www.w3.org/2000/svg" xmlns:xlink="http://www.w3.org/1999/xlink" x="0px" y="0px"
	 viewBox="0 0 512 512" style="enable-background:new 0 0 512 512;" xml:space="preserve">
<circle style="fill:#0F7986;" cx="256" cy="256" r="256"/>
<path style="fill:#FED298;" d="M301.384,507.986c25.528-30.188,27.154-77.761,35.879-145.362c6.521,3.681,20.433,8.101,28.337,5.201
	c7.903-2.896,20.152-15.99,22.918-26.387c2.804-6.356-2.185-42.65,9.797-52.76c26.89-22.697,21.306-105.238-0.443-117.533
	c-23.472-13.27-43.643,2.392-46.063,15.357c4.956-35.181,6.609-98.87-28.817-161.883c-3.705-6.586-7.889-12.85-12.513-18.789
	C292.923,2.023,274.701,0,256.005,0c-141.386,0-256,114.615-256,256s114.614,256,256,256c15.487,0,30.655-1.376,45.384-4.009
	L301.384,507.986z"/>
<path style="fill:#E8B57F;" d="M395.168,239.137c-12.623,28.04,10.323-39.73-19.953-46.599
	C386.877,172.193,405.375,213.262,395.168,239.137z"/>
<path style="fill:#828282;" d="M208.81,185.906c38.751,13.815,49.199,21.233,49.199,21.233s-41.112-15.163-58.968-13.14
	c-17.861,2.023-112.883,40.437-112.883,40.437c-9.621-22.452,95.78-58.109,122.656-48.525L208.81,185.906z"/>
<path style="fill:#E8B57F;" d="M339.064,349.364c0,0,7.377,19.241,28.244,17.713c-0.587,0.295-1.215,0.439-1.714,0.753
	c-8.96,5.658-29.685-2.822-30.821-7.547c-1.169-4.872,4.287-10.914,4.287-10.914L339.064,349.364z"/>
<path style="fill:#FFE5BA;" d="M397.87,171.14c-26.946-18.299-43.638,3.779-46.063,15.357c-3.468,16.577-1.473,28.632,5.681,40.373
	C357.488,226.87,357.714,164.705,397.87,171.14z"/>
<path style="fill:#FFFFFF;" d="M98.717,289.786c43.799-62.654,113.118-65.795,162.401-7.353
	C213.069,330.423,143.617,333.105,98.717,289.786z"/>
<g>
	<path style="fill:#E8B57F;" d="M98.717,289.786c71.254-101.737,148.526-11.038,162.401-7.353
		C261.118,282.433,170.008,171.319,98.717,289.786z"/>
	<path style="fill:#E8B57F;" d="M98.717,289.786c78.953,68.27,148.863-3.593,162.401-7.353
		C261.118,282.433,179.009,370.195,98.717,289.786z"/>
</g>
<path style="fill:#FFFFFF;" d="M273.376,59.725h146.96c20.203,16.932,37.749,36.918,51.934,59.259H307.679
	c-4.573,0-8.314,3.742-8.314,8.314v63.416h-61.859V95.59c0-19.726,16.138-35.865,35.865-35.865H273.376z M296.922,82.93h133.487
	v14.346H310.022L296.922,82.93z M265.986,115.991L265.986,115.991c4.254,0,7.737,3.478,7.737,7.737v52.146H258.25v-52.146
	C258.25,119.474,261.727,115.991,265.986,115.991z"/>
<g>
	<path style="fill:#EEF3F7;" d="M305.425,114.033h163.62c1.095,1.635,2.166,3.289,3.224,4.951H307.679
		c-4.573,0-8.314,3.742-8.314,8.314v63.416h-5.094v-65.531c0-6.134,5.016-11.149,11.15-11.149h0.004V114.033z"/>
	<circle style="fill:#EEF3F7;" cx="273.725" cy="294.385" r="130.954"/>
</g>
<circle style="fill:#FFFFFF;" cx="273.725" cy="294.385" r="123.239"/>
<circle style="fill:#EEF3F7;" cx="273.725" cy="294.385" r="91.771"/>
<circle style="fill:#FED298;" cx="273.725" cy="294.385" r="86.192"/>
<path style="fill:#C8CACC;" d="M307.485,404.909l-5.607-17.246l3.884-1.266l5.607,17.246L307.485,404.909z M207.457,199.706
	l10.66,14.669l-3.303,2.401l-10.66-14.669L207.457,199.706z M271.68,409.929l-0.005-18.134h4.083l0.005,18.134H271.68z
	 M236.075,403.644l5.603-17.246l3.884,1.261l-5.603,17.246L236.075,403.644z M204.154,386.661l10.655-14.669l3.303,2.397
	l-10.655,14.674L204.154,386.661z M179.042,360.648l14.669-10.66l2.401,3.303l-14.669,10.66L179.042,360.648z M163.199,328.145
	l17.246-5.607l1.266,3.884l-17.246,5.607L163.199,328.145z M158.174,292.34h18.134v4.083l-18.134,0.005v-4.083V292.34z
	 M164.461,256.735l17.246,5.602l-1.261,3.884l-17.246-5.602L164.461,256.735z M181.444,224.814l14.669,10.66l-2.397,3.303
	l-14.673-10.66L181.444,224.814z M389.27,296.423l-18.134,0.005v-4.083l18.134-0.005V296.423z M239.959,183.86l5.603,17.246
	l-3.884,1.261l-5.603-17.246L239.959,183.86z M275.763,178.834v18.134h-4.083v-18.134H275.763z M311.37,185.12l-5.602,17.246
	l-3.884-1.261l5.602-17.246L311.37,185.12z M343.29,202.103l-10.66,14.673l-3.303-2.401l10.655-14.673l3.303,2.401H343.29z
	 M368.402,228.116l-14.669,10.66l-2.401-3.303l14.669-10.66L368.402,228.116z M384.245,260.619l-17.246,5.607l-1.261-3.884
	l17.246-5.607l1.266,3.884H384.245z M382.984,332.03l-17.246-5.603l1.261-3.884l17.246,5.603L382.984,332.03z M366.001,363.95
	l-14.674-10.655l2.397-3.303l14.674,10.655l-2.401,3.303H366.001z M339.988,389.062l-10.66-14.669l3.303-2.401l10.66,14.669
	L339.988,389.062z"/>
<path style="fill:#FFFFFF;" d="M194.833,259.607c54.663-29.07,116.925-16.549,165.034,37.606c-0.264,8.097-1.64,15.916-3.986,23.297
	c-44.959,34.285-98.422,44.705-146.074,31.703c-13.847-15.293-22.28-35.579-22.28-57.832
	C187.527,282.008,190.141,270.244,194.833,259.607z"/>
<path style="fill:#21D0C3;" d="M295.259,251.672c6.535,8.66,10.416,19.44,10.416,31.121c0,28.558-23.149,51.707-51.707,51.707
	s-51.707-23.149-51.707-51.707c0-11.685,3.875-22.466,10.411-31.121C239.793,241.931,268.142,241.926,295.259,251.672z"/>
<path style="fill:#666666;" d="M253.968,263.999c10.379,0,18.794,8.416,18.794,18.798c0,10.379-8.416,18.793-18.794,18.793
	c-10.379,0-18.798-8.411-18.798-18.793C235.17,272.42,243.585,263.999,253.968,263.999z"/>
<g>
	<path style="fill:#FFFFFF;" d="M228.334,252.61c4.928,0,8.919,3.99,8.919,8.915c0,4.924-3.99,8.915-8.919,8.915
		c-4.923,0-8.915-3.99-8.915-8.915C219.419,256.6,223.41,252.61,228.334,252.61z"/>
	<path style="fill:#FFFFFF;" d="M269.51,292.294c3.353,0,6.069,2.716,6.069,6.069c0,3.353-2.716,6.069-6.069,6.069
		c-3.353,0-6.064-2.721-6.064-6.069C263.445,295.01,266.157,292.294,269.51,292.294z"/>
</g>
<g>
	<path style="fill:#F0BA7D;" d="M195.698,257.723c73.092-38.313,137.085,23.256,163.851,44.636c0.148-1.626,0.25-3.266,0.309-4.914
		c-23.934-26.4-88.671-86.011-158.557-49.809C199.217,250.855,197.347,254.226,195.698,257.723z"/>
	<path style="fill:#F0BA7D;" d="M208.385,350.606c65.873,18.124,122.739-19.819,149.002-35.426
		c-0.457,1.847-0.974,3.677-1.552,5.478c-24.613,18.881-79.239,52.691-139.782,37.791c-2.716-2.448-5.28-5.067-7.667-7.838v-0.006
		H208.385z"/>
</g>
<g>
</g>
<g>
</g>
<g>
</g>
<g>
</g>
<g>
</g>
<g>
</g>
<g>
</g>
<g>
</g>
<g>
</g>
<g>
</g>
<g>
</g>
<g>
</g>
<g>
</g>
<g>
</g>
<g>
</g>
</svg>
