<svg height="512" viewBox="0 0 512 512" width="512" xmlns="http://www.w3.org/2000/svg"><g id="Flat"><path d="m408 177.66c-.31006 126.76-35.76 205.53-72.3501 251.38q-3.8247 4.8-7.65991 9.13c-13.08008 14.78-26 25.49-37.21 32.81a63.70573 63.70573 0 0 1 -69.65015-.06 187.79154 187.79154 0 0 1 -37.11984-32.74q-3.82507-4.335-7.65991-9.13c-36.74023-46.04-72.35009-125.28-72.35009-253.05a151.27665 151.27665 0 0 1 24-82.01q3.75-5.835 8-11.29a151.74189 151.74189 0 0 1 120.66992-58.7c48.60008.22 91.68994 23.5 119.33008 59.35q4.24512 5.505 8 11.4a153.415 153.415 0 0 1 24 82.91z" fill="#8acce7"/><path d="m360 128a104 104 0 1 1 -104-104 103.488 103.488 0 0 1 104 104z" fill="#f4ceaf"/><path d="m408 177.66c-.31006 126.76-35.76 205.53-72.3501 251.38q-3.8247 4.8-7.65991 9.13c-13.08008 14.78-26 25.49-37.21 32.81a63.70573 63.70573 0 0 1 -69.65015-.06 187.79154 187.79154 0 0 1 -37.11984-32.74q-3.82507-4.335-7.65991-9.13a174.33345 174.33345 0 0 1 75.91991-133.15l54.46-37.04a158.08947 158.08947 0 0 0 69.27-130.86v-44.65q4.24512 5.505 8 11.4a153.415 153.415 0 0 1 24 82.91z" fill="#379ec3"/><path d="m345.93994 180.25a104.27644 104.27644 0 0 1 -56.53 46.27 39.99713 39.99713 0 0 1 56.53-46.27z" fill="#f2c194"/><path d="m360 216a32.004 32.004 0 0 1 -32 32 32.43012 32.43012 0 0 1 -6.35986-.63 32.01774 32.01774 0 1 1 38.35986-31.37z" fill="#f4ceaf"/><path d="m360 216a32.004 32.004 0 0 1 -32 32 32.43012 32.43012 0 0 1 -6.35986-.63 157.80105 157.80105 0 0 0 35.5498-44.5 31.77791 31.77791 0 0 1 2.81006 13.13z" fill="#f2c194"/><path d="m408 177.66c-.43994 180.93-72.48 264.08-117.22 293.32a63.70573 63.70573 0 0 1 -69.65015-.06 187.79154 187.79154 0 0 1 -37.11985-32.74 166.24109 166.24109 0 0 1 72.76-135.66l54.46-37.04a166.24861 166.24861 0 0 0 72.77-137.48v-33.25a153.415 153.415 0 0 1 24 82.91z" fill="#8acce7"/><path d="m335.6499 429.04q-3.8247 4.8-7.65991 9.13c-13.08008 14.78-26 25.49-37.21 32.81a63.70573 63.70573 0 0 1 -69.65015-.06 187.79154 187.79154 0 0 1 -37.11984-32.74c-39.28-44.39-80.01-125.53-80.01-262.18a151.27665 151.27665 0 0 1 24-82.01q3.75-5.835 8-11.29v45.3a158.08947 158.08947 0 0 0 69.27 130.86l54.46 37.04a174.35517 174.35517 0 0 1 75.9199 133.14z" fill="#379ec3"/><path d="m224 216a39.68953 39.68953 0 0 1 -1.40991 10.52 104.27644 104.27644 0 0 1 -56.53-46.27 39.99784 39.99784 0 0 1 57.93991 35.75z" fill="#f2c194"/><path d="m216 216a32.02432 32.02432 0 0 1 -25.64014 31.37 32.43012 32.43012 0 0 1 -6.35986.63 32 32 0 1 1 32-32z" fill="#f4ceaf"/><path d="m184 248a32.0141 32.0141 0 0 1 -29.18994-45.13 157.80105 157.80105 0 0 0 35.5498 44.5 32.43012 32.43012 0 0 1 -6.35986.63z" fill="#f2c194"/><path d="m327.99 438.17c-13.08008 14.78-26 25.49-37.21 32.81a63.70573 63.70573 0 0 1 -69.65015-.06 187.79154 187.79154 0 0 1 -37.11985-32.74c-39.28-44.39-80.01-125.53-80.01-262.18a151.27665 151.27665 0 0 1 24-82.01v34.01a166.24861 166.24861 0 0 0 72.77 137.48l54.46 37.04a166.24828 166.24828 0 0 1 72.76 135.65z" fill="#8acce7"/><g fill="#ad7d4d"><path d="m263.99805 88h-20a20 20 0 0 1 0-40h4a8 8 0 1 1 0 16h-4a4 4 0 0 0 0 8h20a8.00917 8.00917 0 0 0 8-8v-8a8.00917 8.00917 0 0 0 -8-8 8 8 0 1 1 0-16 24.02718 24.02718 0 0 1 24 24v8a24.02718 24.02718 0 0 1 -24 24z"/><path d="m215.99805 120a7.97413 7.97413 0 0 1 -5.65723-2.34326 14.62732 14.62732 0 0 0 -20.68652.00049 7.99984 7.99984 0 1 1 -11.3125-11.31446 30.62739 30.62739 0 0 1 43.31347.00049 8.00024 8.00024 0 0 1 -5.65722 13.65674z"/><path d="m327.99805 120a7.97413 7.97413 0 0 1 -5.65723-2.34326 14.62732 14.62732 0 0 0 -20.68652.00049 7.99984 7.99984 0 1 1 -11.3125-11.31446 30.62739 30.62739 0 0 1 43.31347.00049 8.00024 8.00024 0 0 1 -5.65722 13.65674z"/></g><path d="m247.999 135.99951a8.00024 8.00024 0 0 1 -5.65722-13.65625 19.31195 19.31195 0 0 1 27.31347-.00049 7.99983 7.99983 0 1 1 -11.31445 11.3125 3.31189 3.31189 0 0 0 -4.68359.00049 7.97892 7.97892 0 0 1 -5.65821 2.34375z" fill="#efae81"/><path d="m255.99805 171.8667a83.99473 83.99473 0 0 1 -26.5293-4.27734 7.99973 7.99973 0 1 1 5.05859-15.17872 68.31738 68.31738 0 0 0 42.94043 0 8 8 0 1 1 5.06055 15.17872 83.99624 83.99624 0 0 1 -26.53027 4.27734z" fill="#efae81"/></g></svg>