<svg id="Layer_1" enable-background="new 0 0 128 128" height="512" viewBox="0 0 128 128" width="512" xmlns="http://www.w3.org/2000/svg"><g><path d="m101.976 73.773-21.859-4.559-.46-2.795c-.873-5.288-.675-10.61.585-15.821l3.464-14.301c1.812-7.482.12-15.244-4.64-21.294s-11.907-9.521-19.605-9.521c-13.754 0-24.944 11.19-24.944 24.944v2.678l-4.383 13.407c-.364 1.113-.178 2.295.509 3.244s1.753 1.492 2.925 1.492h1.786c.169 0 .307.138.307.307v7.512c0 2.712 2.207 4.919 4.919 4.919h8.655c1.61 0 2.919 1.31 2.919 2.919v2.233l-22.139 4.631c-8.248 1.726-14.234 9.094-14.234 17.52v32.23c0 1.654 1.346 3 3 3h94.44c1.654 0 3-1.346 3-3v-32.223c-.001-8.431-5.992-15.8-14.245-17.522z" fill="#e6e7e8"/><g><path d="m75.241 66.053-.573-3.471c-.889-5.392-.685-10.907.601-16.219l3.463-14.302c3.649-15.069-7.768-29.579-23.272-29.579-13.224 0-23.944 10.72-23.944 23.944v2.837l-4.433 13.558c-.552 1.689.706 3.425 2.483 3.425h1.786c.722 0 1.306.585 1.306 1.306v7.512c0 2.164 1.755 3.919 3.919 3.919h8.655c2.165 0 3.919 1.755 3.919 3.919v3.046l-22.934 4.797c-7.83 1.638-13.439 8.541-13.439 16.541v32.23c0 1.105.895 2 2 2h94.44c1.105 0 2-.895 2-2v-32.221c0-8.003-5.614-14.909-13.449-16.543z" fill="#ffd7e5"/><g><path d="m55.357 5.482c12.427 0 22.261 9.035 24.041 20.248-.344-12.557-10.63-23.248-23.937-23.248-12.47 0-22.709 9.533-23.837 21.708 2.427-10.704 12.128-18.708 23.733-18.708z" fill="#fff"/></g><g><path d="m68.672 104.861c-2.11-11.527-.938-22.083 0-27.118.657-3.526 6.339-10.756 13.183-3.114 11.844 13.226 17.616 36.498 12.011 40.939-7.233 5.73-23.805-3.118-25.194-10.707z" fill="#6dc9f7"/><g><path d="m55.151 104.861c2.11-11.527.938-22.083 0-27.118-.657-3.526-6.339-10.756-13.183-3.114-11.844 13.226-17.616 36.498-12.011 40.939 7.233 5.73 23.805-3.118 25.194-10.707z" fill="#6dc9f7"/><path d="m28.647 38.041-1.563 4.781c-.552 1.689.706 3.425 2.483 3.425h1.786c.722 0 1.306.585 1.306 1.306v2.291h22.156c2.209 0 4 1.791 4 4v27.071c0 2.222-1.269 4.237-3.263 5.218-1.887.928-3.994 2.138-5.863 3.62-3.856 3.057-5.614 6.053-5.614 6.053s-2.562.336-4.737-.292c-2.457-.709-4.562-2.381-4.562-2.164 0 .205 1.725 2.465 3.918 3.598s4.854 1.139 4.854 1.139-2.018 11.492-1.053 11.931c.458.208 2.082-10.288 6.667-15.561 4.514-5.19 11.374-6.323 12.863-6.512 1.489.19 8.349 1.322 12.863 6.512 4.586 5.273 6.21 15.769 6.667 15.561.965-.439-1.053-11.931-1.053-11.931s2.661-.006 4.854-1.139 3.918-3.394 3.918-3.598c0-.217-2.105 1.455-4.562 2.164-2.175.628-4.737.292-4.737.292s-1.759-2.996-5.614-6.053c-1.936-1.536-4.129-2.779-6.067-3.72-2.008-.975-3.288-2.998-3.288-5.23v-34.762c0-4.418-3.582-8-8-8z" fill="#fa759e"/></g></g><g fill="#3a2c60"><path d="m97.976 69.773-21.859-4.559-.461-2.795c-.873-5.289-.675-10.612.586-15.821l3.463-14.301c1.812-7.482.121-15.244-4.639-21.294s-11.907-9.521-19.605-9.521c-13.754 0-24.945 11.19-24.945 24.944v2.678l-4.383 13.407c-.364 1.113-.178 2.295.509 3.244s1.753 1.492 2.925 1.492h1.786c.169 0 .307.138.307.307v7.512c0 2.712 2.207 4.919 4.919 4.919h8.655c1.61 0 2.919 1.31 2.919 2.919v2.233l-22.139 4.631c-8.248 1.726-14.234 9.094-14.234 17.52v32.23c0 1.654 1.346 3 3 3h45.47c.552 0 1-.448 1-1s-.448-1-1-1h-45.47c-.551 0-1-.449-1-1v-32.23c0-7.484 5.317-14.029 12.644-15.562l22.934-4.797c.463-.097.795-.506.795-.979v-3.045c0-2.712-2.207-4.919-4.919-4.919h-8.655c-1.609 0-2.919-1.31-2.919-2.919v-4.221h21.156c1.654 0 3 1.346 3 3v27.071c0 1.002-.314 1.942-.861 2.729-.266-2.835-.613-4.968-.821-6.084-.42-2.255-2.71-6.06-6.293-7.063-2.013-.563-5.139-.419-8.617 3.465-9.541 10.654-15.124 27.475-14.353 36.5.239 2.801 1.069 4.783 2.466 5.89 1.72 1.363 4 2.049 6.629 2.049 2.201 0 4.646-.481 7.215-1.447 5.75-2.163 12.045-6.95 12.954-11.913.984-5.374 1.241-10.481 1.173-14.858 2.158-.811 3.983-1.129 4.718-1.23.709.098 2.433.396 4.491 1.145-.073 4.395.181 9.532 1.171 14.942.909 4.963 7.204 9.75 12.954 11.913 2.569.966 5.015 1.447 7.216 1.447 2.629 0 4.909-.687 6.629-2.049 1.397-1.107 2.227-3.088 2.466-5.889.771-9.026-4.812-25.847-14.353-36.501-3.478-3.884-6.606-4.028-8.617-3.465-3.583 1.003-5.874 4.808-6.293 7.063-.205 1.102-.547 3.2-.812 5.986-.552-.789-.87-1.734-.87-2.743v-34.763c0-4.962-4.038-9-9-9h-26.982l2.441-7.467c.033-.1.049-.205.049-.311v-2.837c0-12.651 10.293-22.944 22.945-22.944 7.081 0 13.654 3.192 18.032 8.757s5.934 12.705 4.268 19.587l-3.463 14.301c-1.325 5.471-1.532 11.062-.616 16.617l.573 3.471c.067.408.378.732.783.816l22.53 4.699c7.332 1.529 12.653 8.075 12.653 15.564v32.222c0 .551-.449 1-1 1h-32.237c-.552 0-1 .448-1 1s.448 1 1 1h32.236c1.654 0 3-1.346 3-3v-32.221c0-8.431-5.99-15.8-14.244-17.522zm-43.808 34.907c-.672 3.675-5.698 8.147-11.69 10.401-4.966 1.868-9.302 1.759-11.898-.297-.935-.74-1.527-2.294-1.715-4.493-.72-8.433 4.791-24.879 13.85-34.996 1.813-2.025 3.61-3.044 5.358-3.044.413 0 .823.057 1.229.171 2.61.731 4.535 3.718 4.867 5.504.235 1.263.653 3.861.918 7.323-.999.492-1.931 1.008-2.816 1.537-.03-.016-1.191-.638-2.363-1.659 1.318-1.082 3.643-3.55 2.877-7.043-.118-.539-.648-.883-1.191-.762-.54.118-.881.651-.762 1.191.049.224.076.442.089.655l-1.041-.709c-.457-.311-1.078-.193-1.39.264-.311.457-.193 1.079.264 1.39l1.742 1.186c-.527 1.118-1.408 1.935-1.965 2.373-.613-.815-1.055-1.749-1.055-2.756 0-.552-.448-1-1-1s-1 .448-1 1c0 3.44 3.249 5.992 4.914 7.074-.462.322-.903.649-1.321.981-1.059.839-1.952 1.669-2.713 2.443-1.056-.85-3.06-2.856-3.06-5.834 0-.552-.448-1-1-1s-1 .448-1 1c0 1.204.248 2.27.623 3.207l-1.969.165c-.551.046-.959.53-.913 1.08.044.522.481.917.996.917.028 0 .056-.001.084-.003l2.846-.239c.685.975 1.447 1.705 2.037 2.187-.718.846-1.224 1.545-1.505 1.964-.782.058-2.448.11-3.88-.304-1.478-.427-2.829-1.238-3.636-1.723-.708-.425-1.135-.68-1.688-.367-.313.178-.516.526-.516.887 0 .726 1.434 2.344 2.98 3.527-.997.69-2.092 1.787-2.092 3.29 0 .552.448 1 1 1s1-.448 1-1c0-.857 1.209-1.704 2.043-2.124 1.326.589 2.716.859 3.667.966-.231 1.356-.419 2.55-.572 3.609-.979.709-4.268 2.713-8.837 1.471-.536-.146-1.083.169-1.227.703-.145.533.169 1.083.703 1.227.659.179 1.294.297 1.907.371-.161.749-.259 1.737-.027 2.74.107.462.519.774.973.774.075 0 .151-.008.227-.026.538-.125.873-.662.749-1.2-.191-.823-.033-1.671.118-2.21 2.135-.091 3.873-.715 5.088-1.33-.589 5.241.081 5.551.607 5.79.131.06.279.089.427.089.153 0 .306-.032.441-.095.554-.259.672-.688 1.24-2.749.066-.239.137-.497.212-.764.477.8 1.143 1.63 2.082 2.306.177.127.381.188.583.188.311 0 .617-.145.813-.416.322-.448.22-1.073-.228-1.396-1.653-1.189-2.206-3.108-2.346-3.725.849-2.639 2.029-5.654 3.655-8.007.093.951.257 2.048.535 3.142-.278 1.287-1.001 3.337-1.952 3.981-.458.31-.577.932-.268 1.389.193.286.508.439.829.439.193 0 .388-.056.56-.172.891-.603 1.534-1.662 1.981-2.692.395.67.872 1.256 1.458 1.685.178.13.385.193.59.193.308 0 .612-.142.808-.409.327-.445.23-1.071-.216-1.397-1.951-1.429-2.419-6.187-2.451-8.365 1.399-1.35 2.965-2.36 4.484-3.111.022 4.072-.255 8.741-1.151 13.637zm20.354-32.258c2.132-.596 4.347.371 6.587 2.874 9.06 10.117 14.57 26.564 13.85 34.997-.188 2.199-.781 3.752-1.715 4.492-2.596 2.056-6.934 2.165-11.898.297-5.992-2.254-11.018-6.726-11.69-10.401-.904-4.94-1.18-9.649-1.153-13.746 1.59.762 3.244 1.801 4.714 3.22-.03 2.176-.496 6.932-2.452 8.364-.446.326-.542.952-.216 1.397.196.268.5.409.808.409.205 0 .412-.063.59-.193.586-.429 1.063-1.015 1.458-1.686.447 1.03 1.09 2.089 1.982 2.693.172.116.367.172.56.172.321 0 .636-.154.829-.439.31-.457.19-1.079-.268-1.389-.951-.644-1.674-2.694-1.952-3.981.278-1.094.441-2.19.535-3.141 1.626 2.354 2.807 5.369 3.656 8.009-.136.616-.677 2.522-2.346 3.723-.448.323-.55.948-.228 1.396.196.271.502.416.813.416.202 0 .406-.061.583-.188.939-.676 1.606-1.506 2.082-2.306.074.266.145.523.211.762.568 2.062.687 2.491 1.24 2.75.265.124.602.127.868.005.526-.239 1.196-.549.607-5.79 1.215.615 2.953 1.239 5.088 1.33.151.539.308 1.389.118 2.21-.125.538.21 1.075.749 1.2.076.018.152.026.227.026.455 0 .866-.312.973-.774.232-1.003.134-1.991-.027-2.74.613-.074 1.248-.192 1.907-.371.533-.145.848-.694.703-1.227s-.692-.847-1.227-.703c-4.569 1.241-7.858-.761-8.837-1.471-.153-1.059-.341-2.253-.572-3.609.951-.107 2.342-.377 3.668-.967.834.417 2.041 1.26 2.041 2.125 0 .552.448 1 1 1s1-.448 1-1c0-1.503-1.094-2.6-2.092-3.29 1.547-1.183 2.981-2.801 2.981-3.526 0-.36-.202-.709-.516-.887-.552-.312-.979-.058-1.688.367-.807.485-2.158 1.296-3.636 1.723-1.433.414-3.097.361-3.88.304-.281-.42-.787-1.118-1.505-1.964.589-.482 1.351-1.213 2.037-2.187l2.846.239c.028.002.057.003.084.003.515 0 .952-.395.996-.917.046-.55-.362-1.034-.913-1.08l-1.969-.165c.375-.937.623-2.003.623-3.207 0-.552-.448-1-1-1s-1 .448-1 1c0 2.977-2.004 4.983-3.06 5.834-.76-.774-1.654-1.604-2.713-2.443-.419-.332-.861-.659-1.323-.981 1.665-1.082 4.915-3.634 4.915-7.075 0-.552-.448-1-1-1s-1 .448-1 1c0 1.007-.441 1.94-1.053 2.754-.554-.439-1.433-1.259-1.961-2.374l1.737-1.183c.457-.311.574-.933.264-1.39-.311-.456-.932-.574-1.39-.264l-1.041.709c.013-.213.04-.431.089-.655.119-.54-.223-1.073-.762-1.191-.538-.119-1.072.223-1.191.762-.767 3.493 1.559 5.961 2.877 7.044-1.169 1.018-2.325 1.64-2.362 1.659-.95-.568-1.958-1.119-3.039-1.645.265-3.408.678-5.964.911-7.214.333-1.787 2.258-4.774 4.868-5.505zm-17.515-33.381c3.86 0 7 3.14 7 7v34.762c0 2.627 1.476 4.977 3.851 6.13 2.29 1.111 4.269 2.323 5.882 3.604 3.644 2.89 5.358 5.749 5.375 5.777.156.265.427.444.731.484.071.009 1.172.148 2.559.079-1.068.202-1.893.21-1.906.21-.295.001-.574.133-.763.359s-.269.524-.218.814c.232 1.323.455 2.719.649 4.063-1.044-2.962-2.496-6.189-4.525-8.522-4.774-5.489-12.076-6.668-13.491-6.849-.084-.011-.169-.011-.253 0-1.415.181-8.716 1.359-13.49 6.849-2.029 2.333-3.48 5.559-4.524 8.52.194-1.343.417-2.739.649-4.061.051-.291-.029-.589-.218-.815s-.469-.357-.764-.358c-.014 0-.843-.006-1.92-.211 1.398.072 2.502-.069 2.574-.078.306-.04.576-.219.732-.485.017-.028 1.707-2.868 5.374-5.776 1.566-1.243 3.479-2.422 5.683-3.506 2.357-1.159 3.822-3.502 3.822-6.116v-27.071c0-2.757-2.243-5-5-5h-21.156v-1.291c0-1.272-1.035-2.307-2.307-2.307h-1.786c-.523 0-.999-.243-1.306-.666s-.39-.951-.227-1.448l1.337-4.091z"/><path d="m72.787 120.518h-8.579c-.552 0-1 .448-1 1s.448 1 1 1h8.579c.552 0 1-.448 1-1s-.448-1-1-1z"/></g></g></g></svg>