<?xml version="1.0" encoding="iso-8859-1"?>
<!-- Generator: Adobe Illustrator 19.0.0, SVG Export Plug-In . SVG Version: 6.00 Build 0)  -->
<svg version="1.1" id="Capa_1" xmlns="http://www.w3.org/2000/svg" xmlns:xlink="http://www.w3.org/1999/xlink" x="0px" y="0px"
	 viewBox="0 0 512.014 512.014" style="enable-background:new 0 0 512.014 512.014;" xml:space="preserve">
<g transform="translate(0 -1)">
	<path style="fill:#285680;" d="M371.384,274.669c-5.975,4.247-10.203,10.522-11.893,17.655h-0.12c-24.027,0-48.054,0-59.226-6.268
		c1.079-9.887,2.282-19.774,3.363-29.749c13.818-5.977,28.808-8.753,43.849-8.121C347.357,265.841,371.384,274.669,371.384,274.669z
		"/>
	<path style="fill:#D75E72;" d="M220.604,261.516c-0.185-6.797-0.278-13.683-0.463-20.48c-7.607,4.814-16.456,7.299-25.457,7.15
		c-6.431-0.029-12.845-0.649-19.162-1.854c-8.334,5.144-17.519,8.761-27.123,10.681c0,0,18.514,17.655,18.514,35.31
		c-1.107,11.461-8.13,21.507-18.514,26.483c13.886,13.241,9.256,35.31,9.256,35.31c3.426,3.266,6.388,6.532,9.165,9.71
		c0-0.265,0.093-0.53,0.093-0.883c0-26.041,35.269-61.705,53.783-78.654C220.696,276.699,220.604,269.107,220.604,261.516z"/>
	<path style="fill:#802D40;" d="M220.696,261.516c-20.112,7.54-39.043,17.915-56.221,30.808c0-17.655-19.386-35.31-19.386-35.31
		c10.009-1.906,19.616-5.519,28.401-10.681c6.621,1.205,13.336,1.826,20.066,1.854c9.38,0.162,18.617-2.315,26.656-7.15
		C220.405,247.833,220.502,254.718,220.696,261.516z"/>
	<path style="fill:#CC4B4C;" d="M132.421,98.117c-79.448,0-132.414,89.747-132.414,185.379s35.31,194.207,114.759,194.207
		c61.793,0,70.621-52.966,70.621-70.621s-8.828-35.31-26.483-52.966c0,0,4.414-22.069-8.828-35.31
		c10.08-5.168,16.762-15.19,17.655-26.483c0-17.655-17.655-35.31-17.655-35.31s52.966-8.828,52.966-61.793
		S176.559,98.117,132.421,98.117z"/>
	<path style="fill:#D75E72;" d="M262.009,218.084c5.563-75.388,9.799-147.156,11.212-191.47c0.463-14.602,12.676-26.063,27.277-25.6
		c14.602,0.463,26.063,12.676,25.6,27.277c-0.53,17.037-1.501,37.87-2.737,61.44v0.088l-5.915,93.572
		c-1.677,23.835-3.442,48.375-5.385,72.916c-0.794,9.975-1.678,19.862-2.471,29.749c-7.416,89.159-16.155,173.197-23.835,212.568
		c-1.884,9.521-11.033,15.789-20.592,14.108c-9.559-1.681-16.02-10.695-14.542-20.287L262.009,218.084z"/>
	<path style="fill:#CC4B4C;" d="M512.007,239.358c0,95.603-35.31,194.207-114.759,194.207c-61.793,0-70.621-52.966-70.621-70.621
		c0-17.655,8.828-35.31,26.483-52.966c-0.994-5.846-0.964-11.82,0.088-17.655c1.015-6.648,4.069-12.817,8.739-17.655
		c-10.08-5.168-16.762-15.19-17.655-26.483c0-17.655,17.655-35.31,17.655-35.31c-18.128-3.601-34.11-14.193-44.491-29.484
		c-2.729-4.407-4.782-9.197-6.091-14.212c-1.616-5.895-2.418-11.984-2.383-18.097c0-2.913,0.088-5.738,0.265-8.563
		c0.088-2.56,0.353-5.032,0.618-7.503c-0.028-0.42,0.032-0.841,0.177-1.236c0.177-2.03,0.441-3.972,0.794-5.914
		c0.083-1.015,0.261-2.02,0.53-3.001c0.209-1.604,0.504-3.195,0.883-4.767c0.289-1.581,0.672-3.143,1.148-4.679
		c0.182-1.05,0.448-2.083,0.795-3.09c0.406-1.588,0.907-3.15,1.5-4.679c0.348-1.324,0.791-2.622,1.323-3.884
		c0.152-0.521,0.36-1.024,0.619-1.501c1.553-4.305,3.473-8.47,5.738-12.447v-0.088c10.477-21.59,32.236-35.424,56.231-35.752
		C459.041,53.979,512.007,143.756,512.007,239.358z"/>
	<g>
		<path style="fill:#802F34;" d="M133.895,265.841c-42.698,0-54.776-34.237-60.138-59.991c-0.66-3.092,0.385-6.302,2.74-8.412
			c2.355-2.111,5.659-2.8,8.661-1.807c3.002,0.993,5.243,3.517,5.875,6.615c6.81,32.629,19.224,45.94,42.862,45.94
			c4.875,0,8.828,3.952,8.828,8.828S138.77,265.841,133.895,265.841z"/>
		<path style="fill:#802F34;" d="M133.895,327.634c-19.155,0.56-37.653-7.007-50.922-20.832c-3.109-3.748-2.597-9.305,1.145-12.422
			c3.742-3.116,9.3-2.615,12.424,1.12c9.911,9.788,23.435,15.03,37.353,14.478c4.875,0,8.828,3.952,8.828,8.828
			S138.77,327.634,133.895,327.634z"/>
		<path style="fill:#802F34;" d="M104.464,380.6c-18.666,0.05-37.199-3.15-54.767-9.457c-4.529-1.807-6.736-6.943-4.929-11.472
			c1.807-4.529,6.943-6.736,11.472-4.929c15.497,5.436,31.802,8.21,48.224,8.203c22.603,0,28.474-11.892,28.716-12.397
			c2.048-4.356,7.182-6.303,11.603-4.401c4.387,1.888,6.442,6.951,4.612,11.362C149.007,358.453,139.378,380.6,104.464,380.6z"/>
		<path style="fill:#802F34;" d="M378.119,221.703c-4.875,0-8.828-3.952-8.828-8.828s3.952-8.828,8.828-8.828
			c23.638,0,36.052-13.31,42.862-45.94c0.631-3.098,2.873-5.622,5.875-6.615c3.002-0.993,6.306-0.304,8.661,1.807
			c2.355,2.111,3.4,5.32,2.74,8.412C432.895,187.466,420.817,221.703,378.119,221.703z"/>
		<path style="fill:#802F34;" d="M378.119,283.496c-4.875,0-8.828-3.952-8.828-8.828s3.952-8.828,8.828-8.828
			c13.902,0.457,27.391-4.771,37.353-14.479c3.124-3.735,8.682-4.236,12.424-1.12c3.742,3.116,4.254,8.674,1.145,12.422
			C415.771,276.489,397.273,284.057,378.119,283.496z"/>
		<path style="fill:#802F34;" d="M407.55,336.462c-34.914,0-44.543-22.147-44.931-23.09c-1.849-4.468,0.241-9.592,4.687-11.492
			c4.446-1.901,9.594,0.129,11.546,4.553c0.371,0.776,6.379,12.375,28.698,12.375c16.422,0.036,32.729-2.737,48.216-8.198
			c2.931-1.182,6.271-0.707,8.756,1.246c2.485,1.953,3.737,5.085,3.282,8.213c-0.455,3.128-2.548,5.774-5.487,6.937
			C444.749,333.312,426.216,336.512,407.55,336.462z"/>
	</g>
	<path style="fill:#4482C3;" d="M250.318,494.621c21.302-137.227,14.342-372.138-7.831-476.369
		c-2.097-10.035-10.939-17.228-21.19-17.239h-0.003c-6.428-0.021-12.53,2.827-16.642,7.767c-4.113,4.94-5.807,11.457-4.621,17.775
		c20.503,106.256,26.708,327.277,7.109,461.69c-0.874,6.246,1.006,12.563,5.152,17.315c4.146,4.752,10.149,7.472,16.456,7.454
		C239.491,513.046,248.651,505.235,250.318,494.621z"/>
</g>
<g>
</g>
<g>
</g>
<g>
</g>
<g>
</g>
<g>
</g>
<g>
</g>
<g>
</g>
<g>
</g>
<g>
</g>
<g>
</g>
<g>
</g>
<g>
</g>
<g>
</g>
<g>
</g>
<g>
</g>
</svg>
