<svg height="512pt" viewBox="0 0 512 512" width="512pt" xmlns="http://www.w3.org/2000/svg"><path d="m203.5 271.746094v139.5c0 12.40625 10.09375 22.5 22.5 22.5s22.5-10.09375 22.5-22.5v-110c0-4.136719 3.363281-7.5 7.5-7.5s7.5 3.363281 7.5 7.5v27.214844h15v-27.214844c0-12.40625-10.09375-22.5-22.5-22.5s-22.5 10.09375-22.5 22.5v110c0 4.136718-3.363281 7.5-7.5 7.5s-7.5-3.363282-7.5-7.5v-139.5zm0 0"/><path d="m231.425781 145.410156h-120.425781c-12.40625 0-22.5 10.09375-22.5 22.503906 0 12.40625 10.09375 22.496094 22.5 22.496094h92.5v66.335938h15v-81.335938h-107.5c-4.136719 0-7.5-3.363281-7.5-7.5 0-4.132812 3.363281-7.5 7.5-7.5h137.5v-22.777344l-4.28125-2.035156c-9.550781-4.535156-15.71875-14.289062-15.71875-24.851562 0-15.164063 12.335938-27.5 27.5-27.5.660156 0 1.335938.023437 2 .070312 13.578125.953125 24.511719 11.914063 25.433594 25.488282.042968.648437.066406 1.304687.066406 1.941406 0 10.558594-6.171875 20.3125-15.71875 24.851562l-4.28125 2.035156v22.777344h51.902344v-15h-34.828125c11.074219-7.886718 17.925781-20.828125 17.925781-34.664062 0-.96875-.035156-1.960938-.101562-2.949219-1.425782-21.011719-18.339844-37.96875-39.347657-39.445313-1.015625-.070312-2.042969-.105468-3.054687-.105468-23.433594 0-42.5 19.0625-42.5 42.5.003906 13.835937 6.855468 26.777344 17.929687 34.664062zm0 0"/><path d="m401 145.414062-70.597656-.003906v15l70.597656.003906c4.136719 0 7.5 3.363282 7.5 7.5 0 4.132813-3.363281 7.496094-7.5 7.496094h-107.5v235.835938c0 4.136718-3.363281 7.5-7.5 7.5s-7.5-3.363282-7.5-7.5v-67.785156h-15v67.785156c0 12.40625 10.09375 22.5 22.5 22.5s22.5-10.09375 22.5-22.5v-220.835938h92.5c12.40625 0 22.5-10.09375 22.5-22.5s-10.09375-22.496094-22.5-22.496094zm0 0"/><path d="m186.300781 309.679688-10.605469-10.605469-74.371093 74.371093c-4.25 4.25-6.589844 9.898438-6.589844 15.910157 0 6.015625 2.34375 11.664062 6.589844 15.90625 4.257812 4.253906 9.90625 6.597656 15.914062 6.597656 6.015625 0 11.667969-2.347656 15.902344-6.597656l53.160156-53.160157-10.605469-10.609374-53.167968 53.171874c-1.410156 1.414063-3.289063 2.195313-5.289063 2.195313s-3.886719-.785156-5.3125-2.210937c-1.414062-1.410157-2.191406-3.289063-2.191406-5.292969 0-2.003907.78125-3.886719 2.199219-5.304688zm0 0"/><path d="m394.761719 396.851562c-2.003907 0-3.882813-.777343-5.296875-2.199218l-53.160156-53.160156-10.609376 10.609374 53.15625 53.152344c4.246094 4.253906 9.894532 6.597656 15.910157 6.597656 6.011719 0 11.660156-2.339843 15.902343-6.582031 4.253907-4.238281 6.59375-9.890625 6.59375-15.910156 0-6.015625-2.335937-11.667969-6.585937-15.914063l-74.367187-74.371093-10.609376 10.605469 74.371094 74.371093c1.414063 1.414063 2.191406 3.296875 2.191406 5.308594 0 2.003906-.773437 3.882813-2.191406 5.292969-1.417968 1.417968-3.300781 2.199218-5.304687 2.199218zm0 0"/><path d="m133.203125 84.988281c3.019531-2.226562 7.128906-1.914062 9.769531.730469l42.503906 42.5 10.605469-10.605469-42.5-42.503906c-7.929687-7.925781-20.234375-8.851563-29.28125-2.195313-5.71875 4.226563-9.132812 10.996094-9.132812 18.109376 0 6.007812 2.339843 11.65625 6.585937 15.902343l21.289063 21.292969 10.609375-10.605469-21.289063-21.292969c-1.417969-1.414062-2.195312-3.292968-2.195312-5.296874 0-2.410157 1.109375-4.613282 3.035156-6.035157zm0 0"/><path d="m358.347656 117.613281 10.605469 10.605469 21.289063-21.289062c4.636718-4.636719 7.015624-11.046876 6.527343-17.589844-.488281-6.542969-3.796875-12.53125-9.09375-16.441406-3.90625-2.867188-8.519531-4.382813-13.335937-4.382813-6.015625 0-11.671875 2.339844-15.925782 6.59375l-42.5 42.503906 10.605469 10.605469 42.5-42.5c1.421875-1.421875 3.3125-2.203125 5.316407-2.203125 1.605468 0 3.148437.507813 4.445312 1.460937 1.789062 1.320313 2.863281 3.269532 3.027344 5.480469.164062 2.214844-.605469 4.296875-2.175782 5.863281zm0 0"/><path d="m458.5 77.929688h15v-37.5h-37.5v15h22.5zm0 0"/><path d="m53.5 434.0625h-15v37.5h37.5v-15h-22.5zm0 0"/><path d="m53.5 55.429688h22.5v-15h-37.5v37.5h15zm0 0"/><path d="m458.5 456.5625h-22.5v15h37.5v-37.5h-15zm0 0"/><path d="m226 456.5625h60v15h-60zm0 0"/><path d="m226 40.429688h60v15h-60zm0 0"/><path d="m38.5 225.996094h15v60h-15zm0 0"/><path d="m458.5 225.996094h15v60h-15zm0 0"/><path d="m496.675781 243.40625 14.980469-.773438c-.265625-5.125-.6875-10.304687-1.253906-15.386718l-14.90625 1.664062c.535156 4.789063.933594 9.664063 1.179687 14.496094zm0 0"/><path d="m497 255.996094c0 4.839844-.144531 9.730468-.429688 14.539062l14.972657.890625c.304687-5.101562.457031-10.292969.457031-15.429687zm0 0"/><path d="m493.445312 214.519531 14.777344-2.566406c-9.375-54.054687-35.390625-102.785156-75.234375-140.921875-39.964843-38.253906-89.980469-62.113281-144.632812-69.011719l-1.878907 14.882813c103.957032 13.117187 189.0625 94.378906 206.96875 197.617187zm0 0"/><path d="m298.921875 493.1875 2.652344 14.765625c53.96875-9.703125 102.523437-35.996094 140.414062-76.046875 38.035157-40.199219 61.609375-90.375 68.175781-145.101562l-14.894531-1.785157c-12.480469 104.03125-93.222656 189.632813-196.347656 208.167969zm0 0"/><path d="m270.054688 496.59375.863281 14.976562c5.125-.296874 10.300781-.75 15.378906-1.347656l-1.753906-14.898437c-4.785157.566406-9.660157.992187-14.488281 1.269531zm0 0"/><path d="m240.050781 511.507812c5.097657.3125 10.289063.476563 15.429688.488282l.03125-15c-4.847657-.011719-9.738281-.164063-14.539063-.460938zm0 0"/><path d="m214.039062 18.632812-2.59375-14.773437c-54.027343 9.484375-102.699218 35.59375-140.753906 75.507813-38.179687 40.042968-61.945312 90.113281-68.730468 144.789062l14.886718 1.847656c12.902344-103.980468 93.988282-189.253906 197.191406-207.371094zm0 0"/><path d="m15.375 269.5625-14.980469.832031c.285157 5.121094.726563 10.296875 1.316407 15.382813l14.902343-1.726563c-.554687-4.789062-.972656-9.664062-1.238281-14.488281zm0 0"/><path d="m15.488281 240.480469-14.96875-.949219c-.324219 5.113281-.4999998 10.304688-.519531 15.429688l15 .058593c.019531-4.832031.183594-9.71875.488281-14.539062zm0 0"/><path d="m272.980469.550781c-5.105469-.335937-10.296875-.519531-15.425781-.550781l-.089844 15c4.832031.027344 9.722656.203125 14.539062.519531zm0 0"/><path d="m18.722656 298.4375-14.769531 2.621094c9.589844 54 35.792969 102.613281 75.773437 140.585937 40.121094 38.105469 90.242188 61.777344 144.949219 68.453125l1.8125-14.890625c-104.003906-12.691406-189.441406-93.605469-207.765625-196.769531zm0 0"/><path d="m242.921875 15.34375-.804687-14.980469c-5.136719.277344-10.3125.710938-15.386719 1.289063l1.699219 14.902344c4.773437-.542969 9.652343-.953126 14.492187-1.210938zm0 0"/></svg>