<svg id="Capa_1" enable-background="new 0 0 512 512" height="512" viewBox="0 0 512 512" width="512" xmlns="http://www.w3.org/2000/svg"><g><g><path d="m47.718 152.897c-5.184 0-10.128 1.347-14.464 3.729-5.238 17.334-20.754 43.983-20.754 79.374 0 67.387 30 113.103 30 113.103l100.42-10-10-186.206z" fill="#9ec8fc"/><path d="m38.103 329.376c-5.888-14.828-15.603-46.41-15.603-93.376 0-35.391 5.516-62.04 10.755-79.374-6.552 3.6-11.702 9.586-14.084 17.048-5.49 17.191-11.671 44.864-11.671 82.326s6.181 65.135 11.67 82.327c3.959 12.4 15.531 20.777 28.548 20.777h85.202l10-20h-90.426c-6.334-.001-12.053-3.842-14.391-9.728z" fill="#7398d4"/><path d="m279.5 449.47v-406.94c0-13.364-16.157-20.056-25.607-10.607l-120.973 120.974v186.206l120.973 130.973c9.45 9.45 25.607-7.243 25.607-20.606z" fill="#d3effd"/><path d="m257 462.481-124.08-123.378v20l120.973 120.973c9.449 9.449 25.607 2.757 25.607-10.607v-20c0 11.99-13.002 18.601-22.5 13.012z" fill="#9ec8fc"/></g><g><path d="m287 469.47c0 9.273-5.322 17.239-13.89 20.788-8.569 3.548-17.963 1.68-24.52-4.877l-118.777-118.778h-82.095c-16.384 0-30.728-10.446-35.692-25.995-5.22-16.346-8.796-34.547-10.629-54.098-.387-4.124 2.643-7.781 6.767-8.167 4.113-.396 7.781 2.643 8.167 6.767 1.733 18.479 5.092 35.615 9.984 50.936 2.972 9.306 11.573 15.558 21.403 15.558h77.702v-88.104h-55.21c-4.142 0-7.5-3.358-7.5-7.5s3.358-7.5 7.5-7.5h90.142l16.471-69.369c.79-3.328 3.732-5.7 7.152-5.766 3.402-.068 6.452 2.19 7.37 5.485l34.453 123.623 12.75-48.384c.868-3.293 3.846-5.589 7.252-5.589h33.7c4.142 0 7.5 3.358 7.5 7.5zm-146.58-113.473 118.777 118.777c3.288 3.288 7.087 2.075 8.173 1.625s4.63-2.279 4.63-6.929v-205.97h-20.42l-18.327 69.548c-.863 3.274-3.813 5.565-7.199 5.589-.018 0-.036 0-.054 0-3.364 0-6.32-2.242-7.224-5.486l-34.075-122.267-11.124 46.849c-.803 3.381-3.823 5.768-7.297 5.768h-25.86zm364.08 63.43c-4.142 0-7.5-3.358-7.5-7.5v-311.854c0-4.142 3.358-7.5 7.5-7.5s7.5 3.358 7.5 7.5v311.854c0 4.142-3.358 7.5-7.5 7.5zm-45-60c-4.142 0-7.5-3.358-7.5-7.5v-191.854c0-4.142 3.358-7.5 7.5-7.5s7.5 3.358 7.5 7.5v191.854c0 4.142-3.358 7.5-7.5 7.5zm-90 0c-4.142 0-7.5-3.358-7.5-7.5v-191.854c0-4.142 3.358-7.5 7.5-7.5s7.5 3.358 7.5 7.5v191.854c0 4.142-3.358 7.5-7.5 7.5zm45-30c-4.142 0-7.5-3.358-7.5-7.5v-131.854c0-4.142 3.358-7.5 7.5-7.5s7.5 3.358 7.5 7.5v131.854c0 4.142-3.358 7.5-7.5 7.5zm-90-30c-4.142 0-7.5-3.358-7.5-7.5v-71.854c0-4.142 3.358-7.5 7.5-7.5s7.5 3.358 7.5 7.5v71.854c0 4.142-3.358 7.5-7.5 7.5zm-317-35.927c-4.142 0-7.5-3.358-7.5-7.5 0-38.804 6.54-67.428 12.026-84.608 4.965-15.548 19.309-25.995 35.692-25.995h82.095l118.777-118.777c6.557-6.557 15.951-8.426 24.52-4.877 8.568 3.549 13.89 11.514 13.89 20.787v183.47c0 4.142-3.358 7.5-7.5 7.5s-7.5-3.358-7.5-7.5v-183.47c0-4.65-3.544-6.479-4.63-6.929-1.087-.45-4.887-1.662-8.173 1.625l-118.777 118.777v69.997c0 4.142-3.358 7.5-7.5 7.5s-7.5-3.358-7.5-7.5v-65.603h-77.702c-9.831 0-18.432 6.252-21.403 15.558-5.162 16.165-11.315 43.173-11.315 80.045 0 4.142-3.358 7.5-7.5 7.5z"/></g></g></svg>