<?xml version="1.0"?>
<svg xmlns="http://www.w3.org/2000/svg" viewBox="0 0 512 512" width="512" height="512"><g id="Filled_outline" data-name="Filled outline"><path d="M249.137,128a80,80,0,0,0-56.569,23.432L104,240a33.941,33.941,0,0,0,0,48h0a33.941,33.941,0,0,0,48,0l88-88h88L193.941,334.059a33.941,33.941,0,0,0-9.941,24h0A33.941,33.941,0,0,0,217.941,392h.206a33.445,33.445,0,0,0,23.649-9.8l.145-.145a33.941,33.941,0,0,0-9.941,24h0A33.941,33.941,0,0,0,265.941,440h0a33.941,33.941,0,0,0,24-9.941l-.194.194a33.209,33.209,0,0,0-9.747,23.5v1.035a33.209,33.209,0,0,0,57.894,22.215L400,408h32a80,80,0,0,0,64-32V128Z" style="fill:#4aaeda"/><path d="M24,416,406.114,33.886A33.753,33.753,0,0,1,429.981,24h.265A33.754,33.754,0,0,1,464,57.754h0a33.754,33.754,0,0,1-10.207,24.184L160,368v40l-40.4,40.4A135.2,135.2,0,0,1,24,488h0Z" style="fill:#dfdfdd"/><path d="M264,200a40,40,0,0,0-40,40h0a40,40,0,0,0,40,40h96l16.166,18.187A160.333,160.333,0,0,0,496,352h0V200Z" style="fill:#4db6e4"/><path d="M489.6,371.2A72.36,72.36,0,0,1,432,400H400a8,8,0,0,0-5.946,2.648l-28.293,31.437,11.892,10.7L403.563,416H432a88.433,88.433,0,0,0,70.4-35.2Z"/><path d="M331.951,471.649A25.181,25.181,0,0,1,313.7,480c-14.13.267-25.695-11.674-25.695-25.807v-.428a25.217,25.217,0,0,1,7.387-17.833l.21-.21,70.06-70.06-11.314-11.314-70.065,70.065a25.969,25.969,0,0,1-23.372,7.114,25,25,0,0,1-9.751-4.127,25.964,25.964,0,0,1-3.571-39.665l70.073-70.073-11.314-11.314L235.9,376.785A24.632,24.632,0,0,1,218.483,384h0a26.646,26.646,0,0,1-18.213-6.948,25.881,25.881,0,0,1-4.009-33.192l58.33-56.792A47.992,47.992,0,0,0,264,288h92.408l13.779,15.5A168.464,168.464,0,0,0,496,360V344a152.454,152.454,0,0,1-113.855-51.129l-16.166-18.186A8,8,0,0,0,360,272H264.637c-17.9,0-32.937-14.651-32.632-32.552A32.037,32.037,0,0,1,264,208H416V192H352.223l57.514-56H496V120H426.169l33.2-32.325c16.01-15.589,16.569-42.846.958-58.984a42.449,42.449,0,0,0-44.913-9.751c-16.87,6.629-27.3,23.146-40.794,35.3L384.746,66.5c7.7-5.669,13.38-13.592,19.964-20.527s14.819-13.227,24.371-13.913a25.326,25.326,0,0,1,21.6,10.012,26.126,26.126,0,0,1-2.475,34.133L329.289,192H264a48.261,48.261,0,0,0-4.939.253L372.746,78.568,361.432,67.254,308.686,120H249.14a87.428,87.428,0,0,0-62.227,25.772l-15.974,15.975,11.313,11.315,15.97-15.971A72.01,72.01,0,0,1,249.14,136h43.546l-58.343,58.343-87.578,87.578a26.716,26.716,0,0,1-19.007,8.018,25.867,25.867,0,0,1-20.43-10.252A25.439,25.439,0,0,1,102.29,267.5a25.873,25.873,0,0,1,7.367-21.844L168,187.311,156.69,176,98.343,234.343a41.933,41.933,0,0,0,24.7,71.3l-104.7,104.7A8,8,0,0,0,16,416v72a8,8,0,0,0,7.977,8,142.265,142.265,0,0,0,101.28-41.942l40.4-40.4A8,8,0,0,0,168,408V371.376l8.33-8.111A41.926,41.926,0,0,0,217.94,400h6.511a41.924,41.924,0,0,0,41.489,48,41.791,41.791,0,0,0,6.536-.519A41.782,41.782,0,0,0,272,453.76V454c0,22.612,17.884,41.609,40.493,41.992a41.179,41.179,0,0,0,31.343-13.633l24.27-26.965-11.893-10.7ZM154.419,362.269A8,8,0,0,0,152,368v36.687l-38.057,38.056A126.267,126.267,0,0,1,32,479.754V419.313L216.253,235.061a47.977,47.977,0,0,0,22.1,45.483Z"/><rect x="376" y="92.686" width="16" height="22.627" transform="translate(38.932 301.99) rotate(-45)"/><rect x="352" y="116.686" width="16" height="22.627" transform="translate(14.932 292.049) rotate(-45)"/><rect x="400" y="68.686" width="16" height="22.627" transform="translate(62.932 311.931) rotate(-45)"/><rect x="328" y="140.686" width="16" height="22.627" transform="translate(-9.068 282.108) rotate(-45)"/><rect x="304" y="164.686" width="16" height="22.627" transform="translate(-33.068 272.167) rotate(-45)"/><rect x="200" y="268.686" width="16" height="22.627" transform="translate(-137.068 229.088) rotate(-45)"/><rect x="176" y="292.686" width="16" height="22.627" transform="translate(-161.068 219.147) rotate(-45)"/><path d="M85.771,417.32a117.127,117.127,0,0,1-40.3,23.09l5.06,15.18a133.062,133.062,0,0,0,45.777-26.229l44.961-39.34-10.536-12.042Z"/></g></svg>
