<svg height="512" viewBox="0 0 58 58" width="512" xmlns="http://www.w3.org/2000/svg"><g id="039---Spots" fill="none"><path id="Shape" d="m46.2 49.527c-5.057-1.76-3.1-9.471-2.288-17.637-5.6171105.6679129-11.1699881-1.6765839-14.60876-6.1680075-3.4387719-4.4914237-4.2534303-10.4636465-2.14324-15.7119925-3.794641.040331-7.5285639.957555-10.91 2.68-.337-.03-.852-.02-1.03-.02-2.93.06-11.26 1.12-12.26 11.5-.994 10.362 4.519 23.042-2.142 25.358-.15368329.0548139-.27095357.1811671-.31417179.3385053-.04321821.1573382-.00694709.3258668.09717179.4514947 1.244 1.458 3.021 4.121 12.059 5.282 1.44.19 2.89.3 4.34.35v.05c.0032948 1.1032019.8967981 1.9967052 2 2h9c.5386949-.0014816 1.0541564-.2195652 1.4303414-.6051548.3761849-.3855895.5814765-.9062779.5696586-1.4448452 1.46-.05 2.91-.16 4.36-.35 9.037-1.161 10.815-3.824 12.058-5.282.1045239-.1257848.1409253-.2947368.0974722-.4524038-.0434531-.1576671-.1612675-.2841172-.3154722-.3385962z" fill="#a56a43"/><path id="Shape" d="m30 47.38v8.62c-.0032948 1.1032019-.8967981 1.9967052-2 2h-9c-1.1032019-.0032948-1.9967052-.8967981-2-2v-8.59c3.6591521 3.4300836 9.3567179 3.4169354 13-.03z" fill="#f9c795"/><path id="Shape" d="m12.37 39.05c-1.2-.18-4.37-1.13-4.37-6.09 0-4.84 2.41-3.57 3.43-2.82-.065365 2.9978278.2504984 5.9918102.94 8.91z" fill="#f9c795"/><path id="Shape" d="m35.56 30.65c-.082 4.3-.463 8.2-2.25 12-1.931 4.179-5.133 7.31-9.81 7.31-4.713 0-7.841-3.064-9.84-7.31-1.83-3.966-2.177-8.123-2.23-12.51-.1-4.468.358-9.422 3.91-12.14.68 1.72 2.72 5 8.16 5 1.67 0 3.02.01 4.15.07 1.6614041 3.3795852 4.4627239 6.0640358 7.91 7.58z" fill="#fdd7ad"/><path id="Shape" d="m39 32.96c0 4.96-3.17 5.91-4.37 6.09.6537773-2.7511843.9661298-5.5724331.93-8.4 1.0810896.4757754 2.2112128.8312444 3.37 1.06.0514146.4146186.074801.8322333.07 1.25z" fill="#f9c795"/><g fill="#fb7b76"><circle id="Oval" cx="29" cy="36" r="1"/><circle id="Oval" cx="27" cy="39" r="1"/><circle id="Oval" cx="31" cy="39" r="1"/><circle id="Oval" cx="18" cy="36" r="1"/><circle id="Oval" cx="16" cy="39" r="1"/><circle id="Oval" cx="20" cy="39" r="1"/></g><path id="Shape" d="m25 34c-.4043959-.0000863-.7689341-.2437275-.923678-.6173454-.1547439-.373618-.0692299-.8036603.216678-1.0896546l5.68-5.68c.3923789-.3789722 1.0160848-.3735524 1.4018186.0121814s.3911536 1.0094397.0121814 1.4018186l-5.68 5.68c-.1874927.1875494-.4418052.2929434-.707.293z" fill="#2980ba"/><path id="Shape" d="m42 0c-6.5233861-.00398604-12.3939391 3.95853828-14.83 10.01h-.01c-2.6333461 6.5224507-.6980623 13.9997539 4.7689498 18.425661 5.4670121 4.425907 13.1833752 4.7622491 19.0147554.8288181 5.8313803-3.933431 8.4099318-11.2139844 6.3540981-17.9408278-2.0558338-6.72684339-8.2638235-11.32208554-15.2978033-11.3236513z" fill="#3b97d3"/><path id="Shape" d="m53.62 13h-2.8c-.5858802.0058407-1.1435869-.2509979-1.52-.7-3.536-4.393-11.053-4.407-14.6 0-.3764131.4490021-.9341198.7058407-1.52.7h-2.8c1.3665299-5.30021531 6.1464558-9.00406943 11.62-9.00406943s10.2534701 3.70385412 11.62 9.00406943z" fill="#fdd7ad"/><path id="Shape" d="m53.96 17h-2.92c-1.8491287.0491126-3.6211376-.7413063-4.82-2.15-1.0868773-1.178357-2.6169319-1.8486124-4.22-1.8486124s-3.1331227.6702554-4.22 1.8486124c-1.1988624 1.4086937-2.9708713 2.1991126-4.82 2.15h-2.92c-.1101806-1.3429638.004734-2.6948992.34-4h2.8c.5858802.0058407 1.1435869-.2509979 1.52-.7 3.536-4.393 11.053-4.407 14.6 0 .3764131.4490021.9341198.7058407 1.52.7h2.8c.3357303 1.3050219.4506515 2.6570356.34 4z" fill="#f9c795"/><path id="Shape" d="m53.96 17c-.5097082 6.227008-5.7121659 11.0210209-11.96 11.0210209s-11.4502918-4.7940129-11.96-11.0210209h2.92c1.8491287.0491126 3.6211376-.7413063 4.82-2.15 1.0868773-1.178357 2.6169319-1.8486124 4.22-1.8486124s3.1331227.6702554 4.22 1.8486124c1.1988624 1.4086937 2.9708713 2.1991126 4.82 2.15z" fill="#fb7b76"/><path id="Shape" d="m39 19.5c.2655033-1.4481997 1.5276636-2.5 3-2.5s2.7344967 1.0518003 3 2.5c0 .828-1.343 1.5-3 1.5s-3-.672-3-1.5z" fill="#f5efca"/><path id="Shape" d="m42 29c-7.1797017 0-13-5.8202983-13-13 0-7.17970175 5.8202983-13 13-13s13 5.82029825 13 13c-.008266 7.1762751-5.8237249 12.991734-13 13zm0-24c-6.0751322 0-11 4.92486775-11 11 0 6.0751322 4.9248678 11 11 11s11-4.9248678 11-11c-.0071635-6.07216255-4.9278374-10.9928365-11-11z" fill="#285680"/></g></svg>