<svg height="491pt" viewBox="0 0 491.998 491" width="491pt" xmlns="http://www.w3.org/2000/svg"><path d="m194.828125 210.613281h-190.828125v-206.105469h190.828125c5.59375 0 10.128906 4.535157 10.128906 10.128907v185.847656c-.003906 5.59375-4.535156 10.128906-10.128906 10.128906zm0 0" fill="#6bdddd"/><path d="m4 186v-156.878906h166.828125c5.59375 0 10.128906 4.535156 10.128906 10.128906v136.621094c0 5.59375-4.535156 10.128906-10.128906 10.128906zm0 0" fill="#e0ebfc"/><path d="m154.28125 170.324219h-35.5625c-4.816406 0-8.71875-3.902344-8.71875-8.71875v-109.492188c0-4.816406 3.902344-8.71875 8.71875-8.71875h35.5625c4.816406 0 8.71875 3.902344 8.71875 8.71875v109.492188c0 4.816406-3.902344 8.71875-8.71875 8.71875zm0 0" fill="#b9befc"/><path d="m4 170.324219v-126.929688h78.375c4.082031 0 7.390625 3.308594 7.390625 7.390625v112.148438c0 4.082031-3.308594 7.390625-7.390625 7.390625zm0 0" fill="#b9befc"/><path d="m194.828125 214.613281h-190.828125c-2.207031 0-4-1.792969-4-4v-206.105469c0-2.207031 1.792969-4 4-4h190.828125c7.789063 0 14.128906 6.339844 14.128906 14.128907v185.847656c0 7.789063-6.339843 14.128906-14.128906 14.128906zm-186.828125-8h186.828125c3.378906 0 6.128906-2.75 6.128906-6.128906v-185.847656c0-3.378907-2.75-6.128907-6.128906-6.128907h-186.828125zm0 0" fill="#3762cc"/><path d="m170.828125 189.996094h-166.828125c-2.207031 0-4-1.792969-4-4v-156.875c0-2.207032 1.792969-4 4-4h166.828125c7.789063 0 14.125 6.339844 14.125 14.128906v136.621094c.003906 7.789062-6.335937 14.125-14.125 14.125zm-162.828125-8h162.828125c3.378906 0 6.125-2.746094 6.125-6.125v-136.621094c0-3.378906-2.75-6.128906-6.125-6.128906h-162.828125zm0 0" fill="#3762cc"/><path d="m330.453125 288.992188-35.796875 125.113281h-110.222656v19.152343h124.445312v-.0625l.21875.0625 39.769532-138.996093zm0 0" fill="#e0ebfc"/><path d="m309.097656 437.261719c-.074218 0-.144531 0-.214844 0h-124.449218c-2.207032 0-4-1.792969-4-4v-19.15625c0-2.207031 1.792968-4 4-4h107.207031l34.96875-122.214844c.289063-1.019531.976563-1.878906 1.902344-2.394531.929687-.515625 2.019531-.640625 3.042969-.347656l18.414062 5.269531c2.125.605469 3.351562 2.820312 2.746094 4.945312l-39.769532 138.996094c-.292968 1.023437-.980468 1.882813-1.910156 2.398437-.597656.332032-1.265625.503907-1.9375.503907zm-120.664062-8h117.648437l37.839844-132.253907-10.722656-3.066406-34.695313 121.265625c-.492187 1.71875-2.0625 2.902344-3.847656 2.902344h-106.222656zm0 0" fill="#3762cc"/><path d="m426.738281 278.6875-103.550781 59.785156c-5.742188 3.3125-13.078125 1.347656-16.394531-4.390625l-17.347657-30.046875c-3.3125-5.742187-1.347656-13.078125 4.394532-16.394531l103.550781-59.785156c5.742187-3.3125 13.078125-1.347657 16.394531 4.394531l17.347656 30.042969c3.3125 5.742187 1.347657 13.082031-4.394531 16.394531zm0 0" fill="#f9a7a7"/><path d="m317.210938 344.078125c-5.53125 0-10.921876-2.871094-13.882813-7.996094l-17.347656-30.046875c-4.410157-7.640625-1.78125-17.441406 5.859375-21.855468l103.550781-59.785157c3.703125-2.136719 8.015625-2.703125 12.140625-1.601562 4.128906 1.105469 7.578125 3.753906 9.714844 7.457031l17.351562 30.046875c4.410156 7.640625 1.78125 17.445313-5.859375 21.855469l-103.554687 59.789062c-2.507813 1.445313-5.257813 2.136719-7.972656 2.136719zm86.167968-113.835937c-1.386718 0-2.753906.367187-3.988281 1.078124l-103.550781 59.785157c-3.820313 2.207031-5.132813 7.109375-2.929688 10.929687l17.347656 30.046875c2.207032 3.820313 7.113282 5.128907 10.929688 2.925781l103.550781-59.789062c3.820313-2.203125 5.132813-7.105469 2.929688-10.925781l-17.347657-30.046875c-1.066406-1.851563-2.792968-3.175782-4.859374-3.726563-.6875-.183593-1.386719-.277343-2.082032-.277343zm23.359375 48.445312h.023438zm0 0" fill="#3762cc"/><path d="m376.996094 219.449219-56.671875 3.261719c-3.613281.210937-7.1875-.84375-10.117188-2.984376l-112.011719-81.753906c-4.667968-3.40625-10.625-4.5-16.1875-2.96875l-118.285156 32.507813-59.722656 20.523437v116.128906h22.386719l37.335937-20.996093 121.21875-70.371094c2.488282-1.445313 5.558594-1.4375 8.042969.015625l70.222656 41.160156c3.414063 2 5.515625 5.683594 5.515625 9.664063 0 3.859375 1.167969 7.628906 3.347656 10.800781l5.121094 7.460938c2.765625 4.03125 7.320313 6.4375 12.1875 6.4375 2.597656 0 5.15625-.691407 7.40625-2l97.035156-56.417969-2.007812-3.027344c-3.277344-4.953125-8.914062-7.78125-14.816406-7.441406zm0 0" fill="#f9cfcf"/><path d="m26.386719 308.164062h-22.386719c-2.207031 0-4-1.792968-4-4v-116.128906c0-1.707031 1.085938-3.226562 2.699219-3.78125l59.722656-20.527344c.082031-.027343.160156-.050781.238281-.074218l118.289063-32.507813c6.777343-1.863281 13.921875-.550781 19.605469 3.597657l112.011718 81.75c2.175782 1.589843 4.832032 2.375 7.527344 2.222656l56.675781-3.261719c7.292969-.417969 14.332031 3.113281 18.378907 9.226563l2.007812 3.027343c.609375.917969.8125 2.046875.558594 3.121094-.25 1.070313-.929688 1.992187-1.882813 2.546875l-97.035156 56.417969c-2.859375 1.664062-6.113281 2.542969-9.417969 2.542969-6.1875 0-11.976562-3.058594-15.488281-8.175782l-5.117187-7.457031c-2.648438-3.859375-4.050782-8.378906-4.050782-13.066406 0-2.550781-1.355468-4.933594-3.539062-6.214844l-70.222656-41.15625c-1.238282-.726563-2.773438-.730469-4.011719-.007813l-121.21875 70.367188-37.382813 21.023438c-.597656.335937-1.273437.515624-1.960937.515624zm-18.386719-8h17.339844l36.421875-20.484374 121.171875-70.339844c3.726562-2.167969 8.355468-2.160156 12.074218.023437l70.222657 41.160157c4.625 2.707031 7.492187 7.734374 7.492187 13.113281 0 3.066406.914063 6.019531 2.644532 8.542969l5.121093 7.457031c2.019531 2.945312 5.34375 4.699219 8.890625 4.699219 1.890625 0 3.757813-.503907 5.394532-1.457032l93.359374-54.277344c-2.523437-3.4375-6.640624-5.398437-10.90625-5.15625l-56.671874 3.261719c-4.511719.253907-9.035157-1.070312-12.707032-3.75l-112.011718-81.75c-3.703126-2.703125-8.355469-3.558593-12.769532-2.34375l-118.164062 32.472657-56.902344 19.554687zm368.996094-80.714843h.023437zm0 0" fill="#3762cc"/><path d="m485.304688 400.207031-23.839844-135.214843c-4.910156-27.859376-31.480469-46.464844-59.34375-41.550782l-36.976563 6.519532c-27.859375 4.914062-46.464843 31.484374-41.550781 59.34375l34.925781 198.089843h129.480469v-56.40625c0-10.316406-.902344-20.617187-2.695312-30.78125zm0 0" fill="#6bdddd"/><path d="m488 491.394531h-129.476562c-1.945313 0-3.601563-1.394531-3.941407-3.304687l-34.929687-198.089844c-5.289063-29.992188 14.808594-58.691406 44.796875-63.980469l36.976562-6.519531c14.527344-2.5625 29.183594.6875 41.265625 9.148438 12.085938 8.460937 20.152344 21.121093 22.710938 35.648437l23.839844 135.214844c1.828124 10.355469 2.753906 20.949219 2.753906 31.476562v56.40625c.003906 2.207031-1.789063 4-3.996094 4zm-126.125-8h122.125v-52.40625c0-10.0625-.882812-20.1875-2.632812-30.085937l-23.839844-135.210938c-2.191406-12.421875-9.089844-23.25-19.421875-30.484375-10.332031-7.238281-22.875-10.015625-35.289063-7.824219l-36.976562 6.519532c-25.644532 4.523437-42.828125 29.0625-38.308594 54.710937zm0 0" fill="#3762cc"/><path d="m368.875 212.113281c-41.167969 7.257813-80.421875-20.226562-87.679688-61.394531l-6.484374-36.773438c-7.257813-41.167968 20.230468-80.421874 61.394531-87.679687 41.167969-7.257813 80.421875 20.226563 87.679687 61.394531l6.484375 36.777344c7.253907 41.164062-20.230469 80.417969-61.394531 87.675781zm0 0" fill="#f9cfcf"/><path d="m349.066406 193.953125 55.820313-9.839844 6.644531 37.683594-55.820312 9.839844zm0 0" fill="#f9cfcf"/><path d="m303.816406 149.601562c-3.792968.71875-7.335937-1.609374-7.910156-5.195312l-2.078125-12.996094c-.574219-3.589844 2.035156-7.082031 5.828125-7.800781 3.796875-.71875 7.335938 1.605469 7.910156 5.195313l2.082032 12.996093c.574218 3.585938-2.035157 7.078125-5.832032 7.800781zm0 0" fill="#3762cc"/><path d="m4 487.394531h172.433594c4.417968 0 8-3.582031 8-8v-44.410156c0-4.417969-3.582032-8-8-8h-172.433594zm0 0" fill="#4671c6"/><path d="m185.691406 329.429688h-181.691406v97.554687h181.691406c4.066406 0 7.363282-3.941406 7.363282-8.804687v-79.941407c0-4.867187-3.296876-8.808593-7.363282-8.808593zm0 0" fill="#f9a7a7"/><path d="m355.722656 235.621094c-.816406 0-1.617187-.25-2.292968-.722656-.871094-.609376-1.460938-1.539063-1.644532-2.582032l-2.707031-15.335937c-35.632813-2.976563-65.566406-30.085938-71.820313-65.566407l-6.488281-36.777343c-7.628906-43.273438 21.367188-84.683594 64.636719-92.3125 20.964844-3.699219 42.113281.992187 59.542969 13.199219 17.4375 12.207031 29.074219 30.476562 32.769531 51.4375l6.484375 36.777343c4.648437 26.347657-4.054687 52.839844-23.308594 71.324219l4.585938 26.023438c.183593 1.042968-.050781 2.117187-.660157 2.984374-.609374.871094-1.539062 1.460938-2.582031 1.648438l-55.820312 9.839844c-.230469.042968-.464844.0625-.695313.0625zm-6.324218-206.523438c-4.183594 0-8.394532.367188-12.601563 1.109375-38.925781 6.863281-65.011719 44.117188-58.148437 83.042969l6.484374 36.777344c5.796876 32.875 34.1875 57.761718 67.507813 59.167968 1.875.078126 3.445313 1.449219 3.769531 3.300782l2.554688 14.492187 47.941406-8.453125-4.269531-24.214844c-.238281-1.351562.234375-2.730468 1.25-3.652343 18.347656-16.679688 26.734375-41.179688 22.4375-65.539063l-6.480469-36.773437c-3.324219-18.859375-13.792969-35.292969-29.480469-46.273438-12.1875-8.535156-26.390625-12.984375-40.964843-12.984375zm0 0" fill="#3762cc"/><path d="m435.867188 211.78125-53.214844 9.382812c-6.523438 1.148438-12.75-3.207031-13.898438-9.734374l-33.914062-192.320313c-.710938-4.03125 1.980468-7.878906 6.015625-8.585937l26.988281-4.757813c44.402344-7.832031 86.75 21.820313 94.582031 66.226563l14.347657 81.371093c4.835937 27.425781-13.476563 53.582031-40.90625 58.417969zm0 0" fill="#4671c6"/><path d="m347.714844 92.125-79.402344 14c-4.03125.714844-7.878906-1.980469-8.589844-6.011719l-2.414062-13.691406c-5.777344-32.765625 16.101562-64.007813 48.867187-69.785156l20.078125-3.539063c4.03125-.714844 7.878906 1.980469 8.589844 6.011719zm0 0" fill="#4671c6"/><path d="m380.535156 225.351562c-3.25 0-6.421875-.996093-9.140625-2.898437-3.503906-2.453125-5.839843-6.121094-6.582031-10.328125l-20.339844-115.367188-75.460937 13.304688c-6.199219 1.085938-12.132813-3.058594-13.226563-9.257812l-2.414062-13.691407c-2.980469-16.898437.800781-33.945312 10.644531-48 9.839844-14.054687 24.566406-23.4375 41.464844-26.417969l20.078125-3.539062c2.785156-.484375 5.511718.074219 7.773437 1.410156 1.726563-2.105468 4.121094-3.507812 6.828125-3.984375l26.988282-4.761719c22.535156-3.96875 45.257812 1.070313 63.996093 14.191407 18.742188 13.121093 31.25 32.753906 35.222657 55.28125l14.347656 81.375c2.523437 14.316406-.679688 28.757812-9.015625 40.667969-8.339844 11.910156-20.816407 19.859374-35.132813 22.382812l-53.214844 9.382812c-.941406.167969-1.882812.25-2.816406.25zm-32.816406-137.226562c1.90625 0 3.59375 1.363281 3.933594 3.304688l21.039062 119.304687c.371094 2.105469 1.539063 3.9375 3.289063 5.164063 1.753906 1.226562 3.878906 1.699218 5.980469 1.324218l53.214843-9.378906c25.207031-4.449219 42.105469-28.574219 37.660157-53.789062l-14.351563-81.371094c-3.601563-20.421875-14.941406-38.222656-31.929687-50.121094-16.988282-11.894531-37.59375-16.460938-58.015626-12.859375l-26.988281 4.757813c-.898437.15625-1.683593.65625-2.207031 1.402343-.523438.75-.722656 1.65625-.5625 2.554688l.136719.78125c.042969.238281.058593.472656.058593.703125 0 1.902344-1.363281 3.589844-3.300781 3.933594-2.167969.378906-4.25-1.066407-4.636719-3.242188l-.136718-.789062c-.328125-1.851563-2.09375-3.09375-3.957032-2.769532l-20.078124 3.539063c-14.792969 2.609375-27.6875 10.824219-36.304688 23.128906s-11.925781 27.230469-9.316406 42.023437l2.414062 13.691407c.328125 1.855469 2.105469 3.101562 3.957032 2.769531l79.402343-14c.238281-.042969.46875-.0625.699219-.0625zm0 0" fill="#3762cc"/><path d="m381.980469 139.28125c0 14.332031-11.617188 25.949219-25.949219 25.949219s-25.953125-11.617188-25.953125-25.949219 11.621094-25.949219 25.953125-25.949219 25.949219 11.617188 25.949219 25.949219zm0 0" fill="#f9cfcf"/><path d="m323.402344 215.425781 41.15625-7.257812c2.175781-.386719 3.589844-2.679688 3.160156-5.128907l-8.832031-50.074218c-.429688-2.449219-2.542969-4.121094-4.71875-3.738282l-71.910157 12.679688c-2.53125.445312-3.957031 3.433594-2.898437 6.105469 7.753906 19.65625 21.066406 35.695312 37.296875 45.972656 2.070312 1.3125 4.449219 1.84375 6.746094 1.441406zm0 0" fill="#e0ebfc"/><path d="m321.882812 219.554688c-2.542968 0-5.09375-.75-7.367187-2.1875-17.179687-10.882813-30.988281-27.886719-38.882813-47.886719-.988281-2.507813-.816406-5.269531.472657-7.578125 1.175781-2.097656 3.164062-3.53125 5.453125-3.9375l71.910156-12.679688c2.167969-.378906 4.417969.207032 6.195312 1.609375 1.660157 1.316407 2.785157 3.222657 3.160157 5.375l8.832031 50.078125c.8125 4.613282-2.058594 8.992188-6.402344 9.757813l-41.15625 7.257812c-.730468.128907-1.472656.191407-2.214844.191407zm1.519532-4.128907h.019531zm-40.449219-49.582031c.097656 0-.027344.316406.125.703125 7.277344 18.429687 19.960937 34.082031 35.71875 44.0625 1.246094.789063 2.636719 1.101563 3.910156.875l41.128907-7.25c-.089844 0 0-.195313-.054688-.5l-8.832031-50.078125c-.058594-.335938-.230469-.484375-.273438-.507812zm0 0" fill="#3762cc"/><path d="m251.140625 276.066406 117.671875-8.164062c14.222656-.984375 26.773438 9.222656 28.703125 23.34375 2.085937 15.230468-8.894531 29.132812-24.195313 30.621094-35.277343 3.421874-94.167968 9.082031-118.714843 11.4375-7.457031.71875-14.976563.03125-22.183594-2.019532l-106.121094-30.199218 11.5-40.410157 108.339844 15.214844c1.65625.234375 3.332031.292969 5 .175781zm0 0" fill="#f9cfcf"/><path d="m248.832031 337.585938c-5.910156 0-11.777343-.820313-17.507812-2.453126l-106.121094-30.199218c-2.125-.605469-3.355469-2.816406-2.75-4.941406l11.5-40.410157c.542969-1.917969 2.410156-3.140625 4.402344-2.867187l108.34375 15.21875c1.375.191406 2.773437.238281 4.164062.144531l117.671875-8.164063c16.296875-1.125 30.734375 10.640626 32.941406 26.792969 1.160157 8.457031-1.117187 16.800781-6.410156 23.496094-5.289062 6.6875-12.875 10.824219-21.359375 11.648437-35.28125 3.421876-94.171875 9.082032-118.71875 11.4375-2.054687.195313-4.109375.296876-6.15625.296876zm-117.589843-39.25 102.273437 29.105468c6.753906 1.921875 13.726563 2.550782 20.707031 1.882813 24.546875-2.355469 83.433594-8.015625 118.710938-11.4375 6.296875-.613281 11.933594-3.683594 15.855468-8.648438 3.929688-4.96875 5.621094-11.164062 4.761719-17.449219-1.640625-11.992187-12.410156-20.730468-24.457031-19.894531l-117.675781 8.164063h-.003907c-1.945312.136718-3.902343.066406-5.828124-.203125l-104.890626-14.734375zm119.894531-22.269532h.019531zm0 0" fill="#3762cc"/><path d="m415.40625 291.664062c-2.878906-21.070312-21.601562-36.296874-42.8125-34.824218l-63.828125 4.429687 4.210937 83.628907 66.984376-7.628907c22.515624-2.566406 38.515624-23.152343 35.445312-45.605469zm0 0" fill="#6bdddd"/><path d="m312.976562 348.898438c-.945312 0-1.863281-.335938-2.589843-.949219-.839844-.714844-1.351563-1.746094-1.40625-2.847657l-4.210938-83.632812c-.113281-2.175781 1.542969-4.042969 3.714844-4.191406l63.832031-4.429688c23.242188-1.613281 43.898438 15.199219 47.054688 38.269532 1.632812 11.9375-1.542969 23.75-8.933594 33.261718-7.394531 9.507813-18.054688 15.5-30.027344 16.863282l-66.980468 7.628906c-.152344.019531-.304688.027344-.453126.027344zm-.019531-83.914063 3.800781 75.457031 62.75-7.148437c9.8125-1.117188 18.550782-6.027344 24.613282-13.824219 6.0625-7.792969 8.664062-17.480469 7.324218-27.265625-2.585937-18.914063-19.566406-32.691406-38.574218-31.371094zm0 0" fill="#3762cc"/><path d="m330.453125 324.992188-35.796875 125.113281h-110.222656v19.152343h124.445312v-.0625l.21875.0625 39.769532-138.996093zm0 0" fill="#e0ebfc"/><g fill="#3762cc"><path d="m176.433594 491.394531h-172.433594c-2.207031 0-4-1.792969-4-4v-60.410156c0-2.207031 1.792969-4 4-4h172.433594c6.617187 0 12 5.382813 12 12v44.410156c0 6.617188-5.382813 12-12 12zm-168.433594-8h168.433594c2.207031 0 4-1.792969 4-4v-44.410156c0-2.207031-1.792969-4-4-4h-168.433594zm0 0"/><path d="m185.691406 430.984375h-181.691406c-2.207031 0-4-1.792969-4-4v-97.554687c0-2.210938 1.792969-4 4-4h181.691406c6.265625 0 11.363282 5.746093 11.363282 12.804687v79.941406c0 7.0625-5.097657 12.808594-11.363282 12.808594zm-177.691406-8h177.691406c1.824219 0 3.363282-2.203125 3.363282-4.804687v-79.945313c0-2.605469-1.539063-4.804687-3.363282-4.804687h-177.691406zm0 0"/><path d="m309.097656 473.261719c-.074218 0-.144531 0-.214844 0h-124.449218c-2.207032 0-4-1.792969-4-4v-19.15625c0-2.207031 1.792968-4 4-4h107.207031l34.96875-122.214844c.289063-1.019531.976563-1.878906 1.902344-2.394531.929687-.515625 2.019531-.640625 3.042969-.347656l18.414062 5.269531c2.125.605469 3.351562 2.820312 2.746094 4.945312l-39.769532 138.996094c-.292968 1.023437-.980468 1.882813-1.910156 2.398437-.597656.332032-1.265625.503907-1.9375.503907zm-120.664062-8h117.648437l37.839844-132.253907-10.722656-3.066406-34.695313 121.265625c-.492187 1.71875-2.0625 2.902344-3.847656 2.902344h-106.222656zm0 0"/></g><path d="m426.738281 314.6875-103.550781 59.785156c-5.742188 3.3125-13.078125 1.347656-16.394531-4.390625l-17.347657-30.046875c-3.3125-5.742187-1.347656-13.078125 4.394532-16.394531l103.550781-59.785156c5.742187-3.3125 13.078125-1.347657 16.394531 4.394531l17.347656 30.042969c3.3125 5.742187 1.347657 13.082031-4.394531 16.394531zm0 0" fill="#f9a7a7"/><path d="m317.210938 380.078125c-5.53125 0-10.921876-2.871094-13.882813-7.996094l-17.347656-30.046875c-4.410157-7.640625-1.78125-17.441406 5.859375-21.855468l103.550781-59.785157c3.703125-2.136719 8.015625-2.703125 12.140625-1.601562 4.128906 1.105469 7.578125 3.753906 9.714844 7.457031l17.351562 30.046875c4.410156 7.640625 1.78125 17.445313-5.859375 21.855469l-103.554687 59.789062c-2.507813 1.445313-5.257813 2.136719-7.972656 2.136719zm86.167968-113.835937c-1.386718 0-2.753906.367187-3.988281 1.078124l-103.550781 59.785157c-3.820313 2.207031-5.132813 7.109375-2.929688 10.929687l17.347656 30.046875c2.207032 3.820313 7.113282 5.128907 10.929688 2.925781l103.550781-59.789062c3.820313-2.203125 5.132813-7.105469 2.929688-10.925781l-17.347657-30.046875c-1.066406-1.851563-2.792968-3.175782-4.859374-3.726563-.6875-.183593-1.386719-.277343-2.082032-.277343zm23.359375 48.445312h.023438zm0 0" fill="#3762cc"/><path d="m125.441406 139.5-121.441406 31.589844v158.339844h130.386719v-182.1875c0-5.140626-4.378907-8.933594-8.945313-7.742188zm0 0" fill="#a4c9ff"/><path d="m134.386719 333.429688h-130.386719c-2.207031 0-4-1.792969-4-4v-158.339844c0-1.820313 1.230469-3.414063 2.992188-3.871094l121.445312-31.59375c3.234375-.84375 6.632812-.132812 9.320312 1.945312 2.902344 2.246094 4.632813 5.859376 4.632813 9.667969v182.191407c-.003906 2.207031-1.792969 4-4.003906 4zm-126.386719-8h122.386719v-178.1875c0-1.351563-.570313-2.601563-1.523438-3.339844-.511719-.394532-1.339843-.808594-2.417969-.53125l-118.445312 30.8125zm0 0" fill="#3762cc"/><path d="m391.816406 262.886719c-3.28125-4.949219-8.917968-7.777344-14.820312-7.4375l-56.671875 3.261719c-3.613281.210937-7.1875-.84375-10.117188-2.984376l-112.011719-81.753906c-4.667968-3.40625-10.625-4.5-16.1875-2.96875l-47.617187 13.085938v94.050781l50.550781-29.34375c2.492188-1.445313 5.5625-1.441406 8.042969.015625l70.222656 41.15625c3.417969 2.003906 5.519531 5.683594 5.519531 9.664062 0 3.859376 1.167969 7.628907 3.34375 10.804688l5.121094 7.457031c2.765625 4.03125 7.324219 6.4375 12.1875 6.4375 2.601563 0 5.15625-.691406 7.410156-1.996093l97.035157-56.417969zm0 0" fill="#f9cfcf"/><path d="m289.378906 328.335938c-6.1875 0-11.976562-3.058594-15.488281-8.175782l-5.117187-7.457031c-2.648438-3.859375-4.050782-8.378906-4.050782-13.066406 0-2.550781-1.355468-4.933594-3.539062-6.214844l-70.222656-41.15625c-1.238282-.726563-2.773438-.730469-4.011719-.007813l-50.554688 29.34375c-1.238281.71875-2.761719.71875-4.003906.007813-1.238281-.714844-2.003906-2.035156-2.003906-3.464844v-94.054687c0-1.800782 1.207031-3.378906 2.941406-3.859375l47.621094-13.085938c6.773437-1.859375 13.921875-.550781 19.605469 3.597657l112.011718 81.75c2.175782 1.589843 4.832032 2.378906 7.527344 2.222656l56.675781-3.261719c7.292969-.414063 14.332031 3.113281 18.378907 9.226563l2.007812 3.027343c.609375.917969.8125 2.046875.558594 3.117188-.25 1.074219-.929688 1.996093-1.882813 2.550781l-97.035156 56.417969c-2.855469 1.664062-6.113281 2.542969-9.417969 2.542969zm-100.429687-84.617188c2.097656 0 4.191406.550781 6.0625 1.644531l70.21875 41.160157c4.625 2.707031 7.496093 7.734374 7.496093 13.113281 0 3.066406.914063 6.019531 2.644532 8.542969l5.121094 7.457031c2.019531 2.945312 5.34375 4.699219 8.886718 4.699219 1.894532 0 3.761719-.5 5.398438-1.457032l93.355468-54.277344c-2.523437-3.4375-6.640624-5.40625-10.902343-5.15625l-56.675781 3.261719c-4.511719.261719-9.035157-1.070312-12.703126-3.75l-112.011718-81.75c-3.703125-2.703125-8.359375-3.558593-12.773438-2.34375l-44.675781 12.277344v84.054687l44.542969-25.859374c1.855468-1.078126 3.9375-1.617188 6.015625-1.617188zm0 0" fill="#3762cc"/></svg>