<svg fill="#000000" xmlns="http://www.w3.org/2000/svg"  viewBox="0 0 100 100" width="100px" height="100px"><path d="M 23.835938 14 C 21.510938 14 19 15.848937 19 18.835938 L 19 81.486328 C 19 84.473328 21.510938 86.322266 23.835938 86.322266 C 24.652938 86.322266 25.439734 86.115031 26.177734 85.707031 L 82.517578 54.382812 C 84.071578 53.519812 85 51.941109 85 50.162109 C 85 48.385109 84.072531 46.807453 82.519531 45.939453 L 26.177734 14.617188 C 25.443734 14.208188 24.656938 14 23.835938 14 z M 23.835938 16 C 24.311937 16 24.770125 16.121281 25.203125 16.363281 L 65.443359 38.736328 L 55.310547 48.976562 L 44.865234 38.34375 C 44.672234 38.14775 44.355203 38.145891 44.158203 38.337891 C 43.961203 38.530891 43.959344 38.847922 44.152344 39.044922 L 54.607422 49.6875 L 38.443359 66.023438 C 38.249359 66.219437 38.251266 66.536469 38.447266 66.730469 C 38.545266 66.827469 38.673781 66.875 38.800781 66.875 C 38.929781 66.875 39.057297 66.824562 39.154297 66.726562 L 55.308594 50.400391 L 65.996094 61.28125 L 25.205078 83.958984 C 24.770078 84.199984 24.310938 84.322266 23.835938 84.322266 C 23.287156 84.322266 22.725071 84.138754 22.244141 83.814453 L 34.230469 71.701172 C 34.424469 71.505172 34.422562 71.188141 34.226562 70.994141 C 34.029563 70.800141 33.712531 70.802047 33.519531 70.998047 L 21.519531 83.125 C 21.199974 82.682056 21 82.130673 21 81.486328 L 21 18.835938 C 21 17.85635 21.467322 17.096633 22.111328 16.607422 L 35.744141 30.484375 C 35.841141 30.583375 35.971562 30.634766 36.101562 30.634766 C 36.228563 30.634766 36.353172 30.585234 36.451172 30.490234 C 36.648172 30.297234 36.650031 29.980203 36.457031 29.783203 L 23.044922 16.130859 C 23.305392 16.052685 23.572173 16 23.835938 16 z M 24.5 22.876953 C 24.224 22.876953 24 23.100953 24 23.376953 L 24 39.808594 C 24 40.084594 24.224 40.308594 24.5 40.308594 C 24.776 40.308594 25 40.084594 25 39.808594 L 25 23.376953 C 25 23.100953 24.776 22.876953 24.5 22.876953 z M 41.011719 34.628906 C 40.883844 34.627781 40.75525 34.674984 40.65625 34.771484 C 40.45925 34.964484 40.457391 35.281516 40.650391 35.478516 L 42.050781 36.904297 C 42.147781 37.003297 42.27625 37.054688 42.40625 37.054688 C 42.53325 37.054688 42.659813 37.005156 42.757812 36.910156 C 42.954812 36.717156 42.956672 36.400125 42.763672 36.203125 L 41.363281 34.777344 C 41.266781 34.679344 41.139594 34.630031 41.011719 34.628906 z M 66.351562 39.240234 L 81.544922 47.6875 C 82.455922 48.1965 83 49.120109 83 50.162109 C 83 51.204109 82.457875 52.128766 81.546875 52.634766 L 66.902344 60.777344 L 56.011719 49.689453 L 66.351562 39.240234 z M 66.582031 42.845703 C 66.38825 42.825125 66.191094 42.916156 66.089844 43.097656 C 65.955844 43.339656 66.042203 43.644297 66.283203 43.779297 L 67.888672 44.671875 C 67.965672 44.713875 68.047859 44.734375 68.130859 44.734375 C 68.305859 44.734375 68.476359 44.641563 68.568359 44.476562 C 68.702359 44.234563 68.616 43.931875 68.375 43.796875 L 66.771484 42.904297 C 66.711234 42.871547 66.646625 42.852562 66.582031 42.845703 z M 70.734375 45.152344 C 70.540641 45.130922 70.344641 45.22475 70.244141 45.40625 C 70.109141 45.64825 70.1965 45.953891 70.4375 46.087891 L 75.402344 48.847656 C 75.885344 49.117656 76.173828 49.607156 76.173828 50.160156 C 76.173828 50.712156 75.885344 51.203656 75.402344 51.472656 L 67.626953 55.796875 C 67.385953 55.930875 67.298594 56.235563 67.433594 56.476562 C 67.524594 56.640562 67.694141 56.732422 67.869141 56.732422 C 67.952141 56.732422 68.036281 56.713922 68.113281 56.669922 L 75.890625 52.345703 C 76.695625 51.897703 77.175781 51.081156 77.175781 50.160156 C 77.175781 49.239156 76.695625 48.421609 75.890625 47.974609 L 70.923828 45.214844 C 70.863578 45.181094 70.798953 45.159484 70.734375 45.152344 z M 24.5 49.388672 C 24.224 49.388672 24 49.612672 24 49.888672 L 24 76.947266 C 24 77.223266 24.224 77.447266 24.5 77.447266 C 24.776 77.447266 25 77.223266 25 76.947266 L 25 49.888672 C 25 49.612672 24.776 49.388672 24.5 49.388672 z"/></svg>