<svg id="Layer_1" enable-background="new 0 0 128 128" height="512" viewBox="0 0 128 128" width="512" xmlns="http://www.w3.org/2000/svg"><g><g><g><path d="m62.48 46.055c1.138 0 2.254-.393 3.142-1.106.612-.491 1.45-.762 2.36-.762h.45c.883 0 1.639.615 1.84 1.494.537 2.362 1.476 4.593 2.789 6.632.499.775.406 1.758-.225 2.39-.574.574-1.372.966-2.31 1.133-1.185.212-2.224.88-2.927 1.879-1.068 1.52-1.091 3.572-.055 5.108.774 1.147 1.996 1.88 3.354 2.011 1.355.129 2.688-.347 3.652-1.31.661-.661 1.098-1.498 1.261-2.42.162-.923.537-1.702 1.13-2.295.633-.633 1.615-.725 2.391-.226 2.039 1.313 4.271 2.251 6.633 2.789.879.2 1.493.957 1.493 1.839v.466c0 .902-.269 1.732-.757 2.338-.921 1.143-1.287 2.579-1.032 4.043.351 2.024 1.939 3.647 3.951 4.038.332.065.664.096.994.096 1.166 0 2.297-.397 3.204-1.145 1.165-.96 1.833-2.375 1.833-3.884 0-1.138-.393-2.253-1.104-3.142-.492-.612-.763-1.451-.763-2.361v-.45c0-.883.614-1.639 1.493-1.839 2.361-.538 4.594-1.476 6.633-2.789.776-.498 1.759-.406 2.39.225.574.575.966 1.373 1.134 2.31.212 1.185.88 2.225 1.879 2.927 1.519 1.068 3.57 1.091 5.108.055 1.148-.774 1.881-1.997 2.011-3.355.131-1.357-.347-2.688-1.311-3.652-.663-.662-1.499-1.097-2.418-1.259-.938-.165-1.695-.53-2.297-1.132-.632-.631-.725-1.614-.225-2.39 1.313-2.04 2.251-4.271 2.788-6.631.201-.88.958-1.495 1.841-1.495h.449c.91 0 1.748.271 2.36.762.888.712 2.004 1.105 3.142 1.105 1.509 0 2.924-.668 3.884-1.833s1.343-2.694 1.05-4.198c-.392-2.011-2.014-3.599-4.038-3.952-1.468-.254-2.9.112-4.042 1.032-.606.489-1.438.758-2.34.758h-.465c-.883 0-1.64-.615-1.841-1.494-.537-2.361-1.475-4.592-2.788-6.632-.5-.775-.407-1.758.225-2.39.573-.574 1.372-.965 2.309-1.133 1.184-.212 2.225-.879 2.928-1.878 1.068-1.52 1.091-3.572.055-5.108-.773-1.148-1.995-1.88-3.353-2.011-1.356-.132-2.689.347-3.653 1.31-.661.661-1.098 1.498-1.261 2.419-.164.938-.529 1.695-1.13 2.295-.632.632-1.613.725-2.391.225-2.041-1.313-4.272-2.252-6.633-2.789-.879-.2-1.493-.957-1.493-1.84v-.463c0-.902.269-1.732.757-2.338.921-1.143 1.287-2.579 1.032-4.043-.352-2.024-1.939-3.646-3.952-4.038-1.506-.293-3.034.09-4.198 1.05s-1.832 2.375-1.832 3.883c0 1.138.393 2.254 1.105 3.142.491.612.762 1.45.762 2.36v.45c0 .883-.614 1.64-1.493 1.84-2.36.537-4.592 1.476-6.634 2.79-.774.5-1.758.407-2.389-.225-.574-.575-.966-1.373-1.134-2.309-.213-1.186-.88-2.226-1.879-2.927-1.519-1.069-3.572-1.09-5.106-.055-1.148.774-1.882 1.996-2.013 3.354s.347 2.689 1.312 3.653c.662.662 1.498 1.097 2.417 1.259.938.165 1.696.53 2.297 1.131.632.631.725 1.614.225 2.39-1.313 2.039-2.252 4.271-2.789 6.632-.201.88-.958 1.495-1.84 1.495h-.466c-.902 0-1.732-.269-2.339-.758-1.144-.921-2.579-1.288-4.043-1.032-2.024.353-3.648 1.941-4.037 3.951-.293 1.504.089 3.034 1.049 4.198.959 1.164 2.375 1.832 3.884 1.832z" fill="#e6e7e8"/></g><g><path d="m45.699 87.553c.395.028.784.042 1.17.042 1.173 0 2.3-.137 3.376-.392l1.089 2.955c-.465.546-.637 1.315-.371 2.036.392 1.064 1.572 1.608 2.635 1.216 1.064-.392 1.608-1.572 1.216-2.636-.266-.721-.895-1.194-1.603-1.308l-1.059-2.873c2.555-1.032 4.735-2.844 6.379-5.378.178-.275.327-.55.468-.826l3.031.901c.159.699.672 1.297 1.408 1.516 1.087.323 2.229-.296 2.552-1.383s-.296-2.229-1.383-2.552c-.737-.219-1.493.002-2.008.501l-2.916-.867c.535-2.376-.107-4.792-1.366-7.318l2.753-1.507c.609.379 1.395.436 2.069.067.994-.544 1.359-1.792.814-2.786s-1.792-1.359-2.786-.814c-.674.369-1.049 1.062-1.057 1.779l-2.75 1.506c-.924-1.583-2.019-3.211-3.164-4.905-.945-1.398-1.904-2.831-2.832-4.316l2.617-.84c.526.488 1.287.692 2.018.458 1.079-.346 1.674-1.502 1.327-2.581-.346-1.079-1.502-1.674-2.581-1.327-.732.235-1.231.844-1.375 1.547l-3.069.984c-.325-.559-.648-1.122-.955-1.702-1.352-2.548-.865-5.765-.113-9.213l3.216.27c.298.653.922 1.134 1.688 1.198 1.13.095 2.122-.744 2.217-1.873.095-1.13-.744-2.122-1.873-2.217-.766-.064-1.461.306-1.864.899l-2.944-.247c.52-2.299 1.029-4.662 1.085-6.987.038-1.554-.034-3.017-.192-4.405l2.946-.475c.447.561 1.168.877 1.927.755 1.119-.181 1.88-1.234 1.7-2.353s-1.234-1.88-2.353-1.699c-.759.122-1.344.65-1.592 1.323l-2.931.473c-.52-2.689-1.436-5.02-2.747-6.944l2.505-2.246c.679.231 1.457.107 2.029-.406.844-.757.915-2.054.158-2.898s-2.054-.915-2.898-.158c-.572.513-.78 1.273-.624 1.973l-2.417 2.168c-1.988-2.193-4.611-3.701-7.826-4.459l.316-3.237c.657-.289 1.146-.907 1.221-1.672.11-1.128-.715-2.132-1.844-2.242-1.128-.11-2.132.715-2.242 1.844-.075.765.286 1.465.874 1.876l-.299 3.069c-2.882-.359-5.647.032-8.186 1.137l-1.556-2.588c.354-.624.379-1.411-.017-2.069-.584-.971-1.845-1.285-2.817-.701-.971.584-1.285 1.845-.701 2.817.396.659 1.103 1.005 1.82.985l1.485 2.469c-1.957 1.164-3.75 2.781-5.321 4.832-.345.45-.662.93-.978 1.41l-2.486-1.739c.07-.714-.227-1.443-.857-1.884-.929-.65-2.209-.423-2.858.505-.65.929-.423 2.209.505 2.858.63.441 1.417.47 2.064.159l2.598 1.817c-1.419 2.56-2.476 5.439-3.168 8.517l-2.936-.672c-.203-.688-.753-1.252-1.502-1.424-1.105-.253-2.206.438-2.459 1.543s.438 2.206 1.543 2.459c.749.172 1.49-.097 1.972-.628l2.989.685c-.51 2.995-.686 6.135-.523 9.31l-3.053.06c-.364-.618-1.034-1.032-1.802-1.017-1.133.022-2.034.959-2.012 2.092s.959 2.034 2.092 2.012c.768-.015 1.421-.455 1.761-1.087l3.168-.062c.313 3.266.978 6.536 2.015 9.695l-2.751 1.197c-.572-.433-1.349-.56-2.054-.254-1.039.452-1.515 1.662-1.063 2.701s1.662 1.515 2.701 1.063c.705-.307 1.141-.963 1.214-1.676l2.612-1.137c.336.882.698 1.753 1.093 2.609 1.178 2.551 2.573 4.959 4.117 7.196l-2.545 1.596c-.63-.343-1.418-.354-2.069.054-.961.602-1.251 1.869-.649 2.829.602.961 1.869 1.251 2.829.649.651-.408.985-1.121.951-1.838l2.647-1.66c1.894 2.512 3.99 4.755 6.2 6.68l-1.972 2.435c-.707-.12-1.456.125-1.94.722-.714.881-.578 2.173.303 2.887.881.713 2.173.578 2.887-.303.484-.597.568-1.38.304-2.047l1.962-2.423c2.602 2.039 5.329 3.635 8.065 4.653l-.956 2.872c-.704.137-1.318.629-1.561 1.358-.358 1.075.224 2.238 1.299 2.596s2.238-.224 2.596-1.299c.243-.729.046-1.492-.436-2.023l.962-2.888c1.242.337 2.481.559 3.704.646z" fill="#e6e7e8"/></g><g><path d="m122.021 66.489c-4.643.561-7.38 5.036-9.795 8.984-.989 1.618-1.924 3.146-2.895 4.255-2.646 3.021-5.701 3.108-6.483 3.076-.16-.354-.342-.696-.558-1.015-.304-.448-.662-.842-1.056-1.194.307-1.198 1.149-3.984 2.659-5.403.697-.657 1.665-1.191 2.601-1.708 1.858-1.026 3.964-2.19 3.964-4.559 0-.552-.447-1-1-1s-1 .448-1 1c0 1.132-1.113 1.804-2.931 2.808-1.044.577-2.124 1.173-3.005 2.002-1.642 1.545-2.599 4.158-3.055 5.732-1.077-.469-2.321-.699-3.692-.651-4.468.138-7.049 3.496-9.327 6.459-1.66 2.16-3.228 4.199-5.248 4.683-1.91.458-4.718.507-7.689.559-5.264.092-11.229.195-15.891 2.395-4.45 2.099-8.363 6.774-9.968 11.911-1.333 4.266-.974 8.359 1.039 11.838 3.163 5.471 7.826 7.486 12.597 7.486 3.803 0 7.674-1.281 10.908-3.112 5.52-3.126 8.21-8.818 10.583-13.84 1.278-2.704 2.485-5.258 3.985-7.103 1.948-2.398 4.947-3.342 7.848-4.256 3.226-1.016 6.562-2.066 7.937-5.214.086-.198.149-.396.224-.594.837.201 2.14.439 3.671.439 3.062 0 6.978-.957 9.607-5.088.297-.466.159-1.084-.307-1.381-.467-.296-1.084-.159-1.381.307-3.265 5.128-8.886 4.345-11.031 3.817.226-1.151.261-2.276.1-3.326 1.573-.078 4.693-.656 7.401-3.748 1.084-1.237 2.061-2.836 3.097-4.529 2.284-3.735 4.646-7.597 8.329-8.042.548-.066.938-.564.873-1.113-.065-.551-.555-.942-1.111-.875z" fill="#e6e7e8"/></g></g><g><g><path d="m115.484 33.058c-1.232-.215-2.383.132-3.243.826-.832.67-1.898.979-2.966.979h-.465c-1.356 0-2.514-.949-2.815-2.272-.519-2.278-1.428-4.407-2.655-6.313-.744-1.156-.614-2.666.359-3.639.767-.767 1.771-1.219 2.84-1.411.877-.157 1.706-.646 2.286-1.469.826-1.174.846-2.783.044-3.974-1.294-1.918-3.921-2.102-5.47-.553-.534.533-.86 1.194-.982 1.885-.184 1.046-.612 2.033-1.363 2.784l-.046.046c-.972.972-2.482 1.103-3.639.359-1.906-1.227-4.035-2.136-6.313-2.655-1.323-.301-2.272-1.458-2.272-2.815v-.466c0-1.068.309-2.134.979-2.966.693-.861 1.04-2.012.826-3.244-.28-1.607-1.557-2.917-3.158-3.228-2.581-.502-4.839 1.461-4.839 3.951 0 .953.331 1.827.885 2.516.673.838.983 1.912.983 2.987v.45c0 1.356-.95 2.513-2.272 2.815-2.278.519-4.407 1.428-6.313 2.655-1.156.744-2.666.614-3.639-.359-.768-.767-1.219-1.772-1.411-2.84-.157-.877-.646-1.706-1.469-2.286-1.174-.826-2.783-.846-3.974-.044-1.918 1.293-2.103 3.921-.553 5.47.534.534 1.195.86 1.885.982 1.046.184 2.033.612 2.784 1.363l.046.046c.972.972 1.103 2.483.359 3.639-1.227 1.906-2.136 4.035-2.655 6.313-.301 1.323-1.458 2.272-2.815 2.272h-.465c-1.068 0-2.134-.309-2.966-.979-.861-.693-2.011-1.04-3.244-.826-1.607.28-2.917 1.556-3.228 3.157-.502 2.581 1.461 4.84 3.951 4.84.953 0 1.827-.332 2.516-.885.838-.673 1.912-.983 2.987-.983h.45c1.356 0 2.513.95 2.815 2.272.519 2.278 1.428 4.407 2.655 6.313.744 1.156.614 2.666-.359 3.639-.768.768-1.771 1.219-2.84 1.411-.877.157-1.707.646-2.286 1.47-.826 1.174-.846 2.783-.043 3.973 1.293 1.918 3.92 2.102 5.47.553.533-.533.86-1.194.982-1.885.184-1.046.612-2.033 1.363-2.784l.046-.046c.972-.972 2.482-1.103 3.639-.359 1.906 1.227 4.035 2.136 6.313 2.655 1.323.301 2.272 1.458 2.272 2.815v.465c0 1.068-.309 2.134-.979 2.966-.693.861-1.04 2.011-.826 3.244.28 1.607 1.556 2.917 3.157 3.228 2.581.502 4.84-1.461 4.84-3.951 0-.953-.332-1.827-.885-2.516-.673-.838-.983-1.912-.983-2.987v-.45c0-1.357.95-2.514 2.272-2.815 2.278-.519 4.407-1.428 6.313-2.655 1.156-.744 2.666-.614 3.639.359.768.768 1.219 1.771 1.411 2.84.157.878.646 1.707 1.47 2.286 1.174.826 2.783.846 3.973.044 1.918-1.294 2.102-3.92.553-5.47-.534-.534-1.195-.86-1.885-.982-1.046-.184-2.033-.612-2.784-1.363l-.046-.046c-.972-.972-1.103-2.482-.359-3.639 1.227-1.906 2.136-4.035 2.655-6.313.301-1.323 1.458-2.272 2.815-2.272h.45c1.075 0 2.148.31 2.987.983.689.553 1.563.885 2.516.885 2.49 0 4.453-2.259 3.951-4.84-.315-1.6-1.625-2.877-3.232-3.156z" fill="#fa759e"/><g><path d="m91.308 25.33c1.495 2.589.608 5.899-1.981 7.394s-5.899.608-7.394-1.981-.608-5.899 1.981-7.394c2.589-1.494 5.899-.607 7.394 1.981z" fill="#ffd7e5"/></g><g><path d="m100.123 38.976c.835 1.447.34 3.296-1.107 4.131s-3.296.34-4.131-1.107c-.835-1.446-.34-3.296 1.107-4.131 1.446-.835 3.296-.34 4.131 1.107z" fill="#ffd7e5"/></g><g><path d="m92.391 44.407c.494.855.201 1.948-.654 2.441-.855.494-1.948.201-2.441-.654s-.201-1.948.654-2.441c.854-.494 1.947-.201 2.441.654z" fill="#ffd7e5"/></g><g><path d="m78.061 28.546c.504.873.205 1.988-.668 2.492s-1.988.205-2.492-.668-.205-1.988.668-2.492 1.989-.205 2.492.668z" fill="#ffd7e5"/></g><g><path d="m84.27 50.841c.34.589.138 1.342-.451 1.682s-1.342.138-1.682-.451-.138-1.342.451-1.682 1.342-.138 1.682.451z" fill="#ffd7e5"/></g><g><path d="m99.331 29.149c.34.589.138 1.342-.451 1.682s-1.342.138-1.682-.451-.138-1.342.451-1.682c.589-.339 1.342-.137 1.682.451z" fill="#ffd7e5"/></g><g><path d="m81.427 39.499c1.124 1.946.457 4.435-1.489 5.558-1.946 1.124-4.435.457-5.558-1.489-1.124-1.946-.457-4.435 1.489-5.558 1.946-1.125 4.434-.458 5.558 1.489z" fill="#ffd7e5"/></g></g><g><path d="m33.079 15.955c-17.476-2.986-26.937 23.336-17.173 44.481 9.208 19.94 29.479 29.038 37.786 16.234 4.271-6.583-4.009-13.607-9.23-23.452-2.721-5.13 1.14-12.187 1.297-18.663.197-8.097-2.317-16.829-12.68-18.6z" fill="#6dc9f7"/><g><path d="m32.139 21.534c-12.958-2.214-19.599 19.28-12.358 34.959 6.828 14.785 22.191 27.687 28.351 18.193 3.167-4.881-6.085-12.722-8.625-23.235-1.011-4.185.979-9.644 1.56-14.412.783-6.42-1.244-14.191-8.928-15.505z" fill="#0089ef"/></g><g><path d="m26.173 37.709c2.228 2.044 5.69 1.895 7.734-.332s1.895-5.69-.332-7.734c-2.228-2.044-5.69-1.895-7.734.332s-1.895 5.69.332 7.734z" fill="#d4fbff"/></g><g><path d="m27.25 55.038c1.853 1.7 4.734 1.577 6.434-.276s1.577-4.734-.276-6.434c-1.853-1.701-4.734-1.577-6.434.276-1.701 1.853-1.577 4.734.276 6.434z" fill="#d4fbff"/></g><g><path d="m34.357 68.923c1.331 1.221 3.4 1.133 4.622-.199 1.221-1.331 1.132-3.4-.199-4.622s-3.4-1.133-4.622.198c-1.221 1.332-1.133 3.401.199 4.623z" fill="#d4fbff"/></g></g><g><g><path d="m45.556 112.159c-4.794-8.289 1.444-19.02 8.491-22.345 7.168-3.382 18.032-1.602 23.386-2.885s7.22-10.896 14.374-11.116c5.963-.184 8.138 5.108 5.825 10.406s-11.231 3.811-15.644 9.239c-4.412 5.429-6.126 16.083-14.285 20.704-7.327 4.15-16.95 4.983-22.147-4.003z" fill="#d4fbff"/></g><g><g><path d="m48.556 110.159c-4.017-6.945-.287-15.603 5.172-20.184-6.914 3.492-12.894 14.02-8.172 22.184 5.197 8.986 14.82 8.153 22.146 4.004.844-.478 1.605-1.034 2.322-1.629-7.232 3.82-16.43 4.336-21.468-4.375z" fill="#fff"/></g></g><g><path d="m74.833 93.261c2.496 3.663-1.822 11.886-7.125 15.5s-12.324 2.98-14.82-.682c-2.496-3.663-1.168-10.203 4.135-13.818 5.303-3.614 15.314-4.662 17.81-1z" fill="#6dc9f7"/></g><g><path d="m93.025 82.328c.794 1.165-.579 3.779-2.266 4.928-1.686 1.149-3.918.948-4.712-.217s-.371-3.244 1.315-4.394c1.686-1.149 4.869-1.482 5.663-.317z" fill="#6dc9f7"/></g><g fill="#3a2c60"><path d="m58.479 42.055c1.138 0 2.254-.393 3.142-1.105.612-.491 1.45-.762 2.36-.762h.45c.882 0 1.639.615 1.84 1.495.537 2.361 1.476 4.593 2.789 6.631.499.776.406 1.759-.226 2.391-.574.574-1.372.966-2.31 1.133-1.185.212-2.224.88-2.926 1.878-1.069 1.519-1.092 3.572-.056 5.108.774 1.148 1.997 1.881 3.354 2.011 1.356.128 2.688-.348 3.65-1.311.662-.66 1.099-1.497 1.262-2.419.164-.937.529-1.694 1.131-2.296.632-.632 1.611-.725 2.39-.225 2.041 1.313 4.272 2.252 6.633 2.789.879.2 1.493.957 1.493 1.84v.465c0 .902-.269 1.733-.757 2.339-.921 1.143-1.287 2.578-1.032 4.042.352 2.024 1.939 3.646 3.952 4.038.331.064.663.096.992.096 1.167 0 2.298-.397 3.206-1.146 1.164-.96 1.832-2.375 1.832-3.883 0-1.139-.393-2.255-1.105-3.142-.491-.612-.762-1.45-.762-2.36v-.45c0-.883.614-1.64 1.494-1.84 2.359-.537 4.591-1.476 6.632-2.789.777-.5 1.76-.406 2.391.225.573.573.965 1.372 1.133 2.309.212 1.185.879 2.224 1.879 2.928 1.52 1.068 3.569 1.091 5.108.055 1.147-.774 1.88-1.996 2.011-3.354s-.347-2.689-1.311-3.653c-.662-.662-1.498-1.098-2.418-1.26-.938-.165-1.696-.53-2.297-1.131-.632-.631-.725-1.614-.225-2.39 1.313-2.04 2.251-4.271 2.788-6.631.201-.88.958-1.495 1.841-1.495h.449c.91 0 1.748.271 2.36.763.888.712 2.004 1.105 3.143 1.105 1.508 0 2.923-.668 3.883-1.833s1.343-2.695 1.05-4.198c-.392-2.011-2.014-3.6-4.038-3.952 0 0 0 0-.001 0-1.459-.253-2.898.112-4.041 1.032-.606.488-1.438.757-2.34.757h-.465c-.001 0-.001 0-.001 0-.883 0-1.639-.614-1.84-1.494-.537-2.361-1.476-4.592-2.788-6.632-.5-.775-.407-1.758.225-2.39.574-.574 1.372-.966 2.31-1.133 1.185-.212 2.224-.88 2.926-1.878 1.069-1.519 1.092-3.572.056-5.108-.773-1.147-1.995-1.88-3.353-2.011-1.356-.133-2.689.347-3.653 1.311-.662.662-1.098 1.498-1.261 2.419-.164.938-.529 1.694-1.13 2.295-.631.631-1.613.725-2.391.225-2.039-1.313-4.271-2.251-6.632-2.79-.88-.2-1.494-.957-1.494-1.839v-.465c0-.902.269-1.732.757-2.338.921-1.143 1.287-2.579 1.032-4.043-.352-2.024-1.94-3.647-3.952-4.038-1.505-.293-3.034.09-4.198 1.05s-1.83 2.375-1.83 3.883c0 1.138.393 2.253 1.105 3.142.491.611.762 1.45.762 2.36v.45c0 .883-.614 1.639-1.493 1.839-2.361.538-4.594 1.477-6.634 2.79-.773.499-1.756.408-2.389-.225-.574-.574-.966-1.373-1.134-2.309-.213-1.185-.88-2.225-1.879-2.927-1.52-1.069-3.572-1.092-5.106-.055-1.148.774-1.882 1.996-2.013 3.354s.347 2.689 1.311 3.653c.662.662 1.499 1.097 2.418 1.259.938.166 1.696.531 2.297 1.132.632.631.725 1.614.226 2.39-1.313 2.038-2.252 4.27-2.789 6.631-.201.88-.957 1.495-1.839 1.495-.001 0-.001 0-.001 0h-.466c-.902 0-1.732-.269-2.339-.757-1.144-.921-2.58-1.288-4.043-1.032-2.023.353-3.646 1.941-4.037 3.952-.293 1.504.09 3.034 1.05 4.199.96 1.162 2.375 1.83 3.882 1.83zm-2.969-5.649c.23-1.184 1.225-2.156 2.417-2.363.897-.153 1.759.066 2.445.619.96.774 2.236 1.2 3.594 1.2h.466.001c1.821 0 3.379-1.254 3.788-3.05.486-2.135 1.335-4.151 2.521-5.994 1.014-1.574.811-3.584-.539-4.933-.839-.838-1.985-1.406-3.317-1.641-.514-.09-.981-.334-1.352-.704-.54-.54-.808-1.286-.733-2.046.074-.772.479-1.442 1.14-1.888.84-.566 2.006-.552 2.838.033.565.397.941.981 1.061 1.644.24 1.341.824 2.506 1.688 3.37 1.302 1.305 3.313 1.508 4.886.493 1.844-1.187 3.86-2.035 5.994-2.521 1.796-.409 3.05-1.967 3.05-3.79v-.45c0-1.365-.427-2.648-1.202-3.613-.436-.542-.665-1.195-.665-1.89 0-.908.402-1.761 1.104-2.339.711-.587 1.613-.812 2.545-.63 1.184.23 2.155 1.224 2.362 2.418.155.889-.064 1.757-.618 2.445-.774.96-1.2 2.236-1.2 3.593v.466c0 1.822 1.255 3.38 3.05 3.79 2.134.486 4.15 1.334 5.994 2.521 1.575 1.014 3.584.811 4.933-.539.84-.839 1.406-1.986 1.64-3.316.091-.514.335-.982.705-1.352.54-.54 1.282-.806 2.048-.734.771.075 1.441.479 1.886 1.139.566.84.553 2.007-.033 2.839-.397.565-.98.942-1.643 1.061-1.341.24-2.507.823-3.371 1.688-1.304 1.304-1.507 3.313-.492 4.888 1.187 1.843 2.034 3.859 2.521 5.994.409 1.795 1.968 3.049 3.789 3.049h.001.465c1.356 0 2.633-.426 3.595-1.2.686-.553 1.553-.772 2.443-.619 1.194.208 2.188 1.18 2.419 2.363.181.929-.043 1.832-.63 2.544-1.022 1.239-2.98 1.441-4.23.44-.965-.776-2.248-1.204-3.612-1.204h-.449c-1.822 0-3.381 1.254-3.79 3.05-.486 2.133-1.334 4.15-2.521 5.993-1.015 1.574-.812 3.584.538 4.933.839.839 1.986 1.406 3.317 1.641.514.09.981.334 1.352.704.54.54.808 1.286.734 2.047-.075.772-.479 1.442-1.14 1.887-.839.565-2.006.552-2.839-.032-.565-.398-.941-.982-1.061-1.645-.24-1.342-.824-2.507-1.688-3.371-1.304-1.303-3.314-1.506-4.887-.492-1.845 1.187-3.861 2.035-5.993 2.521-1.796.409-3.051 1.967-3.051 3.79v.45c0 1.364.427 2.646 1.203 3.612.435.542.664 1.195.664 1.89 0 .908-.402 1.761-1.104 2.339-.712.587-1.619.81-2.544.63-1.185-.23-2.156-1.225-2.363-2.418-.155-.889.064-1.757.618-2.444.774-.96 1.2-2.237 1.2-3.594v-.465c0-1.822-1.254-3.381-3.05-3.79-2.132-.485-4.148-1.333-5.993-2.52-.664-.428-1.405-.64-2.143-.64-1.01 0-2.01.397-2.79 1.177-.84.84-1.407 1.987-1.641 3.317-.092.515-.335.982-.705 1.352-.54.54-1.279.806-2.046.734-.772-.074-1.442-.479-1.888-1.139-.566-.84-.553-2.007.033-2.839.397-.565.98-.942 1.643-1.061 1.342-.24 2.507-.824 3.371-1.688 1.304-1.303 1.507-3.313.493-4.888-1.188-1.843-2.035-3.859-2.521-5.994-.409-1.795-1.968-3.05-3.789-3.05h-.45c-1.364 0-2.647.427-3.612 1.203-1.251 1.003-3.209.799-4.229-.44-.588-.708-.812-1.612-.631-2.541z"/><path d="m41.699 83.554c.395.028.784.042 1.17.042 1.173 0 2.3-.137 3.376-.393l1.089 2.955c-.465.546-.637 1.315-.371 2.036.392 1.064 1.572 1.608 2.636 1.216s1.608-1.572 1.216-2.636c-.266-.721-.895-1.194-1.603-1.308l-1.059-2.873c2.555-1.032 4.735-2.844 6.379-5.378.178-.275.327-.55.468-.826l3.031.901c.159.7.672 1.298 1.408 1.517 1.087.323 2.229-.296 2.552-1.383s-.296-2.229-1.383-2.552c-.737-.219-1.492.002-2.008.501l-2.916-.867c.535-2.376-.107-4.792-1.366-7.318l2.753-1.508c.609.379 1.395.436 2.069.067.994-.544 1.359-1.792.814-2.786s-1.792-1.359-2.786-.814c-.674.369-1.049 1.062-1.057 1.779l-2.75 1.507c-.924-1.583-2.019-3.211-3.164-4.906-.945-1.398-1.904-2.831-2.832-4.316l2.617-.84c.526.488 1.287.693 2.018.458 1.079-.346 1.673-1.502 1.327-2.581s-1.502-1.674-2.581-1.327c-.732.235-1.231.844-1.375 1.546l-3.069.985c-.325-.559-.648-1.122-.955-1.702-1.352-2.549-.865-5.765-.113-9.214l3.217.27c.298.652.922 1.134 1.688 1.198 1.13.095 2.122-.744 2.217-1.873.095-1.13-.744-2.122-1.873-2.217-.766-.064-1.461.306-1.864.899l-2.943-.247c.52-2.299 1.029-4.662 1.085-6.987.038-1.554-.034-3.017-.192-4.405l2.946-.475c.447.561 1.168.878 1.927.755 1.119-.18 1.88-1.234 1.7-2.353s-1.234-1.88-2.353-1.7c-.759.122-1.344.65-1.592 1.323l-2.931.473c-.52-2.689-1.436-5.02-2.747-6.945l2.505-2.245c.679.23 1.457.107 2.029-.406.844-.757.915-2.054.158-2.898s-2.054-.915-2.898-.158c-.572.513-.78 1.273-.624 1.973l-2.418 2.167c-1.988-2.193-4.611-3.701-7.826-4.459l.315-3.237c.657-.289 1.146-.907 1.221-1.672.11-1.128-.716-2.132-1.844-2.242s-2.132.716-2.242 1.844c-.075.765.286 1.465.874 1.876l-.299 3.069c-2.883-.358-5.647.033-8.186 1.137l-1.556-2.589c.354-.624.379-1.411-.017-2.069-.584-.971-1.845-1.285-2.817-.701-.971.584-1.285 1.845-.701 2.817.396.658 1.103 1.005 1.82.985l1.485 2.47c-1.957 1.164-3.75 2.781-5.321 4.831-.345.45-.662.93-.978 1.41l-2.486-1.739c.07-.714-.227-1.443-.857-1.884-.929-.65-2.209-.423-2.858.505-.65.929-.423 2.209.505 2.858.63.44 1.417.47 2.063.159l2.599 1.817c-1.419 2.56-2.477 5.439-3.168 8.517l-2.936-.672c-.203-.688-.753-1.253-1.502-1.424-1.105-.253-2.206.438-2.459 1.543s.438 2.206 1.543 2.459c.749.172 1.49-.097 1.972-.628l2.989.684c-.51 2.995-.686 6.135-.524 9.31l-3.053.06c-.364-.618-1.034-1.032-1.802-1.017-1.133.022-2.034.959-2.012 2.092s.959 2.034 2.092 2.012c.768-.015 1.421-.455 1.761-1.087l3.167-.062c.313 3.267.978 6.536 2.015 9.695l-2.75 1.197c-.572-.433-1.349-.56-2.054-.254-1.039.452-1.515 1.662-1.063 2.701s1.662 1.515 2.701 1.063c.705-.307 1.141-.962 1.214-1.676l2.612-1.137c.336.882.698 1.753 1.093 2.609 1.178 2.551 2.573 4.958 4.117 7.196l-2.545 1.595c-.63-.343-1.418-.354-2.069.055-.96.602-1.251 1.869-.649 2.829s1.869 1.251 2.829.649c.651-.408.985-1.122.951-1.838l2.647-1.659c1.894 2.512 3.99 4.755 6.2 6.68l-1.972 2.435c-.707-.12-1.456.125-1.939.722-.713.881-.578 2.173.303 2.887.881.713 2.173.578 2.887-.303.484-.597.568-1.38.304-2.047l1.962-2.423c2.602 2.039 5.328 3.635 8.065 4.653l-.956 2.872c-.704.137-1.318.629-1.561 1.358-.358 1.076.224 2.238 1.299 2.596 1.076.358 2.238-.224 2.596-1.299.243-.729.046-1.492-.436-2.023l.961-2.888c1.242.341 2.481.563 3.704.651zm-24.885-23.538c-5.762-12.477-4.942-28.062 1.948-37.057 2.273-2.968 6.04-6.242 11.589-6.242.813 0 1.667.071 2.56.223 10.104 1.727 12.021 10.518 11.848 17.589-.055 2.281-.606 4.708-1.139 7.056-.952 4.193-1.937 8.528-.042 12.101 1.531 2.885 3.274 5.465 4.96 7.96 3.908 5.782 6.994 10.349 4.315 14.479-2.524 3.889-6.342 5.761-11.012 5.433-9.182-.657-19.474-9.515-25.027-21.542z"/><path d="m77.854 102.813c-.5-.238-1.095-.024-1.333.474-.899 1.892-1.968 4.075-3.268 6.056-.303.462-.175 1.082.287 1.385.169.111.359.164.548.164.325 0 .645-.159.837-.451 1.369-2.086 2.475-4.343 3.402-6.294.238-.5.026-1.097-.473-1.334z"/><path d="m118.021 62.488c-4.644.562-7.38 5.036-9.795 8.984-.989 1.618-1.924 3.146-2.895 4.255-2.648 3.022-5.701 3.109-6.483 3.076-.16-.354-.342-.696-.558-1.015-.304-.45-.663-.844-1.059-1.197.365-1.434 1.26-4.083 2.662-5.401.697-.656 1.665-1.191 2.601-1.708 1.857-1.026 3.964-2.19 3.964-4.559 0-.552-.447-1-1-1s-1 .448-1 1c0 1.132-1.114 1.805-2.931 2.809-1.044.576-2.124 1.173-3.005 2.001-1.646 1.548-2.6 4.162-3.055 5.733-1.076-.468-2.32-.698-3.692-.653-4.468.138-7.049 3.496-9.327 6.46-1.66 2.159-3.228 4.199-5.248 4.683-1.91.458-4.717.507-7.688.559-5.264.091-11.229.195-15.892 2.395-4.45 2.099-8.363 6.774-9.968 11.911-1.333 4.266-.974 8.36 1.039 11.839 3.163 5.472 7.826 7.486 12.597 7.486 3.803 0 7.675-1.281 10.908-3.112 1.633-.925 3.084-2.102 4.438-3.599.37-.41.338-1.042-.071-1.412-.409-.371-1.043-.34-1.413.071-1.207 1.335-2.495 2.382-3.939 3.2-6.805 3.854-15.839 4.921-20.788-3.635-2.179-3.768-1.67-7.649-.86-10.241 1.424-4.556 5.005-8.855 8.912-10.699 4.273-2.016 10.011-2.116 15.072-2.204 3.084-.054 5.997-.104 8.121-.613 2.708-.649 4.568-3.069 6.367-5.41 2.202-2.865 4.282-5.571 7.804-5.68 2.146-.073 3.822.658 4.796 2.097 1.18 1.742 1.21 4.325.081 6.91-1.01 2.313-3.647 3.145-6.703 4.106-3.033.956-6.472 2.039-8.8 4.902-1.308 1.609-2.365 3.629-3.229 5.393-.242.496-.037 1.095.459 1.338.497.242 1.095.037 1.338-.459.813-1.662 1.804-3.557 2.984-5.01 1.948-2.398 4.947-3.342 7.849-4.256 3.226-1.016 6.562-2.066 7.936-5.214.086-.198.149-.396.224-.594.835.201 2.139.439 3.671.439 3.063 0 6.978-.957 9.607-5.088.297-.466.159-1.084-.307-1.381-.467-.296-1.084-.159-1.381.307-3.262 5.126-8.885 4.344-11.031 3.817.226-1.151.261-2.276.1-3.326 1.573-.078 4.693-.656 7.401-3.748 1.084-1.237 2.062-2.836 3.098-4.529 2.284-3.735 4.646-7.597 8.328-8.042.548-.066.938-.564.873-1.113-.066-.548-.557-.936-1.112-.873z"/></g></g></g></g></svg>