<svg id="Layer_1" enable-background="new 0 0 512 512" height="512" viewBox="0 0 512 512" width="512" xmlns="http://www.w3.org/2000/svg"><g><g><circle cx="256" cy="256" fill="#d7e123" r="176"/></g><g><path d="m272 112h-32c-13.255 0-24-10.745-24-24v-48c0-13.255 10.745-24 24-24h32c13.255 0 24 10.745 24 24v48c0 13.255-10.745 24-24 24z" fill="#fab991"/></g><g><path d="m240 112h32v16h-32z" fill="#f0915a"/></g><path d="m40 128c-2.122 0-4.157.843-5.657 2.343l-8 8c-3.125 3.124-3.125 8.189 0 11.313 1.562 1.563 3.61 2.344 5.657 2.344s4.095-.781 5.657-2.343l5.656-5.657h20.687v12c0 6.627 5.373 12 12 12h132v-40z" fill="#f0915a"/><path d="m485.657 138.343-8-8c-1.5-1.5-3.535-2.343-5.657-2.343h-168v40h132c6.627 0 12-5.373 12-12v-12h20.687l5.657 5.657c1.562 1.562 3.609 2.343 5.657 2.343s4.095-.781 5.657-2.343c3.123-3.124 3.123-8.19-.001-11.314z" fill="#f0915a"/><g><path d="m320 272h-128v-128c0-8.837 7.163-16 16-16h96c8.837 0 16 7.163 16 16z" fill="#fab991"/></g><g><path d="m192 344h48v128h-48z" fill="#f0915a"/></g><g><path d="m272 344h48v128h-48z" fill="#f0915a"/></g><g><path d="m192 272v72h48v-24h16v-48z" fill="#555a6e"/></g><g><path d="m256 272v48h16v24h48v-72z" fill="#463c4b"/></g><g><circle cx="292" cy="188" fill="#f0915a" r="4"/></g><g><circle cx="220" cy="188" fill="#f0915a" r="4"/></g><g><path d="m188 472h52v12c0 6.627-5.373 12-12 12h-40c-6.627 0-12-5.373-12-12 0-6.627 5.373-12 12-12z" fill="#fab991"/></g><g><path d="m324 472h-52v12c0 6.627 5.373 12 12 12h40c6.627 0 12-5.373 12-12 0-6.627-5.373-12-12-12z" fill="#fab991"/></g><g><path d="m83.602 144h-27.602c-4.418 0-8 3.582-8 8 0 4.418 3.582 8 8 8h8.697c1.649 4.658 6.08 8 11.303 8h8c6.702 0 12.121-5.495 11.998-12.225-.121-6.606-5.789-11.775-12.396-11.775z" fill="#fab991"/></g><g><path d="m428.398 144h27.602c4.418 0 8 3.582 8 8 0 4.418-3.582 8-8 8h-8.697c-1.649 4.658-6.08 8-11.303 8h-8c-6.702 0-12.121-5.495-11.998-12.225.121-6.606 5.789-11.775 12.396-11.775z" fill="#fab991"/></g><path d="m272 16h-32c-13.255 0-24 10.745-24 24v24c4.418 0 8-3.582 8-8v-8c0-4.418 3.582-8 8-8h48c4.418 0 8 3.582 8 8v8c0 4.418 3.582 8 8 8v-24c0-13.255-10.745-24-24-24z" fill="#555a6e"/><g><path d="m296 80v-24c4.418 0 8 3.582 8 8v8c0 4.418-3.582 8-8 8z" fill="#f0915a"/></g><g><path d="m216 80v-24c-4.418 0-8 3.582-8 8v8c0 4.418 3.582 8 8 8z" fill="#f0915a"/></g><g><path d="m488 247.667c-3.018 0-5.643 1.672-7.006 4.14-.32-.082-.649-.14-.994-.14h-8.338c-.612-3.645-2.045-7.01-4.104-9.901l5.898-5.898c.244-.244.436-.517.604-.802 2.708.781 5.747.107 7.881-2.027 3.124-3.124 3.124-8.19 0-11.314s-8.19-3.124-11.314 0c-2.134 2.134-2.808 5.173-2.027 7.881-.284.168-.558.36-.802.604l-5.898 5.898c-2.891-2.059-6.256-3.492-9.901-4.104v-8.338c0-.345-.057-.675-.14-.994 2.467-1.362 4.14-3.988 4.14-7.006 0-4.418-3.582-8-8-8s-8 3.582-8 8c0 3.018 1.672 5.643 4.14 7.006-.082.32-.14.649-.14.994v8.338c-3.646.612-7.01 2.045-9.901 4.104l-5.898-5.898c-.244-.244-.518-.436-.802-.604.781-2.708.107-5.747-2.027-7.881-3.124-3.124-8.19-3.124-11.314 0s-3.124 8.19 0 11.314c2.134 2.134 5.173 2.808 7.881 2.027.168.284.36.557.604.802l5.898 5.898c-2.059 2.891-3.492 6.256-4.104 9.901h-8.336c-.345 0-.675.057-.994.14-1.362-2.467-3.988-4.14-7.006-4.14-4.418 0-8 3.582-8 8s3.582 8 8 8c3.018 0 5.643-1.672 7.006-4.14.32.082.649.14.994.14h8.338c.612 3.646 2.045 7.01 4.104 9.901l-5.898 5.898c-.244.244-.436.517-.604.802-2.708-.781-5.747-.107-7.881 2.027-3.124 3.124-3.124 8.19 0 11.314s8.19 3.124 11.314 0c2.134-2.134 2.808-5.173 2.027-7.881.284-.168.558-.36.802-.604l5.898-5.898c2.891 2.058 6.255 3.492 9.901 4.104v8.338c0 .345.057.674.14.994-2.467 1.362-4.14 3.988-4.14 7.006 0 4.418 3.582 8 8 8s8-3.582 8-8c0-3.018-1.672-5.643-4.14-7.006.082-.32.14-.649.14-.994v-8.338c3.646-.612 7.01-2.045 9.901-4.104l5.898 5.898c.244.244.518.436.802.604-.781 2.708-.107 5.747 2.027 7.881 3.124 3.124 8.19 3.124 11.314 0s3.124-8.19 0-11.314c-2.134-2.134-5.173-2.808-7.881-2.027-.168-.284-.36-.557-.604-.802l-5.898-5.898c2.059-2.891 3.492-6.256 4.104-9.901h8.336c.345 0 .675-.057.994-.14 1.362 2.467 3.988 4.14 7.006 4.14 4.418 0 8-3.582 8-8s-3.582-8-8-8z" fill="#735078"/><g><circle cx="440" cy="247.667" fill="#9b7896" r="8"/></g></g><g><path d="m426.667 366.333c-1.024 0-2.047-.391-2.829-1.172l-42.667-42.667c-1.562-1.562-1.562-4.095 0-5.657l24-24c1.563-1.562 4.095-1.562 5.657 0s1.562 4.095 0 5.657l-21.172 21.172 39.838 39.838c1.562 1.562 1.562 4.095 0 5.657-.78.782-1.804 1.172-2.827 1.172z" fill="#9b7896"/></g><g><path d="m448 387.667c-1.024 0-2.047-.39-2.829-1.172l-10.667-10.667c-1.562-1.562-1.562-4.095 0-5.657 1.563-1.562 4.096-1.562 5.657 0l10.667 10.667c1.562 1.562 1.562 4.095 0 5.657-.781.781-1.805 1.172-2.828 1.172z" fill="#9b7896"/></g><g><path d="m104 344c-3.018 0-5.643 1.672-7.006 4.14-.319-.083-.649-.14-.994-.14h-8.338c-.612-3.646-2.045-7.01-4.104-9.901l5.898-5.898c.244-.244.436-.517.604-.802 2.708.781 5.747.107 7.881-2.027 3.124-3.124 3.124-8.19 0-11.314s-8.19-3.124-11.314 0c-2.134 2.134-2.808 5.173-2.027 7.881-.284.168-.558.36-.802.604l-5.898 5.898c-2.891-2.059-6.256-3.492-9.901-4.104v-8.337c0-.345-.057-.674-.14-.994 2.469-1.363 4.141-3.988 4.141-7.006 0-4.418-3.582-8-8-8s-8 3.582-8 8c0 3.018 1.672 5.643 4.14 7.006-.083.32-.14.649-.14.994v8.338c-3.646.612-7.01 2.045-9.901 4.104l-5.898-5.898c-.244-.244-.518-.436-.802-.604.781-2.708.107-5.747-2.027-7.881-3.124-3.124-8.19-3.124-11.314 0s-3.124 8.19 0 11.314c2.134 2.134 5.173 2.808 7.881 2.027.168.284.36.557.604.802l5.898 5.898c-2.059 2.891-3.492 6.256-4.104 9.901h-8.337c-.345 0-.675.057-.994.14-1.363-2.469-3.988-4.141-7.006-4.141-4.418 0-8 3.582-8 8s3.582 8 8 8c3.018 0 5.643-1.672 7.006-4.14.32.082.649.14.994.14h8.338c.612 3.646 2.045 7.01 4.104 9.901l-5.898 5.898c-.244.244-.436.518-.604.802-2.708-.781-5.747-.107-7.881 2.027-3.124 3.124-3.124 8.189 0 11.314 3.124 3.124 8.19 3.124 11.314 0 2.134-2.134 2.808-5.173 2.027-7.881.284-.168.558-.36.802-.604l5.898-5.898c2.891 2.059 6.256 3.492 9.901 4.104v8.337c0 .345.057.675.14.994-2.469 1.363-4.141 3.988-4.141 7.006 0 4.418 3.582 8 8 8s8-3.582 8-8c0-3.018-1.672-5.643-4.14-7.006.082-.32.14-.649.14-.994v-8.338c3.646-.612 7.01-2.045 9.901-4.104l5.898 5.898c.244.244.518.437.802.604-.781 2.708-.107 5.747 2.027 7.881 3.124 3.124 8.19 3.124 11.314 0s3.124-8.19 0-11.314c-2.134-2.134-5.173-2.808-7.881-2.027-.168-.284-.36-.557-.604-.802l-5.898-5.898c2.059-2.891 3.492-6.256 4.104-9.901h8.337c.345 0 .675-.057.994-.14 1.362 2.467 3.988 4.14 7.006 4.14 4.418 0 8-3.582 8-8 0-4.417-3.582-7.999-8-7.999z" fill="#735078"/><g><circle cx="56" cy="344" fill="#9b7896" r="8"/></g></g><g><path d="m104 316c-1.024 0-2.047-.391-2.829-1.172-1.562-1.562-1.562-4.095 0-5.657l21.172-21.171-39.838-39.838c-1.562-1.562-1.562-4.095 0-5.657 1.563-1.562 4.095-1.562 5.657 0l42.667 42.667c1.562 1.562 1.562 4.095 0 5.657l-24 24c-.782.78-1.805 1.171-2.829 1.171z" fill="#9b7896"/></g><g><path d="m74.667 238.667c-1.024 0-2.047-.39-2.829-1.172l-10.667-10.667c-1.562-1.562-1.562-4.095 0-5.657 1.563-1.562 4.096-1.562 5.657 0l10.667 10.667c1.562 1.562 1.562 4.095 0 5.657-.781.781-1.805 1.172-2.828 1.172z" fill="#9b7896"/></g></g></svg>