<svg height="495pt" viewBox="0 0 495 495.728" width="495pt" xmlns="http://www.w3.org/2000/svg"><path d="m252.203125 191.863281h-16c0 26.472657-21.527344 48-48 48v16c26.472656 0 48 21.527344 48 48h16c0-26.472656 21.527344-48 48-48v-16c-26.472656 0-48-21.527343-48-48zm-8 81.089844c-5.839844-10.539063-14.550781-19.25-25.085937-25.089844 10.535156-5.839843 19.246093-14.550781 25.085937-25.085937 5.839844 10.535156 14.554687 19.246094 25.089844 25.085937-10.535157 5.839844-19.25 14.550781-25.089844 25.089844zm0 0"/><g fill="#f0bc5e"><path d="m68.203125 7.863281h-16c0 26.472657-21.527344 48-48 48v16c26.472656 0 48 21.527344 48 48h16c0-26.472656 21.527344-48 48-48v-16c-26.472656 0-48-21.527343-48-48zm0 0"/><path d="m496.042969 127.863281-68.253907-20.480469 17.4375-44.550781-44.238281 17.320313-20.785156-80.152344-20.792969 80.160156-44.238281-17.320312 17.441406 44.550781-68.25 20.472656 68.257813 20.480469-17.441406 44.550781 44.242187-17.320312 20.78125 80.152343 20.792969-80.152343 44.238281 17.320312-17.4375-44.550781zm0 0"/><path d="m356.058594 386.671875 8.769531-27.433594-25.921875 8.28125-14.703125-54.183593-14.710937 54.175781-25.921876-8.28125 8.769532 27.433593-25.601563 13.199219 25.609375 13.191407-8.769531 27.433593 25.921875-8.28125 14.703125 54.183594 14.710937-54.175781 25.921876 8.28125-8.769532-27.433594 25.601563-13.199219zm0 0"/></g><path d="m452.203125 407.863281h-16c0 17.648438-14.351563 32-32 32v16c17.648437 0 32 14.351563 32 32h16c0-17.648437 14.351563-32 32-32v-16c-17.648437 0-32-14.351562-32-32zm-8 53.519531c-3.558594-5.359374-8.160156-9.957031-13.519531-13.519531 5.359375-3.558593 9.960937-8.160156 13.519531-13.519531 3.5625 5.359375 8.160156 9.960938 13.519531 13.519531-5.359375 3.5625-9.957031 8.160157-13.519531 13.519531zm0 0"/><path d="m204.203125 190.390625-14.710937-54.175781-25.921876 8.28125 8.769532-27.433594-25.601563-13.199219 25.609375-13.191406-8.769531-27.433594 25.921875 8.28125 14.703125-54.183593 14.710937 54.175781 25.921876-8.28125-8.769532 27.433593 25.601563 13.199219-25.609375 13.191407 8.769531 27.433593-25.921875-8.28125zm-3.65625-74.511719 3.65625 13.457032 3.65625-13.457032 12.289063 3.929688-3.441407-10.769532 10.03125-5.175781-10.03125-5.167969 3.441407-10.765624-12.289063 3.925781-3.65625-13.464844-3.65625 13.457031-12.285156-3.925781 3.4375 10.765625-10.03125 5.175781 10.03125 5.167969-3.4375 10.769531zm0 0"/><path d="m116.203125 495.726562-20.792969-80.160156-44.246094 17.320313 17.449219-44.550781-68.25-20.472657 68.257813-20.480469-17.441406-44.550781 44.242187 17.320313 20.78125-80.152344 20.792969 80.160156 44.238281-17.320312-17.4375 44.550781 68.246094 20.472656-68.253907 20.480469 17.4375 44.550781-44.238281-17.320312zm-9.832031-101.621093 9.832031 37.894531 9.832031-37.894531 26.96875 10.558593-10.433594-26.65625 33.792969-10.144531-33.800781-10.144531 10.433594-26.65625-26.96875 10.5625-9.824219-37.898438-9.832031 37.898438-26.96875-10.5625 10.433594 26.65625-33.792969 10.144531 33.800781 10.144531-10.433594 26.65625zm0 0"/><path d="m412.203125 255.863281h16v16h-16zm0 0"/><path d="m364.203125 303.863281h16v16h-16zm0 0"/><path d="m52.203125 183.863281h16v16h-16zm0 0"/><path d="m116.203125 151.863281h16v16h-16zm0 0"/><path d="m68.203125 263.863281h16v16h-16zm0 0"/><path d="m228.203125 431.863281h16v16h-16zm0 0"/><path d="m300.203125 31.863281h16v16h-16zm0 0"/></svg>