<?xml version="1.0" encoding="iso-8859-1"?>
<!-- Generator: Adobe Illustrator 19.0.0, SVG Export Plug-In . SVG Version: 6.00 Build 0)  -->
<svg version="1.1" id="Layer_1" xmlns="http://www.w3.org/2000/svg" xmlns:xlink="http://www.w3.org/1999/xlink" x="0px" y="0px"
	 viewBox="0 0 512 512" style="enable-background:new 0 0 512 512;" xml:space="preserve">
<path style="fill:#BE6054;" d="M216.458,121.082c-9.06-32.087-47.194-44.239-72.528-23.106C56.081,171.258,0,282.71,0,407.534
	c0,20.52,1.52,40.679,4.445,60.366c1.96,13.197,11.199,24.128,23.731,27.949c21.638,6.596,44.564,10.144,68.304,10.144
	c32.856,0,64.153-6.794,92.63-19.068c8.949-3.857,15.863-11.419,19.013-20.797c19.594-58.33,30.236-120.901,30.236-186.011
	C238.358,224.936,230.716,171.578,216.458,121.082z"/>
<g>
	<path style="opacity:0.15;fill:#F2CDB7;enable-background:new    ;" d="M182.168,434.935l1.069-0.907
		c44.671-38.949,54.143-146.322,55.082-158.544c-0.416-53.562-8.01-105.378-21.883-154.481
		c-9.071-32.106-47.28-44.086-72.622-22.928c-65.967,55.07-114,131.674-133.802,219.297c7.05,41.253,24.245,78.938,48.856,110.306
		c11.487,14.64,29.247,22.597,47.596,21.532c12.051-0.7,25.719-1.134,41.092-1.134C160.937,448.076,172.379,443.132,182.168,434.935
		z"/>
	<path style="opacity:0.15;fill:#F2CDB7;enable-background:new    ;" d="M144.063,97.865
		C90.974,142.111,49.479,200.293,24.928,266.94c-2.9,7.872,0.203,16.708,7.272,21.031c35.935,21.977,77.98,34.618,122.922,34.618
		c24.784,0,48.688-3.844,71.172-10.976c6.927-2.198,11.651-8.722,11.851-16.122c0.138-5.108,0.213-10.232,0.213-15.375
		c0-55.181-7.642-108.539-21.901-159.035C207.418,89.067,169.35,76.79,144.063,97.865z"/>
	<path style="opacity:0.2;fill:#F2CDB7;enable-background:new    ;" d="M103.771,164.059c-11.146,23.252-11.25,46.87-0.233,52.75
		c11.017,5.881,28.983-8.201,40.129-31.454c11.146-23.253,11.25-46.87,0.233-52.75C132.883,126.725,114.918,140.807,103.771,164.059
		z"/>
</g>
<g>
	<path style="opacity:0.5;fill:#612721;enable-background:new    ;" d="M215.247,117.365c-9.015-24.314-44.68-17.877-44.988,8.117
		c-0.002,0.152-0.002,0.305-0.002,0.457l0,0c0,20.626,8.978,40.187,24.504,53.391l0,0c26.502,22.539,42.27,55.486,43.509,90.529
		c-0.886-51.538-8.439-101.416-21.812-148.777C216.099,119.811,215.695,118.571,215.247,117.365z"/>
	<path style="opacity:0.5;fill:#612721;enable-background:new    ;" d="M79.833,470.552c23.846,2.381,62,7.285,95.836-0.659
		c12.031-2.574,22.949-8.737,31.435-17.543c5.384-5.587,9.185-12.565,11.218-20.12c0.008-0.028,0.015-0.057,0.023-0.085l0.042-0.027
		c1.11-4.132,2.16-8.289,3.182-12.458c0.108-0.44,0.214-0.88,0.321-1.32c0.652-2.687,1.301-5.374,1.9-8.074
		c0.213-0.959,0.434-1.915,0.648-2.874c0.679-3.057,1.335-6.123,1.965-9.197c0.065-0.32,0.14-0.636,0.205-0.956l-0.006,0.005
		c7.696-37.813,11.758-76.985,11.758-117.128c0-1.724,0.015-3.443,0-5.164c-0.674,9.171-9.71,119.481-55.122,159.077l-1.069,0.907
		c-9.789,8.197-21.232,13.14-34.613,13.14c-62.344,0-96.733,7.131-108.654,10.203c-0.556,0.143-1.284,0.866-1.284,0.866
		c-0.077,0.102-0.147,0.209-0.206,0.321c-0.71,1.32,0.119,2.972,1.534,3.395C52.257,466.841,65.965,469.167,79.833,470.552z"/>
</g>
<path style="fill:#BE6054;" d="M295.542,121.082c9.06-32.087,47.194-44.239,72.528-23.106C455.919,171.257,512,282.71,512,407.533
	c0,20.52-1.52,40.679-4.445,60.366c-1.96,13.197-11.199,24.128-23.731,27.949c-21.638,6.596-44.564,10.144-68.304,10.144
	c-32.856,0-64.153-6.794-92.63-19.068c-8.949-3.857-15.863-11.419-19.013-20.797c-19.594-58.33-30.236-120.901-30.236-186.011
	C273.642,224.936,281.284,171.578,295.542,121.082z"/>
<g>
	<path style="opacity:0.15;fill:#F2CDB7;enable-background:new    ;" d="M273.765,276.531c0.013,0.157,0.026,0.316,0.041,0.49
		c0.012,0.138,0.024,0.291,0.037,0.44c0.015,0.174,0.03,0.352,0.047,0.541c0.014,0.164,0.03,0.338,0.045,0.513
		c0.019,0.212,0.038,0.43,0.059,0.657c0.015,0.171,0.031,0.345,0.048,0.524c0.023,0.247,0.048,0.505,0.072,0.767
		c0.019,0.194,0.037,0.387,0.056,0.59c0.027,0.274,0.055,0.564,0.084,0.853c0.02,0.202,0.04,0.401,0.06,0.61
		c0.035,0.348,0.072,0.713,0.11,1.08c0.017,0.172,0.034,0.337,0.052,0.513c0.116,1.113,0.245,2.308,0.388,3.581
		c0.021,0.181,0.043,0.372,0.064,0.557c0.052,0.46,0.106,0.924,0.162,1.403c0.028,0.24,0.057,0.487,0.086,0.731
		c0.052,0.443,0.106,0.891,0.162,1.349c0.033,0.269,0.066,0.543,0.1,0.816c0.056,0.452,0.113,0.91,0.171,1.377
		c0.036,0.285,0.072,0.573,0.109,0.863c0.062,0.479,0.124,0.965,0.188,1.458c0.038,0.294,0.077,0.588,0.116,0.886
		c0.067,0.509,0.137,1.028,0.209,1.55c0.04,0.288,0.078,0.576,0.119,0.869c0.08,0.579,0.163,1.169,0.246,1.763
		c0.03,0.214,0.059,0.426,0.091,0.642c4.523,31.594,27.035,57.665,57.662,66.654l0,0c19.024,5.584,31.869,23.319,31.242,43.135
		l-0.867,27.4c-0.152,4.808,3.609,8.817,8.401,8.986c9.658,0.106,18.596,0.381,26.826,0.786c0.279,0.013,0.543,0.026,0.807,0.037
		c0.078,0.003,0.158,0.008,0.236,0.012c0.18,0.009,0.373,0.017,0.544,0.027c1.359,0.07,2.695,0.144,4.016,0.221
		c18.342,1.059,36.095-6.896,47.579-21.532c24.61-31.368,41.806-69.053,48.856-110.306
		c-19.802-87.623-67.834-164.227-133.802-219.298c-25.342-21.158-63.552-9.178-72.622,22.928
		c-13.873,49.104-21.467,100.92-21.883,154.481c0.007,0.09,0.016,0.201,0.023,0.301c0.009,0.124,0.019,0.245,0.03,0.385
		C273.745,276.282,273.756,276.41,273.765,276.531z"/>
	<path style="opacity:0.15;fill:#F2CDB7;enable-background:new    ;" d="M275.608,293.923c-0.058-0.466-0.115-0.924-0.171-1.377
		C275.492,292.999,275.549,293.457,275.608,293.923z"/>
</g>
<path style="opacity:0.5;fill:#612721;enable-background:new    ;" d="M275.608,293.923c-0.058-0.466-0.115-0.924-0.171-1.377
	C275.492,292.999,275.549,293.457,275.608,293.923z"/>
<path style="opacity:0.15;fill:#F2CDB7;enable-background:new    ;" d="M276.596,301.311c-0.084-0.593-0.167-1.184-0.246-1.763
	C276.43,300.128,276.513,300.717,276.596,301.311z"/>
<path style="opacity:0.5;fill:#612721;enable-background:new    ;" d="M276.596,301.311c-0.084-0.593-0.167-1.184-0.246-1.763
	C276.43,300.128,276.513,300.717,276.596,301.311z"/>
<path style="opacity:0.15;fill:#F2CDB7;enable-background:new    ;" d="M276.231,298.68c-0.071-0.522-0.141-1.041-0.209-1.55
	C276.091,297.639,276.16,298.158,276.231,298.68z"/>
<path style="opacity:0.5;fill:#612721;enable-background:new    ;" d="M276.231,298.68c-0.071-0.522-0.141-1.041-0.209-1.55
	C276.091,297.639,276.16,298.158,276.231,298.68z"/>
<path style="opacity:0.15;fill:#F2CDB7;enable-background:new    ;" d="M275.906,296.243c-0.064-0.492-0.128-0.979-0.188-1.458
	C275.779,295.265,275.842,295.751,275.906,296.243z"/>
<path style="opacity:0.5;fill:#612721;enable-background:new    ;" d="M275.906,296.243c-0.064-0.492-0.128-0.979-0.188-1.458
	C275.779,295.265,275.842,295.751,275.906,296.243z"/>
<path style="opacity:0.15;fill:#F2CDB7;enable-background:new    ;" d="M400.758,448.951c-0.264-0.013-0.528-0.024-0.807-0.037
	C400.217,448.926,400.493,448.937,400.758,448.951z"/>
<path style="opacity:0.5;fill:#612721;enable-background:new    ;" d="M400.758,448.951c-0.264-0.013-0.528-0.024-0.807-0.037
	C400.217,448.926,400.493,448.937,400.758,448.951z"/>
<path style="opacity:0.15;fill:#F2CDB7;enable-background:new    ;" d="M273.806,277.02c-0.014-0.173-0.028-0.331-0.041-0.49
	C273.778,276.689,273.791,276.846,273.806,277.02z"/>
<path style="opacity:0.5;fill:#612721;enable-background:new    ;" d="M273.806,277.02c-0.014-0.173-0.028-0.331-0.041-0.49
	C273.778,276.689,273.791,276.846,273.806,277.02z"/>
<path style="opacity:0.15;fill:#F2CDB7;enable-background:new    ;" d="M273.89,278c-0.016-0.188-0.031-0.366-0.047-0.541
	C273.858,277.635,273.873,277.811,273.89,278z"/>
<path style="opacity:0.5;fill:#612721;enable-background:new    ;" d="M273.89,278c-0.016-0.188-0.031-0.366-0.047-0.541
	C273.858,277.635,273.873,277.811,273.89,278z"/>
<path style="opacity:0.15;fill:#F2CDB7;enable-background:new    ;" d="M275.337,291.73c-0.056-0.458-0.109-0.906-0.162-1.349
	C275.228,290.825,275.281,291.272,275.337,291.73z"/>
<path style="opacity:0.5;fill:#612721;enable-background:new    ;" d="M275.337,291.73c-0.056-0.458-0.109-0.906-0.162-1.349
	C275.228,290.825,275.281,291.272,275.337,291.73z"/>
<path style="opacity:0.15;fill:#F2CDB7;enable-background:new    ;" d="M273.706,275.785c0.009,0.124,0.019,0.244,0.03,0.385
	C273.724,276.031,273.715,275.91,273.706,275.785z"/>
<path style="opacity:0.5;fill:#612721;enable-background:new    ;" d="M273.706,275.785c0.009,0.124,0.019,0.244,0.03,0.385
	C273.724,276.031,273.715,275.91,273.706,275.785z"/>
<path style="opacity:0.15;fill:#F2CDB7;enable-background:new    ;" d="M400.994,448.963c1.539,0.078,3.055,0.16,4.544,0.246
	c0.006,0,0.012,0,0.017,0c-1.321-0.077-2.656-0.151-4.016-0.221C401.367,448.98,401.174,448.971,400.994,448.963z"/>
<path style="opacity:0.5;fill:#612721;enable-background:new    ;" d="M400.994,448.963c1.539,0.078,3.055,0.16,4.544,0.246
	c0.006,0,0.012,0,0.017,0c-1.321-0.077-2.656-0.151-4.016-0.221C401.367,448.98,401.174,448.971,400.994,448.963z"/>
<path style="opacity:0.15;fill:#F2CDB7;enable-background:new    ;" d="M273.994,279.17c-0.021-0.227-0.041-0.445-0.059-0.657
	C273.954,278.725,273.973,278.942,273.994,279.17z"/>
<path style="opacity:0.5;fill:#612721;enable-background:new    ;" d="M273.994,279.17c-0.021-0.227-0.041-0.445-0.059-0.657
	C273.954,278.725,273.973,278.942,273.994,279.17z"/>
<path style="opacity:0.15;fill:#F2CDB7;enable-background:new    ;" d="M275.088,289.65c-0.056-0.479-0.109-0.943-0.162-1.403
	C274.98,288.707,275.033,289.171,275.088,289.65z"/>
<path style="opacity:0.5;fill:#612721;enable-background:new    ;" d="M275.088,289.65c-0.056-0.479-0.109-0.943-0.162-1.403
	C274.98,288.707,275.033,289.171,275.088,289.65z"/>
<path style="opacity:0.15;fill:#F2CDB7;enable-background:new    ;" d="M274.864,287.691c-0.143-1.273-0.272-2.47-0.388-3.581
	C274.592,285.221,274.721,286.417,274.864,287.691z"/>
<path style="opacity:0.5;fill:#612721;enable-background:new    ;" d="M274.864,287.691c-0.143-1.273-0.272-2.47-0.388-3.581
	C274.592,285.221,274.721,286.417,274.864,287.691z"/>
<path style="opacity:0.15;fill:#F2CDB7;enable-background:new    ;" d="M274.423,283.596c-0.037-0.367-0.076-0.733-0.11-1.08
	C274.348,282.863,274.386,283.228,274.423,283.596z"/>
<path style="opacity:0.5;fill:#612721;enable-background:new    ;" d="M274.423,283.596c-0.037-0.367-0.076-0.733-0.11-1.08
	C274.348,282.863,274.386,283.228,274.423,283.596z"/>
<path style="opacity:0.15;fill:#F2CDB7;enable-background:new    ;" d="M274.254,281.905c-0.029-0.29-0.057-0.579-0.084-0.853
	C274.197,281.326,274.224,281.614,274.254,281.905z"/>
<path style="opacity:0.5;fill:#612721;enable-background:new    ;" d="M274.254,281.905c-0.029-0.29-0.057-0.579-0.084-0.853
	C274.197,281.326,274.224,281.614,274.254,281.905z"/>
<path style="opacity:0.15;fill:#F2CDB7;enable-background:new    ;" d="M274.114,280.462c-0.024-0.263-0.049-0.521-0.072-0.767
	C274.065,279.941,274.088,280.198,274.114,280.462z"/>
<path style="opacity:0.5;fill:#612721;enable-background:new    ;" d="M274.114,280.462c-0.024-0.263-0.049-0.521-0.072-0.767
	C274.065,279.941,274.088,280.198,274.114,280.462z"/>
<path style="opacity:0.15;fill:#F2CDB7;enable-background:new    ;" d="M367.938,97.865
	c53.088,44.246,94.583,102.428,119.135,169.075c2.9,7.872-0.203,16.708-7.272,21.031c-35.935,21.977-77.98,34.618-122.922,34.618
	c-24.784,0-48.688-3.844-71.172-10.976c-6.927-2.198-11.651-8.722-11.851-16.122c-0.138-5.108-0.213-10.232-0.213-15.375
	c0-55.181,7.642-108.539,21.901-159.035C304.583,89.067,342.651,76.79,367.938,97.865z"/>
<g>
	<path style="opacity:0.5;fill:#612721;enable-background:new    ;" d="M296.753,117.365c9.015-24.314,44.68-17.877,44.988,8.117
		c0.002,0.152,0.002,0.305,0.002,0.457l0,0c0,20.626-8.978,40.187-24.504,53.391l0,0c-26.502,22.539-42.27,55.486-43.509,90.529
		c0.886-51.538,8.439-101.416,21.812-148.777C295.901,119.811,296.305,118.571,296.753,117.365z"/>
	<path style="opacity:0.5;fill:#612721;enable-background:new    ;" d="M474.588,459.466c-0.06-0.112-0.129-0.219-0.206-0.321
		c0,0-0.727-0.723-1.284-0.866c-8.98-2.314-30.717-6.931-67.545-9.069c-0.006,0-0.012,0-0.017,0
		c-1.489-0.086-3.005-0.169-4.544-0.247c-0.078-0.003-0.157-0.008-0.236-0.012c-0.265-0.013-0.541-0.024-0.807-0.037
		c-6.977-0.314-18.652-0.603-26.706-0.777c-0.041-0.001-0.079-0.007-0.12-0.008c-4.792-0.169-8.553-4.178-8.401-8.986l0.867-27.4
		c0.627-19.816-12.218-37.551-31.242-43.135l0,0c-30.626-8.989-53.139-35.059-57.662-66.654c-0.001-0.01-0.003-0.021-0.005-0.033
		c-0.029-0.207-0.056-0.405-0.085-0.609c-0.084-0.594-0.167-1.184-0.246-1.763c-0.041-0.293-0.079-0.579-0.119-0.869
		c-0.071-0.522-0.141-1.041-0.209-1.55c-0.04-0.299-0.078-0.592-0.116-0.886c-0.064-0.492-0.128-0.978-0.188-1.458
		c-0.037-0.291-0.073-0.578-0.109-0.863c-0.059-0.466-0.115-0.924-0.171-1.377c-0.034-0.273-0.067-0.548-0.1-0.816
		c-0.056-0.458-0.109-0.906-0.162-1.349c-0.029-0.244-0.058-0.492-0.086-0.731c-0.056-0.479-0.109-0.943-0.162-1.403
		c-0.021-0.185-0.043-0.376-0.064-0.557c-0.143-1.273-0.272-2.47-0.388-3.581c-0.019-0.177-0.035-0.341-0.052-0.513
		c-0.038-0.367-0.076-0.733-0.11-1.08c-0.021-0.21-0.041-0.407-0.06-0.61c-0.029-0.291-0.057-0.578-0.084-0.853
		c-0.02-0.202-0.037-0.395-0.056-0.59c-0.024-0.263-0.049-0.52-0.072-0.767c-0.016-0.18-0.033-0.352-0.048-0.524
		c-0.021-0.227-0.041-0.444-0.059-0.657c-0.015-0.176-0.03-0.348-0.045-0.513c-0.016-0.19-0.031-0.365-0.047-0.541
		c-0.013-0.15-0.026-0.3-0.037-0.44c-0.015-0.174-0.028-0.331-0.041-0.49c-0.01-0.122-0.021-0.249-0.029-0.36
		c-0.012-0.141-0.021-0.26-0.03-0.385c-0.026-0.326-0.048-0.617-0.064-0.833c-0.015,1.721,0,3.439,0,5.164
		c0,40.143,4.061,79.315,11.758,117.128l-0.006-0.005c0.065,0.32,0.138,0.636,0.205,0.956c0.631,3.076,1.286,6.141,1.965,9.197
		c0.214,0.96,0.435,1.917,0.648,2.878c0.599,2.698,1.248,5.385,1.9,8.071c0.107,0.441,0.213,0.881,0.321,1.32
		c1.022,4.168,2.072,8.325,3.182,12.458l0.042,0.026c0.008,0.028,0.015,0.057,0.023,0.085c2.034,7.556,5.835,14.534,11.218,20.12
		c8.486,8.806,19.405,14.968,31.435,17.543c33.834,7.945,71.99,3.041,95.836,0.659c13.868-1.385,27.576-3.712,40.887-7.692
		C474.47,462.438,475.299,460.785,474.588,459.466z"/>
</g>
<path style="fill:#DAC69C;" d="M317.239,179.33L317.239,179.33c2.539-2.16,4.885-4.506,7.064-6.982l-41.058-34.215
	c-2.651-2.209-4.184-5.481-4.184-8.932V29.819c0-12.61-9.806-23.349-22.407-23.797c-13.23-0.471-24.103,10.115-24.103,23.24V129.2
	c0,3.451-1.533,6.723-4.184,8.932l-40.836,34.03c2.223,2.546,4.625,4.953,7.229,7.167l0,0c9.366,7.965,17.383,17.236,23.9,27.433
	l29.701-24.752c4.311-3.593,10.575-3.593,14.888,0l29.955,24.963C299.747,196.694,307.81,187.35,317.239,179.33z"/>
<g>
	<path style="fill:#C9AD80;" d="M279.062,62.649V29.819c0-0.133-0.016-0.26-0.019-0.392c-0.042,5.9-2.301,11.787-6.793,16.279
		c-9.067,9.067-23.82,9.067-32.887,0c-5.591-5.591-7.722-13.343-6.418-20.591c-0.243,1.349-0.393,2.729-0.393,4.148v33.386
		c6.96,4.852,15.104,7.29,23.255,7.29C263.957,69.939,272.101,67.501,279.062,62.649z"/>
	<path style="fill:#C9AD80;" d="M232.558,96.913c-0.005,0.197,0.015,0.39,0.015,0.585c6.956,4.813,15.091,7.231,23.233,7.231
		c8.142,0,16.277-2.417,23.233-7.231c0-0.195,0.02-0.388,0.015-0.585h0.007V63.67h-0.007c0.155,6.382-2.25,12.371-6.768,16.861
		c-9.087,9.031-23.873,9.03-32.961,0c-4.518-4.491-6.923-10.479-6.768-16.861h-0.007v33.243L232.558,96.913z"/>
	<path style="fill:#C9AD80;" d="M279.157,130.63c-0.058-0.472-0.095-0.949-0.095-1.43V97.483c-0.007,0.005-0.015,0.01-0.022,0.015
		c-0.002,6.161-2.373,11.924-6.753,16.276c-9.087,9.031-23.873,9.03-32.961,0c-4.379-4.352-6.75-10.115-6.753-16.276
		c-0.007-0.005-0.015-0.01-0.022-0.015V129.2c0,0.481-0.037,0.958-0.095,1.43l0.102,0.002c-0.001,0.034,0.003,0.066,0.002,0.099
		c6.958,4.818,15.1,7.239,23.246,7.239s16.288-2.421,23.246-7.239c-0.001-0.034,0.004-0.066,0.002-0.1L279.157,130.63z"/>
	<path style="fill:#C9AD80;" d="M289.689,143.502l-6.444-5.37c-2.274-1.895-3.717-4.574-4.084-7.475
		c-0.036,0.026-0.073,0.05-0.109,0.076c0.127,6.345-2.271,12.295-6.766,16.762c-9.087,9.031-23.873,9.031-32.961,0
		c-4.495-4.467-6.893-10.417-6.766-16.762c-0.036-0.026-0.073-0.05-0.109-0.076c-0.366,2.901-1.81,5.581-4.084,7.475l-6.118,5.099
		l-4.099,3.416c2.017,4.881,5.003,9.365,8.881,13.219c7.933,7.883,18.354,11.825,28.775,11.825s20.841-3.942,28.775-11.825
		c3.879-3.855,6.865-8.338,8.881-13.219L289.689,143.502z"/>
	<circle style="fill:#C9AD80;" cx="255.806" cy="29.266" r="8.721"/>
</g>
<g>
	<path style="opacity:0.5;fill:#B69362;enable-background:new    ;" d="M283.245,138.133c-2.651-2.209-4.184-5.481-4.184-8.932
		V29.819c0-0.076-0.007-0.15-0.007-0.226c-0.083,5.844-2.336,11.662-6.789,16.112c-1.486,1.485-3.124,2.727-4.866,3.724
		c-7.194,4.125-11.593,11.817-11.593,20.109v59.66c0,10.352,4.599,20.17,12.551,26.798l39.133,32.611
		c3.065-3.255,6.314-6.356,9.75-9.278l0,0c2.539-2.16,4.885-4.506,7.064-6.982L283.245,138.133z"/>
	<path style="opacity:0.5;fill:#B69362;enable-background:new    ;" d="M204.973,189.101L204.973,189.101
		c5.105,5.48,9.682,11.394,13.688,17.662l29.701-24.752c2.156-1.796,4.799-2.694,7.442-2.695h-23.706
		C222.192,179.317,212.598,182.778,204.973,189.101z"/>
</g>
<g>
</g>
<g>
</g>
<g>
</g>
<g>
</g>
<g>
</g>
<g>
</g>
<g>
</g>
<g>
</g>
<g>
</g>
<g>
</g>
<g>
</g>
<g>
</g>
<g>
</g>
<g>
</g>
<g>
</g>
</svg>
