<svg height="512" viewBox="0 0 53 59" width="512" xmlns="http://www.w3.org/2000/svg"><g id="Page-1" fill="none" fill-rule="evenodd"><g id="021---Brain-Profile" fill-rule="nonzero"><path id="Shape" d="m46.23 55.13c.2993503.6196415.2591127 1.3496617-.1065246 1.9326501s-1.0053141.9370537-1.6934754.9373499h-20.17c-.858799-.0035163-1.6194833-.5549118-1.89-1.37-.5672804-1.7571034-1.448169-3.3969114-2.6-4.84-.509616-.6128899-1.1436068-1.1105386-1.86-1.46-.02-.01-.03-.02-.05-.03-2.8476515 1.0311337-5.7484703 1.909057-8.69 2.63-1.43386925.3058116-2.85257563-.5781176-3.21-2-.85-2.46.33-3.13-.05-4.6-.26-1.02-1.22-1.27-1.98-1.81-.61-.43.49-1.84.49-1.84s-1.17-.87-1.59-1.25c-.44-.37.17-.99.73-2.16.22857894-.5041746.29159227-1.0677938.18-1.61-.2-1.08-1.82-1.48-2.62-2.08-1.67-1.24-1.76-1.54 2.6-6.25.91311456-1.0615165 1.49081641-2.3700459 1.66-3.76.08-.47.56-.98.55-1.55-.02-1.43-2.09-2.02-2.28-3.41-.15-1.08 1.24-3.05 1.69-4.98.24613795-1.1813929.56338182-2.3468467.95-3.49.83024267-2.30209221 2.11966974-4.4114452 3.79-6.2 2.45-2.6 5.85-3.72 9.29-4.52 12.58-2.9 18.89-1.31 26.06 4.33 2.7040838 2.01294837 4.6773227 4.8534293 5.62 8.09.7219224 2.6718051 1.0586539 5.4330027 1 8.2-.1 7.34-4.77 9.91-6.85 14.66-1.2724507 2.9274818-1.7485282 6.1392796-1.38 9.31.2766674 3.1445372 1.0883353 6.2187294 2.4 9.09z" fill="#fdd7ad"/><path id="Shape" d="m42.8 59c-.4187597-.0000982-.7931091-.2611052-.938-.654-2.033-5.509-4.1-11.945-2.916-18.611.079-.444.173-.9.268-1.352.2774321-1.1169833.4339981-2.2605517.467-3.411v-2.907c0-.5522847.4477153-1 1-1s1 .4477153 1 1v2.9c-.0283767 1.2924831-.1990732 2.5779051-.509 3.833-.091.435-.182.865-.256 1.29-1.1 6.176.88 12.308 2.822 17.571.1110675.3061868.0660586.6472807-.1206297.9141774-.1866883.2668966-.491662.4261508-.8173703.4268226z" fill="#f29c1f"/><path id="Shape" d="m38.255 59c-.4187597-.0000982-.7931091-.2611052-.938-.654-2.033-5.51-4.1-11.946-2.916-18.611.078-.443.172-.892.267-1.346.522-2.487 1.016-4.837-.937-7.223-.2327449-.275849-.2987877-.6557102-.1728048-.9939277.1259829-.3382176.4244411-.5823055.7809323-.6386694.3564911-.056364.7156934.0837428.9398725.3665971 2.558 3.127 1.915 6.2 1.347 8.9-.091.432-.181.861-.255 1.284-1.1 6.174.88 12.306 2.822 17.57.1131323.3067764.0691422.6494844-.1178017.917743-.1869439.2682585-.4932263.4281803-.8201983.428257z" fill="#3b97d3"/><path id="Shape" d="m27 45.71c.06 2.51-2.08 4.45-6.36 5.78-.18.06-.48.16-.87.3-.509616-.6128899-1.1436068-1.1105386-1.86-1.46.25-.09.48-.17.7-.25.66-.23 1.16-.41 1.42-.49 3.24-1.01 5-2.37 4.97-3.84-.0110457-.5522847.4277153-1.0089543.98-1.02s1.0089543.4277153 1.02.98z" fill="#f9c795"/><path id="Shape" d="m46.06 20.88c-.0010417 1.240798-.4401913 2.4413764-1.24 3.39l-.03.03c-.0276383.0474305-.0612458.0911202-.1.13h-.01c-.1767783.9754576-.5511089 1.9044779-1.1 2.73-.6732433 1.0340543-1.5945646 1.8831825-2.68 2.47.5831918.8081003 1.0291716 1.7068172 1.32 2.66.0672906.2066257.1010516.4226958.1.64-.0027109.8306107-.4974831 1.5806226-1.26 1.91-.8660697.3557134-1.8629523.0993722-2.45-.63-.659391-.7651575-1.5177695-1.3327949-2.48-1.64-3.14-1.05-4.08-2.11-4.29-3.91h-.06c-1.0743441.0013295-2.1394124-.1987948-3.14-.59-1.2305134 1.4286827-3.1308762 2.0905931-4.9826893 1.7355074s-3.3725454-1.672992-3.9873107-3.4555074h-.02c-.6300285.2325208-1.2900143.3739463-1.96.42-.17.01-.33.02-.5.02-2.6993401-.0093794-5.1636436-1.537131-6.3725229-3.9506628-1.20887933-2.4135318-.95654372-5.3019818.6525229-7.4693372-.1122369-.3283723-.1696709-.6729764-.17-1.02-.0030106-1.4856625 1.0435767-2.7666855 2.5-3.06-.01-.12-.02-.24-.02-.37-.000557-2.22755844 1.802447-4.03503646 4.03-4.04.6064408-.00400844 1.2055213.13292424 1.75.4 1.0645952-1.79239317 2.9952852-2.89075816 5.08-2.89 1.4330597-.00361382 2.817475.5195457 3.89 1.47.6130013-.98880464 1.7280309-1.55114416 2.8875588-1.45627371 1.1595278.09487046 2.1683209.83097731 2.6124412 1.90627371.2822318-.03189603.5659751-.04858682.85-.05 3.8778796.00265669 7.107234 2.97557516 7.43 6.84h.02c1.1048357.0073527 2.1234469.598295 2.6782364 1.5537659.5547896.9554709.5630669 2.1330587.0217636 3.0962341.6707879.9055283 1.0319652 2.0030865 1.03 3.13z" fill="#fb7b76"/><g fill="#df4d60"><path id="Shape" d="m19.59 24.42c-.0554008.2765159-.0822085.5579975-.08.84-.0003444.3678384.0467097.7341881.14 1.09-.6300285.2325208-1.2900143.3739463-1.96.42-.1212978-.4839312-.1817645-.9811018-.18-1.48-1.7669802-.1843123-3.1093471-1.6734332-3.11-3.45.0010549-.5534799.446558-1.003438 1-1.01.2628837-.0037377.5163734.0976681.7041472.2816865.1877739.1840184.2942795.435408.2958528.6983135v.03c.0178699.7889951.6417979 1.4303756 1.43 1.47.1425391-.4494428.333669-.8820001.57-1.29.2871881-.4722035.9027965-.6221881 1.375-.335s.6221881.9027965.335 1.375c-.2550764.4177029-.4313291.8786715-.52 1.36z"/><path id="Shape" d="m44.79 24.3c-.0276383.0474305-.0612458.0911202-.1.13h-.01c-.1767783.9754576-.5511089 1.9044779-1.1 2.73-.5291392.1560713-1.0783354.2335652-1.63.23-.9916034.0020158-1.9691278-.234648-2.85-.69-.4213739-.217606-.8143338-.4862965-1.17-.8-.3968822.1623813-.8211929.2472435-1.25.25-1.3232693.0054101-2.5340087-.7435409-3.12-1.93-.1212373-.2368248-.1418376-.5125367-.0571397-.7647484.084698-.2522117.2675351-.459605.5071397-.5752516.4916536-.2469243 1.0904244-.050313 1.34.44.3057235.617186.9963556.9423986 1.6668655.7849123.6705099-.1574864 1.1441446-.7561566 1.1431345-1.4449123.0029211-.2331313-.0520551-.4633441-.16-.67-.2390609-.4947374-.0392153-1.089833.45-1.34.2368248-.1212373.5125367-.1418376.7647484-.0571397.2522117.084698.459605.2675351.5752516.5071397.2420334.4844913.3686701 1.0184188.37 1.56-.0084263.7033183-.2317469 1.3872374-.64 1.96.1573786.1094159.3209882.209585.49.3 1.5702973.7897049 3.4631368.5441902 4.78-.62z"/><path id="Shape" d="m25.855 12.39c0-.5522847-.4477153-1-1-1-2.5391394.0033055-4.5966945 2.0608606-4.6 4.6 0 .5522847.4477153 1 1 1s1-.4477153 1-1c0-1.4359403 1.1640597-2.6 2.6-2.6.5522847 0 1-.4477153 1-1z"/><path id="Shape" d="m30.1 21.383c2.4870644-.4114255 4.4562641-2.3255929 4.938-4.8.0744538-.3538613-.0479307-.7203513-.3200693-.9584726-.2721387-.2381213-.6516311-.3107736-.9924777-.1900059-.3408465.1207677-.5899418.4161394-.651453.7724785-.1964965 1.0312282-.7914842 1.9434708-1.656 2.539-1.6627796 1.1209256-3.8933765.868797-5.264-.595-.3703069-.4097953-1.0027047-.4418069-1.4125-.0715s-.4418069 1.0027047-.0715 1.4125c.8467792.9357661 1.9661484 1.581852 3.2 1.847-.5587904.7895911-1.4666859 1.2580861-2.434 1.256-.5522847 0-1 .4477153-1 1s.4477153 1 1 1c2.0731612.0092808 3.9333913-1.271821 4.664-3.212z"/></g></g></g></svg>