<?xml version="1.0" encoding="iso-8859-1"?>
<!-- Generator: Adobe Illustrator 19.0.0, SVG Export Plug-In . SVG Version: 6.00 Build 0)  -->
<svg version="1.1" id="Layer_1" xmlns="http://www.w3.org/2000/svg" xmlns:xlink="http://www.w3.org/1999/xlink" x="0px" y="0px"
	 viewBox="0 0 393.826 393.826" style="enable-background:new 0 0 393.826 393.826;" xml:space="preserve">
<circle style="fill:#F0582F;" cx="196.913" cy="196.784" r="196.784"/>
<path style="fill:#FFDAB6;" d="M107.313,21.786c0.517,20.945,2.909,49.778,10.473,71.499c13.382,38.271,5.236,95.354-17.584,125.479
	s-42.408,78.093-4.137,126.061c0,0,3.685,8.145,4.719,23.855c28.574,15.968,61.285,25.147,96.129,25.147
	c6.271,0,12.283-0.259,18.618-0.776c-1.034-14.675-1.552-47.968,15.192-58.958c21.721-14.416,97.487-33.293,88.049-125.479
	c-4.978-48.485-45.576-85.398-83.071-109.77c0,0,38.529,16.485,52.687-25.923c0,0-6.012-30.125-32.776-47.968
	C243.006,16.55,236.994,9.244,234.149,3.75c-12.024-2.327-24.372-3.685-37.236-3.685C164.655,0,134.012,7.887,107.313,21.786z"/>
<path style="fill:#8E342D;" d="M245.139,134.141c0,0,47.451,15.192,55.531,66.004c10.473,66.844-36.655,107.701-94.061,121.341
	s-83.329-47.192-64.453-76.8s32.517-24.889,31.418-62.642C172.541,144.097,216.566,125.802,245.139,134.141z"/>
<path style="fill:#F0BA7A;" d="M232.792,282.958c0,0-29.867,46.352-65.487,19.135c0,0-34.069-34.844,0-63.418
	c0,0,30.125,2.909,34.844-4.978c4.719-8.145,20.945-4.978,23.855,0s4.202,32.259,4.202,32.259l2.65-38.271
	c0,0-29.867,4.719-35.879-3.426c-6.012-8.145,3.168-12.865,3.168-12.865s17.842,10.731,27.539,0
	c9.697-10.731,17.584-14.933,23.079-8.145c5.495,6.788,2.65,38.788,2.65,38.788s12.283-34.069-7.305-47.968
	c0,0-33.552,31.418-46.61,13.64s5.495-37.495,5.495-37.495l-12.606,3.943c0,0-6.271-16.485,10.731-22.562
	c17.002-6.012,21.98,0.517,21.98,4.978c0,4.461-9.438,29.867-9.438,29.867s10.214-32.776,28.574-32.776
	c18.36,0,40.598,8.921,43.507,55.79C290.198,256.259,268.154,274.101,232.792,282.958z"/>
<g>
</g>
<g>
</g>
<g>
</g>
<g>
</g>
<g>
</g>
<g>
</g>
<g>
</g>
<g>
</g>
<g>
</g>
<g>
</g>
<g>
</g>
<g>
</g>
<g>
</g>
<g>
</g>
<g>
</g>
</svg>
