<svg height="487pt" viewBox="-9 0 487 487.52" width="487pt" xmlns="http://www.w3.org/2000/svg"><path d="m259.484375 57.660156c-25.507813-33.792968-65.394531-53.660156-107.738281-53.660156h-26.800782c-26.535156 0-52.390624 6.519531-75.503906 18.609375-9.070312 5.136719-18.238281 13.414063-18.324218 13.492187-10.269532 11.042969-16.851563 24.28125-17.046876 24.675782-5.371093 13.394531-9.8125 32.253906-9.8125 58.074218v258.796876c0 15.328124 3.128907 30.492187 9.191407 44.566406 9.375 21.765625 30.800781 35.863281 54.5 35.863281h28.308593c53.980469 0 103.128907-31.105469 126.230469-79.894531l19.964844-42.167969c29.160156-61.589844 44.285156-128.882813 44.285156-197.023437 0-29.351563-9.566406-57.90625-27.253906-81.332032zm0 0" fill="#f9cfcf"/><path d="m218.636719 90.363281c-13.828125-17.710937-35.789063-28.285156-58.746094-28.285156h-26.878906c-12.632813.164063-21.464844 3.914063-24.019531 5.136719-8.941407 4.386718-32.773438 18.511718-35.238282 45.519531v251.894531.089844c.007813 5.578125 3.863282 10.488281 9.394532 12.386719 10.449218 3.582031 29.277343 7.617187 49.769531.425781 18.179687-6.964844 33.46875-20.355469 42.085937-37.945312l20.023438-40.886719c25.167968-51.386719 38.46875-108.605469 38.46875-165.464844 0-15.371094-5.277344-30.597656-14.859375-42.871094zm0 0" fill="#f9a7a7"/><path d="m74.125 225.773438c-.246094 0-.496094-.023438-.742188-.070313-2.171874-.40625-3.601562-2.496094-3.195312-4.667969.511719-2.71875 12.90625-66.753906 48.164062-78.578125 15.816407-5.296875 33.375.683594 52.1875 17.800781 1.632813 1.484376 1.75 4.019532.265626 5.648438-1.492188 1.632812-4.019532 1.753906-5.652344.269531-16.5-15.015625-31.382813-20.441406-44.25-16.132812-30.820313 10.324219-42.734375 71.847656-42.851563 72.46875-.363281 1.921875-2.039062 3.261719-3.925781 3.261719zm0 0" fill="#3762cc"/><path d="m96.257812 462.078125h-28.308593c-25.320313 0-48.15625-15.027344-58.171875-38.285156-6.316406-14.65625-9.515625-30.183594-9.515625-46.144531v-258.792969c0-22.804688 3.394531-42.847657 10.097656-59.566407.039063-.09375.082031-.1875.125-.277343.285156-.574219 7.03125-14.15625 17.707031-25.632813.082032-.085937.167969-.171875.253906-.25.394532-.355468 9.746094-8.738281 19.027344-13.996094 23.957032-12.539062 50.707032-19.132812 77.472656-19.132812h26.800782c43.347656 0 84.816406 20.652344 110.933594 55.246094 18.09375 23.96875 28.058593 53.710937 28.058593 83.746094 0 68.292968-15.445312 137.011718-44.671875 198.730468l-19.960937 42.167969c-23.640625 49.925781-74.609375 82.1875-129.847657 82.1875zm-78.535156-399.65625c-6.28125 15.734375-9.464844 34.71875-9.464844 56.433594v258.792969c0 14.871093 2.980469 29.328124 8.863282 42.980468 8.753906 20.320313 28.703125 33.449219 50.828125 33.449219h28.308593c52.164063 0 100.292969-30.460937 122.613282-77.609375l19.964844-42.167969c28.71875-60.65625 43.898437-128.195312 43.898437-195.308593 0-28.304688-9.390625-56.335938-26.441406-78.925782-24.613281-32.601562-63.695313-52.066406-104.546875-52.066406h-26.800782c-25.480468 0-50.949218 6.277344-73.648437 18.15625-7.96875 4.515625-16.210937 11.769531-17.371094 12.800781-9.296875 10.039063-15.515625 22.101563-16.203125 23.464844zm0 0" fill="#3762cc"/><path d="m441.882812 322.519531h-116.539062v-172h116.539062c12.957032 0 23.460938 10.503907 23.460938 23.460938v125.078125c0 12.957031-10.503906 23.460937-23.460938 23.460937zm0 0" fill="#4671c6"/><path d="m268.113281 304.363281h-11.539062c-6.476563 0-11.730469-5.25-11.730469-11.730469v-106.492187c0-6.480469 5.253906-11.730469 11.730469-11.730469h11.539062c6.480469 0 11.730469 5.25 11.730469 11.730469v106.492187c0 6.480469-5.25 11.730469-11.730469 11.730469zm0 0" fill="#e0ebfc"/><path d="m207.203125 219.886719h-109.980469c-4.074218 0-7.378906 4.277343-7.378906 9.554687v19.886719c0 5.28125 3.304688 9.558594 7.378906 9.558594h109.976563l37.644531 29.234375v-97.46875zm0 0" fill="#6bdddd"/><path d="m465.34375 429.519531h-140v-28c0-11.046875 8.953125-20 20-20h100c11.046875 0 20 8.953125 20 20zm0 0" fill="#e0ebfc"/><path d="m325.34375 429.519531h140v54h-140zm0 0" fill="#4671c6"/><path d="m359.34375 322.519531h72v59h-72zm0 0" fill="#6bdddd"/><path d="m279.828125 185.835938c0 .101562.015625.199218.015625.300781v101.078125l45.5 35.304687v-172zm0 0" fill="#a4c9ff"/><g fill="#3762cc"><path d="m441.882812 326.519531h-116.539062c-2.207031 0-4-1.792969-4-4v-172c0-2.207031 1.792969-4 4-4h116.539062c15.144532 0 27.460938 12.320313 27.460938 27.460938v125.078125c0 15.144531-12.320312 27.460937-27.460938 27.460937zm-112.539062-8h112.539062c10.730469 0 19.460938-8.730469 19.460938-19.460937v-125.078125c0-10.730469-8.730469-19.460938-19.460938-19.460938h-112.539062zm0 0"/><path d="m268.113281 308.363281h-11.539062c-8.675781 0-15.730469-7.054687-15.730469-15.730469v-106.492187c0-8.675781 7.054688-15.730469 15.730469-15.730469h11.539062c8.675781 0 15.730469 7.054688 15.730469 15.730469v106.492187c0 8.675782-7.054688 15.730469-15.730469 15.730469zm-11.539062-129.957031c-4.261719 0-7.730469 3.46875-7.730469 7.730469v106.496093c0 4.261719 3.46875 7.730469 7.730469 7.730469h11.539062c4.261719 0 7.730469-3.46875 7.730469-7.730469v-106.492187c0-4.261719-3.46875-7.730469-7.730469-7.730469h-11.539062zm0 0"/><path d="m244.84375 292.121094c-.875 0-1.738281-.285156-2.453125-.839844l-36.5625-28.394531h-108.605469c-6.273437 0-11.378906-6.082031-11.378906-13.554688v-19.886719c0-7.476562 5.105469-13.554687 11.378906-13.554687h108.605469l36.5625-28.394531c1.207031-.933594 2.835937-1.105469 4.210937-.433594 1.371094.671875 2.242188 2.066406 2.242188 3.59375v97.464844c0 1.527344-.871094 2.921875-2.242188 3.589844-.558593.273437-1.160156.410156-1.757812.410156zm-147.621094-68.234375c-1.59375 0-3.378906 2.378906-3.378906 5.554687v19.886719c0 3.183594 1.785156 5.558594 3.378906 5.558594h109.976563c.890625 0 1.753906.292969 2.453125.839843l31.191406 24.222657v-81.125l-31.191406 24.21875c-.699219.546875-1.5625.84375-2.453125.84375zm0 0"/><path d="m325.34375 326.519531c-.871094 0-1.738281-.285156-2.453125-.839843l-45.5-35.304688c-.976563-.757812-1.546875-1.921875-1.546875-3.160156l-.015625-101.261719c-.039063-1.277344.539063-2.492187 1.546875-3.277344l45.515625-35.316406c1.207031-.933594 2.839844-1.101563 4.210937-.429687 1.371094.671874 2.242188 2.0625 2.242188 3.589843v172c0 1.527344-.871094 2.921875-2.242188 3.59375-.554687.273438-1.15625.40625-1.757812.40625zm-41.5-41.261719 37.5 29.097657v-155.667969l-37.5 29.097656zm-4.015625-99.421874h.019531zm0 0"/><path d="m465.34375 433.519531h-140c-2.207031 0-4-1.792969-4-4v-28c0-13.234375 10.765625-24 24-24h100c13.234375 0 24 10.765625 24 24v28c0 2.207031-1.792969 4-4 4zm-136-8h132v-24c0-8.820312-7.179688-16-16-16h-100c-8.820312 0-16 7.179688-16 16zm0 0"/><path d="m465.34375 487.519531h-140c-2.207031 0-4-1.792969-4-4v-54c0-2.207031 1.792969-4 4-4h140c2.207031 0 4 1.792969 4 4v54c0 2.207031-1.792969 4-4 4zm-136-8h132v-46h-132zm0 0"/><path d="m431.34375 385.519531h-72c-2.207031 0-4-1.792969-4-4v-59c0-2.207031 1.792969-4 4-4h72c2.207031 0 4 1.792969 4 4v59c0 2.207031-1.792969 4-4 4zm-68-8h64v-51h-64zm0 0"/><path d="m99.328125 388.144531h-25.832031c-2.207032 0-4-1.789062-4-4 0-2.207031 1.792968-4 4-4h25.835937c36.683594 0 66.527344-26.1875 66.527344-58.378906 0-32.195313-29.84375-58.382813-66.527344-58.382813h-15.675781c-7.804688 0-14.160156-6.199218-14.160156-13.824218v-128.695313c0-34.402343 28.507812-62.566406 63.546875-62.78125l26.464843-.003906c24.296876 0 47.550782 11.210937 62.207032 29.980469 10.175781 13.039062 15.78125 29.222656 15.78125 45.574218 0 17.984376-1.371094 36.222657-4.082032 54.207032-.328124 2.183594-2.363281 3.699218-4.550781 3.359375-2.183593-.328125-3.6875-2.367188-3.359375-4.550781 2.648438-17.589844 3.992188-35.425782 3.992188-53.015626 0-14.574218-5.003906-29.011718-14.085938-40.648437-13.148437-16.847656-34.046875-26.902344-55.898437-26.902344l-26.40625.003907c-30.667969.1875-55.609375 24.761718-55.609375 54.777343v128.695313c0 3.210937 2.765625 5.824218 6.160156 5.824218h15.675781c41.09375 0 74.527344 29.78125 74.527344 66.382813-.003906 36.601563-33.433594 66.378906-74.53125 66.378906zm0 0"/></g></svg>