<svg height="490pt" viewBox="-71 0 490 490.96" width="490pt" xmlns="http://www.w3.org/2000/svg"><path d="m325.640625 409.113281v-53.226562c0-6.902344-5.617187-12.519531-12.515625-12.519531h-11.859375c-.132813-2.085938-1.828125-3.75-3.953125-3.75h-3.339844c-17.929687-29.34375-48.394531-50.210938-83.886718-55.144532 24.753906-12.019531 43.332031-34.816406 49.636718-62.246094 1.167969.335938 2.355469.558594 3.546875.558594 9.601563 0 17.125-9.902344 17.125-22.539062 0-10.777344-5.476562-19.539063-13.050781-21.890625v-57.082031c0-40.589844-32.902344-73.492188-73.492188-73.492188h-2.011718c1.011718-2.5625 2.320312-5.488281 3.898437-8.050781 3.101563-5.039063 9.902344-11.550781 9.902344-11.550781s-14.449219-1.460938-27.113281 2.597656c-12.664063 4.054687-21.101563 11.039062-21.101563 11.039062s.980469-5.980468 3.285157-11.570312c2.800781-6.777344 8.402343-14.246094 8.402343-14.246094s-19.398437 1.0625-39.453125 11.203125c-21.671875 10.960937-57.019531 39.453125-57.019531 90.183594v60.96875c-7.566406 2.351562-13.046875 11.113281-13.046875 21.890625 0 12.636718 7.523438 22.539062 17.125 22.539062 1.195312 0 2.378906-.226562 3.546875-.558594 6.3125 27.429688 24.886719 50.226563 49.644531 62.246094-46.820312 6.511719-84.867187 40.757813-96.960937 85.570313-1.695313-.914063-3.574219-1.480469-5.5625-1.539063-3.339844-.109375-6.535157 1.113282-8.976563 3.410156-5.03125 4.753907-5.261718 12.710938-.523437 17.742188l11.003906 11.671875v85.632813c0 2.210937 1.792969 4 4 4h288.746094c2.207031 0 4-1.789063 4-4v-12.425782c13.207031-4.8125 22.683593-17.464844 22.683593-32.316406v-.777344c.003907-14.867187-9.472656-27.511718-22.679687-32.328125zm0 0" fill="#e6e7e8"/><path d="m249.265625 165.710938c-1.839844 0-3.59375.546874-5.179687 1.511718v18.347656c0 5.027344-.445313 9.941407-1.253907 14.738282 1.910157 1.527344 4.085938 2.472656 6.433594 2.472656 7.25 0 13.125-8.296875 13.125-18.535156 0-10.234375-5.878906-18.535156-13.125-18.535156zm0 0" fill="#fff"/><path d="m67.902344 185.574219v-18.347657c-1.59375-.964843-3.34375-1.511718-5.183594-1.511718-7.25 0-13.125 8.296875-13.125 18.53125 0 10.238281 5.875 18.535156 13.125 18.535156 2.355469 0 4.527344-.945312 6.433594-2.472656-.808594-4.792969-1.25-9.707032-1.25-14.734375zm0 0" fill="#fff"/><path d="m179.851562 271.324219h-3.714843c-6.472657 1.515625-13.210938 2.339843-20.148438 2.339843s-13.671875-.828124-20.148437-2.339843h-3.714844c-62.539062 0-113.238281 50.695312-113.238281 113.234375v86.394531h274.203125v-86.394531c.003906-62.539063-50.699219-113.234375-113.238282-113.234375zm0 0" fill="#0089ef"/><path d="m155.992188 273.664062c-10.089844 0-19.777344-1.71875-28.804688-4.84375l-23.308594 7.820313 52.570313 110.007813 52.566406-110.007813-24.054687-7.875c-9.078126 3.164063-18.816407 4.898437-28.96875 4.898437zm0 0" fill="#fff"/><path d="m165.386719 331.976562h-18.792969l-9.949219-25.867187 9.949219-15.917969h18.792969l9.949219 15.917969zm0 0" fill="#fa759e"/><path d="m166.921875 362.445312-1.535156-30.46875h-18.792969l-1.535156 30.46875 10.933594 24.207032zm0 0" fill="#fa759e"/><path d="m155.992188 273.664062c-48.652344 0-88.089844-39.441406-88.089844-88.09375v-21.40625c0-12.433593 3.476562-24.617187 10.046875-35.171874l22.511719-36.183594c8.921874-12.203125 23.132812-19.421875 38.25-19.421875h34.558593c15.117188 0 29.332031 7.21875 38.25 19.421875l22.511719 36.183594c6.570312 10.554687 10.050781 22.738281 10.050781 35.171874v21.40625c0 48.652344-39.441406 88.09375-88.089843 88.09375zm0 0" fill="#fff"/><path d="m155.992188 273.664062c-11.8125 0-23.070313-2.339843-33.363282-6.554687v.539063l33.363282 21.257812 33.394531-21.257812v-.550782c-10.300781 4.222656-21.574219 6.566406-33.394531 6.566406zm0 0" fill="#fff"/><path d="m97.171875 446.480469-4.503906-12.308594c-.542969-1.492187-1.628907-2.542969-2.902344-3.128906-1.234375 7.695312-5.332031 14.421875-11.191406 19.046875l11.765625 3.601562c4.378906 1.34375 8.410156-2.902344 6.832031-7.210937zm0 0" fill="#6dc9f7"/><path d="m49.5 395.011719h3.515625l-33.777344-35.832031c-3.242187-3.4375-8.648437-3.59375-12.085937-.355469s-3.597656 8.648437-.355469 12.082031l28.238281 29.953125c3.761719-3.605469 8.839844-5.847656 14.464844-5.847656zm0 0" fill="#6dc9f7"/><path d="m59.761719 395.011719h-10.261719c-11.5625 0-20.941406 9.375-20.941406 20.941406v19.390625c0 11.761719 9.535156 21.292969 21.292968 21.292969h9.914063c16.796875 0 30.417969-13.621094 30.417969-30.421875v-.777344c-.003906-16.808594-13.625-30.425781-30.421875-30.425781zm0 0" fill="#fff"/><path d="m299.902344 456.632812h-9.914063c-11.761719 0-21.292969-9.53125-21.292969-21.292968v-19.390625c0-11.566407 9.378907-20.941407 20.941407-20.941407h10.257812c2.679688 0 5.261719.378907 7.738281 1.03125v-56.152343c0-4.703125-3.8125-8.519531-8.519531-8.519531h-102.414062c-4.703125 0-8.519531 3.8125-8.519531 8.519531v131.066406h119.457031v-15.351563c-2.472657.652344-5.054688 1.03125-7.734375 1.03125zm0 0" fill="#fff"/><path d="m299.902344 456.632812h-9.914063c-11.761719 0-21.292969-9.53125-21.292969-21.292968v-19.390625c0-11.566407 9.378907-20.941407 20.941407-20.941407h10.257812c2.679688 0 5.261719.378907 7.738281 1.03125v-52.984374h-99.242187c-4.703125 0-8.519531 3.816406-8.519531 8.519531v119.378906h107.765625v-15.351563c-2.472657.652344-5.054688 1.03125-7.734375 1.03125zm0 0" fill="#fa759e"/><path d="m217.738281 327.613281h65.570313v27.632813h-65.570313zm0 0" fill="#6dc9f7"/><path d="m299.902344 395.011719h-10.261719c-11.5625 0-20.941406 9.375-20.941406 20.941406v19.390625c0 11.761719 9.535156 21.292969 21.292969 21.292969h9.914062c16.796875 0 30.417969-13.621094 30.417969-30.421875v-.777344c-.003907-16.808594-13.621094-30.425781-30.421875-30.425781zm0 0" fill="#fff"/><g fill="#3a2c60"><path d="m117.128906 182.050781c4.863282 0 8.808594-3.941406 8.808594-8.808593 0-4.863282-3.945312-8.804688-8.808594-8.804688-4.863281 0-8.808594 3.941406-8.808594 8.804688 0 4.867187 3.941407 8.808593 8.808594 8.808593zm0 0"/><path d="m194.851562 182.050781c4.863282 0 8.808594-3.941406 8.808594-8.808593 0-4.863282-3.945312-8.804688-8.808594-8.804688-4.863281 0-8.808593 3.941406-8.808593 8.804688 0 4.867187 3.945312 8.808593 8.808593 8.808593zm0 0"/><path d="m155.992188 216.457031c7.726562 0 14.015624-6.289062 14.015624-14.019531v-5.875c0-2.210938-1.792968-4-4-4-2.207031 0-4 1.789062-4 4v5.875c0 3.320312-2.699218 6.019531-6.015624 6.019531-3.316407 0-6.019532-2.699219-6.019532-6.019531v-5.875c0-2.210938-1.792968-4-4-4-2.207031 0-4 1.789062-4 4v5.875c0 7.726562 6.289063 14.019531 14.019532 14.019531zm0 0"/><path d="m206.757812 129.324219-17.253906-3.007813c-2.1875-.367187-4.246094 1.078125-4.628906 3.25-.378906 2.175782 1.082031 4.253906 3.253906 4.628906l17.25 3.007813c.234375.039063.464844.0625.695313.0625 1.90625 0 3.59375-1.371094 3.933593-3.3125.378907-2.171875-1.074218-4.25-3.25-4.628906zm0 0"/><path d="m122.472656 126.316406-17.253906 3.007813c-2.175781.378906-3.628906 2.453125-3.25 4.628906.339844 1.941406 2.027344 3.3125 3.9375 3.3125.226562 0 .457031-.023437.691406-.0625l17.25-3.007813c2.175782-.378906 3.632813-2.453124 3.253906-4.628906-.382812-2.175781-2.429687-3.613281-4.628906-3.25zm0 0"/><path d="m178.699219 228.871094c1.332031-1.757813.988281-4.265625-.769531-5.597656-1.769532-1.339844-4.277344-.988282-5.605469.769531-.054688.078125-5.75 7.433593-16.328125 7.433593-10.640625 0-16.03125-7.03125-16.289063-7.378906-1.292969-1.773437-3.785156-2.175781-5.570312-.886718-1.792969 1.289062-2.195313 3.789062-.902344 5.585937.3125.433594 7.875 10.679687 22.761719 10.679687 14.503906 0 22.375-10.167968 22.703125-10.605468zm0 0"/><path d="m188.183594 399.96875c-2.207032 0-4 1.789062-4 4v16.65625c0 2.210938 1.792968 4 4 4 2.207031 0 4-1.789062 4-4v-16.65625c0-2.210938-1.792969-4-4-4zm0 0"/><path d="m228.859375 337.222656c-2.324219 0-4.207031 1.886719-4.207031 4.210938 0 2.324218 1.882812 4.207031 4.207031 4.207031s4.210937-1.882813 4.210937-4.207031c0-2.324219-1.886718-4.210938-4.210937-4.210938zm0 0"/><path d="m272.445312 337.222656c-2.324218 0-4.207031 1.886719-4.207031 4.210938 0 2.324218 1.882813 4.207031 4.207031 4.207031 2.324219 0 4.207032-1.882813 4.207032-4.207031 0-2.324219-1.882813-4.210938-4.207032-4.210938zm0 0"/><path d="m311.636719 393.113281v-53.226562c0-6.902344-5.617188-12.519531-12.515625-12.519531h-11.859375c-.132813-2.085938-1.828125-3.75-3.953125-3.75h-3.503906c-17.929688-29.304688-48.269532-50.210938-83.71875-55.148438 24.75-12.019531 43.324218-34.816406 49.628906-62.242188 1.167968.335938 2.355468.558594 3.546875.558594 9.601562 0 17.125-9.902344 17.125-22.539062 0-10.777344-5.476563-19.539063-13.050781-21.890625v-57.082031c0-40.589844-32.902344-73.492188-73.492188-73.492188h-2.011719c1.011719-2.5625 2.320313-5.488281 3.894531-8.050781 3.105469-5.039063 9.90625-11.550781 9.90625-11.550781s-14.449218-1.460938-27.113281 2.597656c-12.664062 4.054687-21.101562 11.039062-21.101562 11.039062s.976562-5.980468 3.285156-11.570312c2.800781-6.777344 8.402344-14.246094 8.402344-14.246094s-19.398438 1.0625-39.453125 11.203125c-21.671875 10.960937-57.019532 39.453125-57.019532 90.183594v60.96875c-7.570312 2.351562-13.046874 11.113281-13.046874 21.890625 0 12.636718 7.523437 22.539062 17.125 22.539062 1.195312 0 2.378906-.226562 3.546874-.558594 6.320313 27.460938 24.925782 50.28125 49.726563 62.289063-46.84375 6.488281-84.847656 40.742187-96.945313 85.582031-1.71875-.953125-3.628906-1.539062-5.652343-1.59375-3.339844-.109375-6.535157 1.113282-8.976563 3.410156-5.03125 4.753907-5.261718 12.710938-.523437 17.742188l11.003906 11.671875v85.632813c0 2.210937 1.792969 4 4 4h288.746094c2.207031 0 4-1.789063 4-4v-12.425782c13.207031-4.8125 22.683593-17.464844 22.683593-32.316406v-.777344c0-14.867187-9.476562-27.511718-22.683593-32.328125zm-89.898438-61.496093h57.570313v19.628906h-57.570313zm48.582031-8h-52.582031c-2.121093 0-3.816406 1.664062-3.953125 3.75h-8.816406l14.640625-7.757813c1.585937-.84375 2.417969-2.644531 2.03125-4.402344l-7.605469-34.363281c23.160156 7.671875 42.875 22.917969 56.285156 42.773438zm-79.96875 2.445312c-.34375.183594-.597656.46875-.871093.738281l18.136719-37.957031 5.554687 25.117188zm-61.859374-7.195312 6.511718-5.882813 7.550782 19.640625-.710938 14.1875zm27.5-41.203126c3.992187 0 7.914062-.285156 11.773437-.78125l-11.769531 7.496094-11.757813-7.496094c3.851563.5 7.765625.78125 11.753907.78125zm7.179687 16.527344 7.714844 12.34375-8.246094 21.4375h-13.300781l-8.246094-21.4375 7.714844-12.34375zm-14.066406 67.484375 1.289062-25.703125h11.1875l1.289063 25.703125-6.765625 14.988281-4.285157-8.964843zm21.117187-13.136719-.796875-15.917968 7.765625-20.199219 7.1875 6.488281zm17.757813-37.15625-9.121094-8.238281c-.316406-.285156-.683594-.457031-1.046875-.625l-9.027344-14.449219c-.457031-.726562-1.140625-1.25-1.917968-1.5625l17.34375-11.042968c6.746093.265625 13.324218 1.140625 19.703124 2.582031zm-60.109375-35.871093 17.253906 10.992187c-.78125.3125-1.464844.832032-1.925781 1.5625l-9.652344 15.449219-8.65625 7.820313-15.972656-33.429688c6.144531-1.335938 12.472656-2.140625 18.953125-2.394531zm-22.59375 13.332031 18.136718 37.953125c-.273437-.269531-.53125-.554687-.871093-.734375l-22.824219-12.097656zm18.640625 43.09375c.566406-.789062.746093-1.753906.65625-2.710938l20.011719 41.878907 1.765624 3.910156-35.980468-24.261719zm60.535156 5.386719c-.171875.828125-.269531 1.683593-.269531 2.5625v23.347656l-17.824219 11.953125zm2.457031-5.136719 1.410156-2.957031c-.042968.464843-.042968.921875.070313 1.371093-.542969.484376-1.035156 1.015626-1.480469 1.585938zm36.746094-178.039062c-.753906-.800782-1.8125-1.257813-2.914062-1.257813h-51.25c-1.105469 0-2.160157.457031-2.914063 1.257813-.757813.804687-1.148437 1.886718-1.082031 2.984374l.238281 3.851563h-18.496094l.234375-3.851563c.066406-1.097656-.324218-2.179687-1.082031-2.984374-.753906-.800782-1.808594-1.257813-2.914063-1.257813h-51.242187c-1.105469 0-2.160156.457031-2.917969 1.257813-.757812.804687-1.148437 1.886718-1.078125 2.984374l.234375 3.851563h-16.464844c.535157-10.582031 3.714844-20.851563 9.332032-29.878906l22.34375-35.9375c8.140625-11.132813 21.234375-17.78125 35.023437-17.78125h34.558594c13.789063 0 26.882813 6.648437 34.855469 17.539062l22.511718 36.183594c5.617188 9.027344 8.796876 19.296875 9.332032 29.878906h-15.464844l.238281-3.851562c.066407-1.101563-.324219-2.179688-1.082031-2.988281zm-7.164062 6.742187-1.054688 17.253906c-.277344 4.492188-4.019531 8.015625-8.523438 8.015625h-23.59375c-4.503906 0-8.246093-3.523437-8.519531-8.015625l-1.054687-17.253906zm-77.257813 0-1.058594 17.253906c-.273437 4.492188-4.019531 8.015625-8.523437 8.015625h-23.59375c-4.503906 0-8.246094-3.523437-8.523438-8.015625l-1.050781-17.253906zm119.15625 23.355469c0 8.96875-5.46875 16.550781-11.207031 14.085937.011718-.074219.011718-.152343.023437-.226562.253907-1.828125.441407-3.675781.585938-5.539063.027343-.363281.058593-.726562.082031-1.089844.125-1.953124.210938-3.917968.210938-5.898437v-15.730469c5.316406-1.207031 10.304687 5.890625 10.304687 14.398438zm-193.59375 14.082031c-5.753906 2.460937-11.207031-5.113281-11.207031-14.085937 0-7.878907 4.179687-14.535157 9.125-14.535157.398437 0 .789062.046875 1.179687.132813v15.730468c0 1.984376.085938 3.945313.210938 5.898438.023437.363281.054687.726562.082031 1.089844.140625 1.863281.332031 3.710937.585938 5.539062.011718.082032.015624.15625.023437.230469zm7.917969-1.679687c-.144532-1.117188-.320313-2.238282-.421875-3.351563-.234375-2.550781-.390625-5.117187-.390625-7.722656v-16.585938h17.0625l.585937 9.644531c.535157 8.710938 7.785157 15.53125 16.507813 15.53125h23.59375c8.722656 0 15.976562-6.820312 16.507812-15.53125l.589844-9.644531h19.46875l.589844 9.644531c.53125 8.710938 7.78125 15.53125 16.503906 15.53125h23.59375c8.722656 0 15.972656-6.820312 16.507812-15.53125l.585938-9.644531h16.074219v16.585938c0 2.609375-.160157 5.179687-.394531 7.722656-.101563 1.113281-.273438 2.230469-.421876 3.351563-5.449218 41.140624-40.667968 73.015624-83.277343 73.015624-42.597657 0-77.816407-31.875-83.265625-73.015624zm26.191406 83.949218-7.65625 34.609375c-.390625 1.753907.441406 3.558594 2.03125 4.402344l21.460938 11.378906-13.277344 18.441407c-.632813.878906-.882813 1.96875-.691406 3.039062.1875 1.066406.804687 2.007812 1.699218 2.609375l49.96875 33.699219v78.175781h-90.597656v-6.425781c6.464844-.386719 12.453125-2.542969 17.476562-6.023438l9.847657 3.011719c.933593.285156 1.882812.425781 2.824219.425781.921874 0 1.816406-.179687 2.691406-.441406.050781.046875.066406.117188.117187.164062l6.355469 5.914063c.773438.722656 1.753906 1.078125 2.726562 1.078125 1.074219 0 2.140626-.429688 2.929688-1.273438 1.503906-1.613281 1.414062-4.148437-.199219-5.652343l-5.949219-5.539063c.972657-2.210937 1.140626-4.722656.273438-7.085937l-4.503906-12.308594c-.515625-1.410156-1.34375-2.621094-2.394532-3.601563.085938-.988281.152344-1.980468.152344-2.988281v-.777343c0-18.433594-14.574218-33.484376-32.796875-34.339844v-21.246094c0-16.734375-6.480469-32.503906-18.25-44.40625-.566406-.578125-1.28125-.871094-2.015625-1.027344 13.582032-20.515625 33.882813-36.152344 57.777344-43.8125zm-66.351562 135.355469c0-9.339844 7.601562-16.941406 16.941406-16.941406h10.261718c14.566407 0 26.417969 11.851562 26.417969 26.421875v.777344c0 14.574218-11.851562 26.421874-26.417969 26.421874h-9.914062c-9.535156 0-17.292969-7.757812-17.292969-17.292968v-19.386719zm4.890624-84.886719c10.277344 10.398438 15.9375 24.167969 15.9375 38.78125v19.722656l-27.625-29.304687c2.398438-10.503906 6.253907-20.449219 11.445313-29.566406.09375.121093.132813.261719.242187.367187zm53.414063 109.800782 2.5625 6.988281c.285156.785156-.085937 1.335937-.332031 1.597656-.25.253906-.78125.65625-1.582032.414063l-5.328124-1.632813c1.863281-2.226563 3.425781-4.710937 4.679687-7.367187zm-80.964844-79.136719c.851563-.796875 1.953125-1.238281 3.117188-1.238281.042969 0 .09375 0 .140625.003906 1.210937.035156 2.339844.542968 3.175781 1.425781l27.949219 29.644531c-3.242188.695313-6.246094 2.019532-8.886719 3.835938l-25.679687-27.238282c-1.722657-1.824218-1.636719-4.707031.183593-6.433593zm12.992188 32.078125 6.734375 7.140625c-3.164063 4.179687-5.066406 9.367187-5.066406 15.003906v19.390625c0 13.945312 11.347656 25.292969 25.292968 25.292969h3.996094v6.320312h-30.953125v-73.148437zm280.75 73.148437h-111.453125v-26.847656c0-2.214844-1.792969-4-4-4-2.207032 0-4 1.785156-4 4v26.847656h-23.734375v-78.167969l23.734375-15.917968v12.414062c0 2.210938 1.792968 4 4 4 2.207031 0 4-1.789062 4-4v-45.398437c0-2.492188 2.027344-4.519531 4.515625-4.519531h17.039062v19.878906c0 2.214844 1.789063 4 4 4h65.570313c2.207031 0 4-1.785156 4-4v-19.878906h11.8125c2.492187 0 4.515625 2.027343 4.515625 4.519531v51.332031c-1.226563-.128906-2.472657-.210938-3.734375-.210938h-10.261719c-13.753906 0-24.941406 11.1875-24.941406 24.941407v19.390625c0 13.945312 11.34375 25.292968 25.292969 25.292968h9.914062c1.261719 0 2.507812-.082031 3.734375-.210937v6.535156zm22.683593-40.746093c0 14.574218-11.851562 26.421874-26.417968 26.421874h-9.914063c-9.535156 0-17.292969-7.757812-17.292969-17.292968v-19.390625c0-9.339844 7.601563-16.941407 16.941407-16.941407h10.257812c14.570313 0 26.421875 11.851563 26.421875 26.421876v.78125zm0 0"/></g></svg>