<svg id="Capa_1" enable-background="new 0 0 512 512" height="512" viewBox="0 0 512 512" width="512" xmlns="http://www.w3.org/2000/svg"><g id="XMLID_1248_"><path id="XMLID_1148_" d="m306.616 502v-76.5c15.756-7.843 28.469-20.685 36.151-36.519l10.958-22.584 105.142-60.704c16.747-9.669 22.485-31.084 12.816-47.832-8.689-15.05-27.101-21.45-43.252-15.034l-62.633 24.882c-9.375 3.724-20.067 1.532-27.22-5.582-6.446-6.411-8.963-15.785-6.594-24.563l39.196-145.273c4.047-15-4.848-30.437-19.855-34.458-14.988-4.016-30.394 4.878-34.41 19.866l-33.213 123.934v-163.513c0-15.53-12.59-28.12-28.12-28.12-15.53 0-28.12 12.59-28.12 28.12v163.536l-33.206-123.931c-4.02-15.001-19.439-23.904-34.44-19.884-15.001 4.02-23.904 19.439-19.884 34.44l33.207 123.932-73.277-73.276c-10.101-10.101-26.479-10.101-36.58 0-9.234 9.234-10.137 23.904-2.104 34.2l72.193 92.541v92.685c0 18.655 7.365 36.556 20.493 49.809v89.759z" fill="#f3c9a6"/><g id="XMLID_1699_"><path id="XMLID_290_" d="m153.864 511.931c-5.523 0-10-4.477-10-10v-85.797c-13.246-14.819-20.494-33.753-20.494-53.771v-89.245l-70.078-89.83c-11.119-14.253-9.864-34.64 2.918-47.422 6.773-6.774 15.78-10.505 25.36-10.505 9.581 0 18.587 3.73 25.361 10.504l46.888 46.887-23.547-87.882c-2.635-9.836-1.283-20.109 3.808-28.927s13.312-15.126 23.147-17.761c20.299-5.441 41.247 6.652 46.687 26.955l13.548 50.561v-87.578c0-21.019 17.101-38.12 38.121-38.12s38.12 17.101 38.12 38.12v87.567l13.554-50.575c5.437-20.289 26.366-32.373 46.657-26.937 9.842 2.637 18.063 8.951 23.149 17.779s6.426 19.107 3.772 28.943l-8.723 32.331c-1.439 5.332-6.929 8.488-12.26 7.05-5.332-1.438-8.488-6.927-7.05-12.26l8.723-32.331c1.261-4.672.625-9.555-1.792-13.748-2.416-4.193-6.321-7.193-10.997-8.445-9.633-2.581-19.58 3.157-22.163 12.795l-33.213 123.934c-1.3 4.848-5.995 7.982-10.965 7.326-4.975-.655-8.694-4.896-8.694-9.915v-163.514c0-9.991-8.128-18.12-18.12-18.12s-18.121 8.129-18.121 18.12v163.536c0 5.019-3.719 9.259-8.695 9.915-4.972.653-9.666-2.479-10.964-7.326l-33.204-123.932c-2.586-9.651-12.544-15.397-22.193-12.813-4.675 1.253-8.583 4.251-11.002 8.443-2.42 4.191-3.063 9.075-1.811 13.75l33.207 123.931c1.171 4.372-.74 8.986-4.659 11.249-3.92 2.262-8.872 1.61-12.071-1.589l-73.276-73.276c-2.997-2.997-6.981-4.647-11.219-4.647s-8.222 1.65-11.219 4.647c-5.655 5.655-6.21 14.673-1.291 20.979l72.193 92.541c1.371 1.757 2.115 3.922 2.115 6.151v92.685c0 16.125 6.25 31.315 17.598 42.772 1.855 1.873 2.895 4.402 2.895 7.038v89.758c0 5.522-4.477 9.999-10 9.999z"/></g><g id="XMLID_670_"><path id="XMLID_289_" d="m306.616 512c-5.523 0-10-4.477-10-10v-76.5c0-3.794 2.147-7.262 5.544-8.952 13.703-6.821 24.929-18.162 31.61-31.932l10.958-22.584c.873-1.799 2.265-3.295 3.997-4.295l105.143-60.704c11.945-6.897 16.053-22.226 9.156-34.171-6.162-10.673-19.445-15.29-30.899-10.74l-62.634 24.882c-13.081 5.198-27.983 2.142-37.963-7.786-8.968-8.919-12.492-22.045-9.197-34.257l7.028-26.046c1.439-5.333 6.93-8.49 12.26-7.05 5.332 1.439 8.488 6.928 7.05 12.26l-7.028 26.046c-1.43 5.299.1 10.997 3.992 14.867 4.331 4.308 10.798 5.635 16.475 3.379l62.634-24.882c20.611-8.188 44.515.121 55.604 19.327 6.012 10.413 7.609 22.545 4.497 34.158-3.112 11.615-10.561 21.322-20.974 27.333l-102.485 59.17-9.618 19.823c-7.682 15.832-20.03 29.169-35.148 38.094v70.56c-.002 5.523-4.479 10-10.002 10z"/></g><g id="XMLID_988_"><g id="XMLID_992_"><path id="XMLID_288_" d="m51 33c-5.523 0-10-4.477-10-10v-13c0-5.523 4.477-10 10-10s10 4.477 10 10v13c0 5.523-4.477 10-10 10z"/></g><g id="XMLID_991_"><path id="XMLID_287_" d="m51 102c-5.523 0-10-4.477-10-10v-12.644c0-5.523 4.477-10 10-10s10 4.477 10 10v12.644c0 5.523-4.477 10-10 10z"/></g><g id="XMLID_990_"><path id="XMLID_286_" d="m92 61h-13c-5.523 0-10-4.477-10-10s4.477-10 10-10h13c5.523 0 10 4.477 10 10s-4.477 10-10 10z"/></g><g id="XMLID_989_"><path id="XMLID_285_" d="m23 61h-13c-5.523 0-10-4.477-10-10s4.477-10 10-10h13c5.523 0 10 4.477 10 10s-4.477 10-10 10z"/></g></g><g id="XMLID_994_"><g id="XMLID_998_"><path id="XMLID_284_" d="m51 430c-5.523 0-10-4.477-10-10v-13c0-5.523 4.477-10 10-10s10 4.477 10 10v13c0 5.523-4.477 10-10 10z"/></g><g id="XMLID_997_"><path id="XMLID_283_" d="m51 499c-5.523 0-10-4.477-10-10v-12.644c0-5.523 4.477-10 10-10s10 4.477 10 10v12.644c0 5.523-4.477 10-10 10z"/></g><g id="XMLID_996_"><path id="XMLID_282_" d="m92 458h-13c-5.523 0-10-4.477-10-10s4.477-10 10-10h13c5.523 0 10 4.477 10 10s-4.477 10-10 10z"/></g><g id="XMLID_995_"><path id="XMLID_281_" d="m23 458h-13c-5.523 0-10-4.477-10-10s4.477-10 10-10h13c5.523 0 10 4.477 10 10s-4.477 10-10 10z"/></g></g><g id="XMLID_983_"><g id="XMLID_987_"><path id="XMLID_280_" d="m461 115.394c-5.523 0-10-4.477-10-10v-13c0-5.523 4.477-10 10-10s10 4.477 10 10v13c0 5.522-4.477 10-10 10z"/></g><g id="XMLID_986_"><path id="XMLID_279_" d="m461 184.394c-5.523 0-10-4.477-10-10v-12.644c0-5.523 4.477-10 10-10s10 4.477 10 10v12.644c0 5.523-4.477 10-10 10z"/></g><g id="XMLID_985_"><path id="XMLID_278_" d="m502 143.394h-13c-5.523 0-10-4.477-10-10s4.477-10 10-10h13c5.523 0 10 4.477 10 10s-4.477 10-10 10z"/></g><g id="XMLID_984_"><path id="XMLID_277_" d="m433 143.394h-13c-5.523 0-10-4.477-10-10s4.477-10 10-10h13c5.523 0 10 4.477 10 10s-4.477 10-10 10z"/></g></g><g id="XMLID_1256_"><path id="XMLID_276_" d="m350.74 178.07c-2.64 0-5.21-1.07-7.08-2.93-1.86-1.86-2.93-4.44-2.93-7.07s1.07-5.21 2.93-7.07c1.87-1.86 4.44-2.93 7.08-2.93 2.63 0 5.2 1.07 7.07 2.93 1.86 1.86 2.93 4.44 2.93 7.07s-1.07 5.21-2.93 7.07c-1.87 1.86-4.44 2.93-7.07 2.93z"/></g></g></svg>