<svg id="Layer_1" enable-background="new 0 0 128 128" height="512" viewBox="0 0 128 128" width="512" xmlns="http://www.w3.org/2000/svg"><g><path d="m111.098 15.711c-3.061-4.156-7.864-6.734-12.544-6.734-.009 0-.019 0-.027 0-4.991.011-9.051 4.072-9.051 9.053 0 2.33.89 4.542 2.472 6.215-.715.867-1.17 1.913-1.338 3.025h-.184c-6.26 0-11.353 5.092-11.353 11.352v16.998c-4.056-1.309-8.462-2.036-13.073-2.036s-9.018.727-13.074 2.036v-16.998c0-6.26-5.092-11.352-11.352-11.352h-.184c-.168-1.112-.624-2.158-1.339-3.026 1.582-1.673 2.472-3.885 2.472-6.214 0-4.981-4.06-9.042-9.05-9.053-4.682.035-9.504 2.57-12.57 6.734-3.564 4.84-4.349 11.265-2.209 18.09 2.916 9.305 9.28 14.6 17.314 14.599.874 0 1.769-.063 2.681-.19 4.847-.675 8.503-4.622 8.503-9.18 0-3.927-2.601-7.27-6.253-8.308.207-.463.347-.951.434-1.453h.202c5.157 0 9.352 4.195 9.352 9.352v17.616c0 .028.014.052.016.08-12.35 4.713-20.943 15.027-20.943 26.972 0 12.474 9.547 23.7 23.758 27.936 3.05.909 5.347 3.557 5.852 6.747l.667 4.208c.077.485.496.843.988.843h9.472c.492 0 .911-.358.987-.844l.666-4.208c.506-3.19 2.803-5.838 5.854-6.747 14.209-4.235 23.756-15.461 23.756-27.935 0-11.945-8.593-22.259-20.943-26.972.002-.028.016-.052.016-.08v-17.615c0-5.157 4.195-9.352 9.353-9.352h.203c.087.502.227.99.434 1.453-3.652 1.038-6.253 4.381-6.253 8.308 0 4.558 3.655 8.504 8.503 9.18.911.127 1.806.19 2.68.19 8.033 0 14.399-5.294 17.315-14.599 2.138-6.826 1.354-13.251-2.21-18.091z" fill="#e6e7e8"/><g><g><g><path d="m94.529 5.977c-4.447.01-8.053 3.605-8.053 8.053 0 2.486 1.128 4.708 2.899 6.185-1.129.959-1.847 2.386-1.847 3.983 0 1.222.422 2.343 1.125 3.233-3.845.399-6.844 3.648-6.844 7.599 0 4.22 3.461 7.607 7.641 8.19 8.533 1.19 15.693-3.477 18.903-13.718 4.64-14.806-5.771-23.543-13.824-23.525z" fill="#ffd7e5"/><path d="m94.529 5.977c-.453.001-.895.048-1.327.121 7.728 1.083 16.475 9.606 12.151 23.404-2.688 8.577-8.152 13.227-14.868 13.819 8.073.683 14.79-3.996 17.868-13.819 4.64-14.806-5.771-23.543-13.824-23.525z" fill="#fff"/></g><path d="m29.471 5.977c4.447.01 8.053 3.605 8.053 8.053 0 2.486-1.128 4.708-2.899 6.185 1.129.959 1.847 2.386 1.847 3.983 0 1.222-.422 2.343-1.125 3.233 3.845.399 6.844 3.648 6.844 7.599 0 4.22-3.461 7.607-7.641 8.19-8.533 1.19-15.693-3.477-18.903-13.718-4.64-14.806 5.771-23.543 13.824-23.525z" fill="#ffd7e5"/></g><g><path d="m97 79.289c0-15.853-15.67-28.705-35-28.705s-35 12.852-35 28.705c0 12.408 9.602 22.971 23.043 26.977 3.456 1.03 5.99 3.988 6.554 7.549l.667 4.208h9.472l.667-4.208c.564-3.561 3.099-6.519 6.554-7.549 13.441-4.006 23.043-14.569 23.043-26.977z" fill="#ffd7e5"/><path d="m91.236 79.335c0-13.243-13.09-23.978-29.237-23.978s-29.236 10.735-29.236 23.978c0 9.542 6.798 17.777 16.637 21.636 4.631 1.816 8.17 5.654 9.361 10.483l1.621 6.569h3.234l1.621-6.569c1.192-4.829 4.731-8.667 9.361-10.483 9.841-3.858 16.638-12.094 16.638-21.636z" fill="#fa759e"/><g fill="#3a2c60"><path d="m107.099 11.711c-3.061-4.156-7.864-6.735-12.544-6.735-.009 0-.019 0-.027 0-4.991.011-9.051 4.072-9.051 9.053 0 2.33.89 4.542 2.472 6.214-.715.868-1.171 1.914-1.339 3.025h-.183c-6.26 0-11.353 5.093-11.353 11.353v16.999c-4.056-1.309-8.462-2.036-13.073-2.036s-9.018.727-13.074 2.036v-16.998c0-6.26-5.092-11.353-11.352-11.353h-.185c-.168-1.112-.624-2.158-1.339-3.025 1.582-1.673 2.472-3.885 2.472-6.214 0-4.981-4.06-9.042-9.05-9.053-.009 0-.018 0-.027 0-4.679 0-9.483 2.579-12.543 6.734-3.564 4.84-4.349 11.265-2.209 18.09 2.916 9.305 9.28 14.6 17.314 14.599.874 0 1.769-.063 2.681-.19 4.847-.675 8.503-4.622 8.503-9.18 0-3.927-2.601-7.27-6.253-8.308.207-.463.347-.951.434-1.453h.202c5.157 0 9.352 4.195 9.352 9.353v17.615c0 .029.014.053.016.081-12.35 4.712-20.943 15.026-20.943 26.971 0 12.474 9.547 23.7 23.758 27.936 3.05.909 5.347 3.557 5.852 6.747l.667 4.208c.077.486.496.844.988.844h9.473c.492 0 .911-.358.987-.844l.666-4.207c.506-3.19 2.803-5.838 5.854-6.747 14.208-4.237 23.755-15.463 23.755-27.937 0-11.945-8.593-22.259-20.943-26.972.002-.028.016-.052.016-.08v-17.615c0-5.157 4.195-9.353 9.353-9.353h.202c.087.502.228.99.435 1.453-3.652 1.039-6.253 4.381-6.253 8.308 0 4.558 3.655 8.504 8.503 9.18.911.127 1.806.19 2.68.19 8.033 0 14.399-5.294 17.314-14.599 2.139-6.825 1.355-13.25-2.208-18.09zm-65.909 23.319c0 3.565-2.915 6.66-6.779 7.199-8.359 1.164-14.851-3.582-17.81-13.026-2.491-7.949-.335-13.255 1.912-16.306 2.649-3.599 6.938-5.92 10.934-5.92h.022c3.89.008 7.055 3.172 7.055 7.053 0 2.096-.926 4.071-2.54 5.417-.227.189-.358.469-.359.764s.128.576.353.767c.95.807 1.495 1.98 1.495 3.221 0 .956-.314 1.86-.91 2.614-.226.286-.278.673-.136 1.009s.456.568.818.605c3.389.35 5.945 3.189 5.945 6.603zm54.81 44.259c0 11.582-8.974 22.038-22.328 26.019-3.783 1.127-6.632 4.405-7.257 8.351l-.533 3.364h-.988l1.315-5.329c1.088-4.408 4.36-8.069 8.756-9.792 10.492-4.115 17.271-12.973 17.271-22.567 0-3.947-1.08-7.722-3.211-11.221-.286-.472-.898-.622-1.375-.334-.472.287-.621.902-.334 1.374 1.938 3.181 2.92 6.606 2.92 10.181 0 8.766-6.281 16.893-16.002 20.705-4.998 1.96-8.725 6.138-9.967 11.175l-1.434 5.808h-1.668l-1.434-5.808c-1.243-5.037-4.969-9.215-9.967-11.175-9.721-3.812-16.002-11.939-16.002-20.705 0-12.67 12.667-22.978 28.237-22.978 4.188 0 8.222.73 11.985 2.169.518.197 1.094-.061 1.291-.577s-.061-1.094-.576-1.292c-3.993-1.527-8.267-2.301-12.7-2.301-16.673 0-30.237 11.205-30.237 24.978 0 9.595 6.78 18.453 17.272 22.567 4.395 1.723 7.667 5.384 8.756 9.792l1.315 5.329h-.988l-.533-3.364c-.625-3.946-3.473-7.224-7.256-8.351-13.355-3.979-22.328-14.436-22.328-26.018 0-15.277 15.252-27.705 34-27.705s34 12.428 34 27.705zm11.398-50.086c-2.96 9.444-9.46 14.189-17.811 13.026-3.864-.539-6.778-3.634-6.778-7.199 0-3.414 2.557-6.253 5.947-6.604.362-.038.676-.27.817-.605.143-.336.09-.722-.136-1.008-.596-.755-.91-1.659-.91-2.614 0-1.24.545-2.414 1.495-3.221.225-.191.354-.472.353-.767s-.133-.575-.359-.764c-1.614-1.346-2.54-3.321-2.54-5.417 0-3.88 3.165-7.044 7.055-7.053h.022c3.995 0 8.285 2.322 10.934 5.92 2.247 3.052 4.403 8.357 1.911 16.306z"/><path d="m77.532 60.147c2.951 1.587 5.484 3.583 7.527 5.931.198.228.476.344.755.344.233 0 .467-.081.656-.246.417-.362.461-.994.099-1.411-2.203-2.532-4.925-4.679-8.09-6.38-.484-.262-1.092-.079-1.354.407-.262.487-.079 1.093.407 1.355z"/></g></g></g></g></svg>